%TF.GenerationSoftware,KiCad,Pcbnew,5.1.7-a382d34a8~87~ubuntu18.04.1*%
%TF.CreationDate,2020-10-15T21:21:34+02:00*%
%TF.ProjectId,veriController,76657269-436f-46e7-9472-6f6c6c65722e,rev?*%
%TF.SameCoordinates,Original*%
%TF.FileFunction,Soldermask,Bot*%
%TF.FilePolarity,Negative*%
%FSLAX46Y46*%
G04 Gerber Fmt 4.6, Leading zero omitted, Abs format (unit mm)*
G04 Created by KiCad (PCBNEW 5.1.7-a382d34a8~87~ubuntu18.04.1) date 2020-10-15 21:21:34*
%MOMM*%
%LPD*%
G01*
G04 APERTURE LIST*
%ADD10R,1.700000X1.700000*%
%ADD11O,1.700000X1.700000*%
%ADD12R,3.000000X3.000000*%
%ADD13C,3.000000*%
%ADD14C,2.000000*%
%ADD15C,0.900000*%
G04 APERTURE END LIST*
D10*
%TO.C,J2*%
X46355000Y-91995001D03*
D11*
X46355000Y-94535001D03*
X46355000Y-97075001D03*
X46355000Y-99615001D03*
X46355000Y-102155001D03*
X46355000Y-104695001D03*
X46355000Y-107235001D03*
X46355000Y-109775001D03*
X46355000Y-112315001D03*
X46355000Y-114855001D03*
X46355000Y-117395001D03*
X46355000Y-119935001D03*
X46355000Y-122475001D03*
X46355000Y-125015001D03*
X46355000Y-127555001D03*
%TD*%
%TO.C,J4*%
X48895000Y-127555001D03*
X48895000Y-125015001D03*
X48895000Y-122475001D03*
X48895000Y-119935001D03*
X48895000Y-117395001D03*
X48895000Y-114855001D03*
X48895000Y-112315001D03*
X48895000Y-109775001D03*
X48895000Y-107235001D03*
X48895000Y-104695001D03*
X48895000Y-102155001D03*
X48895000Y-99615001D03*
X48895000Y-97075001D03*
X48895000Y-94535001D03*
D10*
X48895000Y-91995001D03*
%TD*%
D11*
%TO.C,J5*%
X81915000Y-127635000D03*
X81915000Y-125095000D03*
X81915000Y-122555000D03*
X81915000Y-120015000D03*
X81915000Y-117475000D03*
X81915000Y-114935000D03*
X81915000Y-112395000D03*
X81915000Y-109855000D03*
X81915000Y-107315000D03*
X81915000Y-104775000D03*
X81915000Y-102235000D03*
X81915000Y-99695000D03*
X81915000Y-97155000D03*
X81915000Y-94615000D03*
D10*
X81915000Y-92075000D03*
%TD*%
%TO.C,J3*%
X84455000Y-92075000D03*
D11*
X84455000Y-94615000D03*
X84455000Y-97155000D03*
X84455000Y-99695000D03*
X84455000Y-102235000D03*
X84455000Y-104775000D03*
X84455000Y-107315000D03*
X84455000Y-109855000D03*
X84455000Y-112395000D03*
X84455000Y-114935000D03*
X84455000Y-117475000D03*
X84455000Y-120015000D03*
X84455000Y-122555000D03*
X84455000Y-125095000D03*
X84455000Y-127635000D03*
%TD*%
D10*
%TO.C,J1*%
X63500000Y-127635000D03*
D11*
X66040000Y-127635000D03*
X68580000Y-127635000D03*
X71120000Y-127635000D03*
X73660000Y-127635000D03*
X76200000Y-127635000D03*
%TD*%
D12*
%TO.C,J6*%
X48006000Y-66675000D03*
D13*
X48006000Y-71755000D03*
%TD*%
D10*
%TO.C,J7*%
X81200001Y-62570001D03*
D11*
X81200001Y-65110001D03*
X81200001Y-67650001D03*
X81200001Y-70190001D03*
X81200001Y-72730001D03*
%TD*%
%TO.C,J8*%
X85090000Y-72730001D03*
X85090000Y-70190001D03*
X85090000Y-67650001D03*
X85090000Y-65110001D03*
D10*
X85090000Y-62570001D03*
%TD*%
%TO.C,JP2*%
X75565000Y-84455000D03*
D11*
X75565000Y-86995000D03*
%TD*%
%TO.C,JP3*%
X75565000Y-80645000D03*
D10*
X75565000Y-78105000D03*
%TD*%
D14*
%TO.C,SW1*%
X55190000Y-121285000D03*
X59690000Y-121285000D03*
X55190000Y-127785000D03*
X59690000Y-127785000D03*
%TD*%
D10*
%TO.C,JP1*%
X80010000Y-87630000D03*
D11*
X82550000Y-87630000D03*
X85090000Y-87630000D03*
%TD*%
D15*
%TO.C,J9*%
X50038000Y-80604000D03*
X50038000Y-85004000D03*
%TD*%
M02*
