M48
; DRILL file {KiCad 5.1.7-a382d34a8~87~ubuntu18.04.1} date Thu Oct 15 21:21:43 2020
; FORMAT={-:-/ absolute / inch / decimal}
; #@! TF.CreationDate,2020-10-15T21:21:43+02:00
; #@! TF.GenerationSoftware,Kicad,Pcbnew,5.1.7-a382d34a8~87~ubuntu18.04.1
FMAT,2
INCH
T1C0.0118
T2C0.0157
T3C0.0394
T4C0.0433
T5C0.0598
T6C0.0354
%
G90
G05
T1
X2.025Y-4.3
X2.2Y-4.275
X2.27Y-3.25
X2.325Y-4.15
X2.375Y-3.285
X2.385Y-3.34
X2.4Y-3.925
X2.435Y-3.395
X2.45Y-3.775
X2.45Y-4.475
X2.4513Y-3.9876
X2.5Y-3.5
X2.525Y-4.25
X2.55Y-4.0
X2.575Y-4.025
X2.58Y-3.25
X2.59Y-3.395
X2.6Y-3.9
X2.6945Y-3.9805
X2.7Y-3.775
X2.7Y-4.9
X2.825Y-4.35
X2.9054Y-3.2
X2.91Y-4.42
X2.975Y-4.525
X3.0028Y-4.4972
X3.05Y-4.325
X3.075Y-2.925
X3.165Y-3.07
T2
X1.97Y-3.085
X1.97Y-3.43
X2.15Y-2.775
X2.185Y-3.34
X2.275Y-2.65
X2.275Y-3.15
X2.3102Y-2.4352
X2.3102Y-2.7352
X2.32Y-3.15
X2.445Y-3.05
X2.51Y-3.45
X2.95Y-3.5124
X3.015Y-3.535
X3.0725Y-2.6775
X3.125Y-3.155
X3.23Y-3.03
X3.3651Y-3.1499
T3
X3.225Y-3.625
X3.225Y-3.725
X3.225Y-3.825
X3.225Y-3.925
X3.225Y-4.025
X3.225Y-4.125
X3.225Y-4.225
X3.225Y-4.325
X3.225Y-4.425
X3.225Y-4.525
X3.225Y-4.625
X3.225Y-4.725
X3.225Y-4.825
X3.225Y-4.925
X3.225Y-5.025
X3.325Y-3.625
X3.325Y-3.725
X3.325Y-3.825
X3.325Y-3.925
X3.325Y-4.025
X3.325Y-4.125
X3.325Y-4.225
X3.325Y-4.325
X3.325Y-4.425
X3.325Y-4.525
X3.325Y-4.625
X3.325Y-4.725
X3.325Y-4.825
X3.325Y-4.925
X3.325Y-5.025
X1.825Y-3.6219
X1.825Y-3.7219
X1.825Y-3.8219
X1.825Y-3.9219
X1.825Y-4.0219
X1.825Y-4.1219
X1.825Y-4.2219
X1.825Y-4.3219
X1.825Y-4.4219
X1.825Y-4.5219
X1.825Y-4.6219
X1.825Y-4.7219
X1.825Y-4.8219
X1.825Y-4.9219
X1.825Y-5.0219
X3.15Y-3.45
X3.25Y-3.45
X3.35Y-3.45
X1.925Y-3.6219
X1.925Y-3.7219
X1.925Y-3.8219
X1.925Y-3.9219
X1.925Y-4.0219
X1.925Y-4.1219
X1.925Y-4.2219
X1.925Y-4.3219
X1.925Y-4.4219
X1.925Y-4.5219
X1.925Y-4.6219
X1.925Y-4.7219
X1.925Y-4.8219
X1.925Y-4.9219
X1.925Y-5.0219
X3.35Y-2.4634
X3.35Y-2.5634
X3.35Y-2.6634
X3.35Y-2.7634
X3.35Y-2.8634
X3.1969Y-2.4634
X3.1969Y-2.5634
X3.1969Y-2.6634
X3.1969Y-2.7634
X3.1969Y-2.8634
X2.5Y-5.025
X2.6Y-5.025
X2.7Y-5.025
X2.8Y-5.025
X2.9Y-5.025
X3.0Y-5.025
X2.975Y-3.325
X2.975Y-3.425
X2.975Y-3.075
X2.975Y-3.175
T4
X2.1728Y-4.775
X2.1728Y-5.0309
X2.35Y-4.775
X2.35Y-5.0309
T5
X1.89Y-2.625
X1.89Y-2.825
T6
X1.97Y-3.1734
X1.97Y-3.3466
T0
M30
