%TF.GenerationSoftware,KiCad,Pcbnew,5.1.7-a382d34a8~87~ubuntu18.04.1*%
%TF.CreationDate,2020-10-15T21:21:34+02:00*%
%TF.ProjectId,veriController,76657269-436f-46e7-9472-6f6c6c65722e,rev?*%
%TF.SameCoordinates,Original*%
%TF.FileFunction,Copper,L2,Bot*%
%TF.FilePolarity,Positive*%
%FSLAX46Y46*%
G04 Gerber Fmt 4.6, Leading zero omitted, Abs format (unit mm)*
G04 Created by KiCad (PCBNEW 5.1.7-a382d34a8~87~ubuntu18.04.1) date 2020-10-15 21:21:34*
%MOMM*%
%LPD*%
G01*
G04 APERTURE LIST*
%TA.AperFunction,ComponentPad*%
%ADD10R,1.700000X1.700000*%
%TD*%
%TA.AperFunction,ComponentPad*%
%ADD11O,1.700000X1.700000*%
%TD*%
%TA.AperFunction,ComponentPad*%
%ADD12R,3.000000X3.000000*%
%TD*%
%TA.AperFunction,ComponentPad*%
%ADD13C,3.000000*%
%TD*%
%TA.AperFunction,ComponentPad*%
%ADD14C,2.000000*%
%TD*%
%TA.AperFunction,ViaPad*%
%ADD15C,0.600000*%
%TD*%
%TA.AperFunction,ViaPad*%
%ADD16C,0.800000*%
%TD*%
%TA.AperFunction,Conductor*%
%ADD17C,1.000000*%
%TD*%
%TA.AperFunction,Conductor*%
%ADD18C,0.250000*%
%TD*%
%TA.AperFunction,Conductor*%
%ADD19C,0.400000*%
%TD*%
%TA.AperFunction,Conductor*%
%ADD20C,0.800000*%
%TD*%
%TA.AperFunction,Conductor*%
%ADD21C,0.254000*%
%TD*%
%TA.AperFunction,Conductor*%
%ADD22C,0.100000*%
%TD*%
G04 APERTURE END LIST*
D10*
%TO.P,J2,1*%
%TO.N,/RE1*%
X46355000Y-91995001D03*
D11*
%TO.P,J2,2*%
%TO.N,/RG0*%
X46355000Y-94535001D03*
%TO.P,J2,3*%
%TO.N,/RG2*%
X46355000Y-97075001D03*
%TO.P,J2,4*%
%TO.N,/~MCLR~*%
X46355000Y-99615001D03*
%TO.P,J2,5*%
%TO.N,/RF7*%
X46355000Y-102155001D03*
%TO.P,J2,6*%
%TO.N,/RF5*%
X46355000Y-104695001D03*
%TO.P,J2,7*%
%TO.N,/RF3*%
X46355000Y-107235001D03*
%TO.P,J2,8*%
%TO.N,/RF1*%
X46355000Y-109775001D03*
%TO.P,J2,9*%
%TO.N,VDDA*%
X46355000Y-112315001D03*
%TO.P,J2,10*%
%TO.N,/RA3*%
X46355000Y-114855001D03*
%TO.P,J2,11*%
%TO.N,/RA1*%
X46355000Y-117395001D03*
%TO.P,J2,12*%
%TO.N,/RA5*%
X46355000Y-119935001D03*
%TO.P,J2,13*%
%TO.N,/RC1*%
X46355000Y-122475001D03*
%TO.P,J2,14*%
%TO.N,TX1*%
X46355000Y-125015001D03*
%TO.P,J2,15*%
%TO.N,GND*%
X46355000Y-127555001D03*
%TD*%
%TO.P,J4,15*%
%TO.N,VDD*%
X48895000Y-127555001D03*
%TO.P,J4,14*%
%TO.N,RX1*%
X48895000Y-125015001D03*
%TO.P,J4,13*%
%TO.N,/RC0*%
X48895000Y-122475001D03*
%TO.P,J4,12*%
%TO.N,/RA4*%
X48895000Y-119935001D03*
%TO.P,J4,11*%
%TO.N,/RA0*%
X48895000Y-117395001D03*
%TO.P,J4,10*%
%TO.N,/RA2*%
X48895000Y-114855001D03*
%TO.P,J4,9*%
%TO.N,GND*%
X48895000Y-112315001D03*
%TO.P,J4,8*%
%TO.N,/RF0*%
X48895000Y-109775001D03*
%TO.P,J4,7*%
%TO.N,/RF2*%
X48895000Y-107235001D03*
%TO.P,J4,6*%
%TO.N,/RF4*%
X48895000Y-104695001D03*
%TO.P,J4,5*%
%TO.N,/RF6*%
X48895000Y-102155001D03*
%TO.P,J4,4*%
%TO.N,/RG4*%
X48895000Y-99615001D03*
%TO.P,J4,3*%
%TO.N,/RG3*%
X48895000Y-97075001D03*
%TO.P,J4,2*%
%TO.N,/RG1*%
X48895000Y-94535001D03*
D10*
%TO.P,J4,1*%
%TO.N,/RE0*%
X48895000Y-91995001D03*
%TD*%
D11*
%TO.P,J5,15*%
%TO.N,VDD*%
X81915000Y-127635000D03*
%TO.P,J5,14*%
%TO.N,/RC2*%
X81915000Y-125095000D03*
%TO.P,J5,13*%
%TO.N,/RC4*%
X81915000Y-122555000D03*
%TO.P,J5,12*%
%TO.N,Net-(J5-Pad12)*%
X81915000Y-120015000D03*
%TO.P,J5,11*%
%TO.N,GND*%
X81915000Y-117475000D03*
%TO.P,J5,10*%
X81915000Y-114935000D03*
%TO.P,J5,9*%
%TO.N,/RB3*%
X81915000Y-112395000D03*
%TO.P,J5,8*%
%TO.N,/RB1*%
X81915000Y-109855000D03*
%TO.P,J5,7*%
%TO.N,/RD7*%
X81915000Y-107315000D03*
%TO.P,J5,6*%
%TO.N,/RD5*%
X81915000Y-104775000D03*
%TO.P,J5,5*%
%TO.N,/RD3*%
X81915000Y-102235000D03*
%TO.P,J5,4*%
%TO.N,/RD1*%
X81915000Y-99695000D03*
%TO.P,J5,3*%
%TO.N,/RE7*%
X81915000Y-97155000D03*
%TO.P,J5,2*%
%TO.N,/RE5*%
X81915000Y-94615000D03*
D10*
%TO.P,J5,1*%
%TO.N,/RE3*%
X81915000Y-92075000D03*
%TD*%
%TO.P,J3,1*%
%TO.N,/RE2*%
X84455000Y-92075000D03*
D11*
%TO.P,J3,2*%
%TO.N,/RE4*%
X84455000Y-94615000D03*
%TO.P,J3,3*%
%TO.N,/RE6*%
X84455000Y-97155000D03*
%TO.P,J3,4*%
%TO.N,/RD0*%
X84455000Y-99695000D03*
%TO.P,J3,5*%
%TO.N,/RD2*%
X84455000Y-102235000D03*
%TO.P,J3,6*%
%TO.N,/RD4*%
X84455000Y-104775000D03*
%TO.P,J3,7*%
%TO.N,/RD6*%
X84455000Y-107315000D03*
%TO.P,J3,8*%
%TO.N,/RB0*%
X84455000Y-109855000D03*
%TO.P,J3,9*%
%TO.N,/RB2*%
X84455000Y-112395000D03*
%TO.P,J3,10*%
%TO.N,/RB4*%
X84455000Y-114935000D03*
%TO.P,J3,11*%
%TO.N,Net-(J3-Pad11)*%
X84455000Y-117475000D03*
%TO.P,J3,12*%
%TO.N,GND*%
X84455000Y-120015000D03*
%TO.P,J3,13*%
%TO.N,/RC5*%
X84455000Y-122555000D03*
%TO.P,J3,14*%
%TO.N,/RC3*%
X84455000Y-125095000D03*
%TO.P,J3,15*%
%TO.N,GND*%
X84455000Y-127635000D03*
%TD*%
D10*
%TO.P,J1,1*%
%TO.N,/~MCLR~*%
X63500000Y-127635000D03*
D11*
%TO.P,J1,2*%
%TO.N,VDD*%
X66040000Y-127635000D03*
%TO.P,J1,3*%
%TO.N,GND*%
X68580000Y-127635000D03*
%TO.P,J1,4*%
%TO.N,/PGD*%
X71120000Y-127635000D03*
%TO.P,J1,5*%
%TO.N,/PGC*%
X73660000Y-127635000D03*
%TO.P,J1,6*%
%TO.N,N/C*%
X76200000Y-127635000D03*
%TD*%
D12*
%TO.P,J6,1*%
%TO.N,GND*%
X48006000Y-66675000D03*
D13*
%TO.P,J6,2*%
%TO.N,Net-(C10-Pad1)*%
X48006000Y-71755000D03*
%TD*%
D10*
%TO.P,J7,1*%
%TO.N,+5V*%
X81200001Y-62570001D03*
D11*
%TO.P,J7,2*%
%TO.N,VDD*%
X81200001Y-65110001D03*
%TO.P,J7,3*%
%TO.N,VBUS*%
X81200001Y-67650001D03*
%TO.P,J7,4*%
%TO.N,VDD*%
X81200001Y-70190001D03*
%TO.P,J7,5*%
%TO.N,+3V3*%
X81200001Y-72730001D03*
%TD*%
%TO.P,J8,5*%
%TO.N,+3V3*%
X85090000Y-72730001D03*
%TO.P,J8,4*%
%TO.N,VDDA*%
X85090000Y-70190001D03*
%TO.P,J8,3*%
%TO.N,VBUS*%
X85090000Y-67650001D03*
%TO.P,J8,2*%
%TO.N,VDDA*%
X85090000Y-65110001D03*
D10*
%TO.P,J8,1*%
%TO.N,+5V*%
X85090000Y-62570001D03*
%TD*%
%TO.P,JP2,1*%
%TO.N,Net-(JP2-Pad1)*%
X75565000Y-84455000D03*
D11*
%TO.P,JP2,2*%
%TO.N,RX1*%
X75565000Y-86995000D03*
%TD*%
%TO.P,JP3,2*%
%TO.N,TX1*%
X75565000Y-80645000D03*
D10*
%TO.P,JP3,1*%
%TO.N,Net-(JP3-Pad1)*%
X75565000Y-78105000D03*
%TD*%
D14*
%TO.P,SW1,2*%
%TO.N,GND*%
X55190000Y-121285000D03*
%TO.P,SW1,1*%
%TO.N,/~MCLR~*%
X59690000Y-121285000D03*
%TO.P,SW1,2*%
%TO.N,GND*%
X55190000Y-127785000D03*
%TO.P,SW1,1*%
%TO.N,/~MCLR~*%
X59690000Y-127785000D03*
%TD*%
D10*
%TO.P,JP1,1*%
%TO.N,GND*%
X80010000Y-87630000D03*
D11*
%TO.P,JP1,2*%
%TO.N,/PGM*%
X82550000Y-87630000D03*
%TO.P,JP1,3*%
%TO.N,VDD*%
X85090000Y-87630000D03*
%TD*%
D15*
%TO.N,GND*%
X65786000Y-86233000D03*
D16*
X58680000Y-69475000D03*
X58680000Y-61855000D03*
X78042500Y-68007500D03*
D15*
X80391000Y-77978000D03*
X78105000Y-74295000D03*
X59055000Y-105410000D03*
X62262894Y-101285821D03*
X60960000Y-99695000D03*
X62230000Y-95885000D03*
X66040000Y-99060000D03*
X68580000Y-95885000D03*
X63500000Y-88900000D03*
X68580000Y-124460000D03*
X62230000Y-113665000D03*
X64135000Y-107950000D03*
X71755000Y-110490000D03*
X73914000Y-112268000D03*
D16*
X62103000Y-77470000D03*
X55499000Y-84836000D03*
D15*
X57658000Y-82550000D03*
D16*
X50038000Y-78359000D03*
X50038000Y-87122000D03*
D15*
X68439277Y-101105723D03*
%TO.N,VDD*%
X73798000Y-81280000D03*
D16*
X85473000Y-80008000D03*
X76581000Y-89789000D03*
X82042000Y-76962000D03*
D15*
%TO.N,VDDA*%
X55880000Y-108585000D03*
X51435000Y-109220000D03*
D16*
X74930000Y-89214971D03*
X79375000Y-80137000D03*
D15*
%TO.N,RX1*%
X65405000Y-102235000D03*
%TO.N,TX1*%
X64770000Y-101600000D03*
%TO.N,/PGD*%
X75565000Y-114935000D03*
D16*
%TO.N,VBUS*%
X57785000Y-80010000D03*
X63754000Y-87630000D03*
X58928000Y-80010000D03*
D15*
%TO.N,/PGC*%
X76272108Y-114227892D03*
D16*
%TO.N,Net-(C10-Pad1)*%
X57785000Y-67310000D03*
X54610000Y-70485000D03*
D15*
%TO.N,Net-(C21-Pad2)*%
X65532000Y-82550000D03*
X61849000Y-86233000D03*
%TO.N,/PGM*%
X77470000Y-109855000D03*
%TO.N,Net-(R7-Pad1)*%
X60325000Y-83439000D03*
X60579000Y-84836000D03*
%TD*%
D17*
%TO.N,GND*%
X58680000Y-61855000D02*
X59690000Y-62865000D01*
X76575000Y-69475000D02*
X78042500Y-68007500D01*
X59690000Y-69215000D02*
X59430000Y-69475000D01*
X59690000Y-62865000D02*
X59690000Y-69215000D01*
X58680000Y-69475000D02*
X59430000Y-69475000D01*
X59430000Y-69475000D02*
X76575000Y-69475000D01*
D18*
X59055000Y-105410000D02*
X62230000Y-102235000D01*
X62230000Y-102235000D02*
X62230000Y-101318715D01*
X62230000Y-101318715D02*
X62262894Y-101285821D01*
X60960000Y-99695000D02*
X60960000Y-99982927D01*
X62230000Y-95885000D02*
X62865000Y-95885000D01*
X62865000Y-95885000D02*
X63217059Y-95885000D01*
X66040000Y-98707941D02*
X66040000Y-99060000D01*
X67945000Y-95885000D02*
X65581029Y-98248971D01*
X68580000Y-95885000D02*
X67945000Y-95885000D01*
X63676029Y-96343971D02*
X66040000Y-98707941D01*
X61768536Y-100791464D02*
X64946029Y-97613971D01*
X64946029Y-97613971D02*
X65581029Y-98248971D01*
X63217059Y-95885000D02*
X64946029Y-97613971D01*
X61768536Y-100791464D02*
X62262894Y-101285821D01*
X60960000Y-99982927D02*
X61768536Y-100791464D01*
X63500000Y-95602059D02*
X63217059Y-95885000D01*
X63500000Y-88900000D02*
X63500000Y-95602059D01*
X55190000Y-121285000D02*
X55190000Y-116785000D01*
X50720001Y-112315001D02*
X49530000Y-112315001D01*
X55190000Y-116785000D02*
X50720001Y-112315001D01*
D19*
X68580000Y-127635000D02*
X68580000Y-124460000D01*
D20*
X58680000Y-77095000D02*
X59055000Y-77470000D01*
X58680000Y-69475000D02*
X58680000Y-77095000D01*
D19*
X83165001Y-121304999D02*
X84455000Y-120015000D01*
X83165001Y-126345001D02*
X83165001Y-121304999D01*
X84455000Y-127635000D02*
X83165001Y-126345001D01*
X62230000Y-109855000D02*
X62230000Y-111125000D01*
X62230000Y-113665000D02*
X62230000Y-111760000D01*
X62230000Y-111760000D02*
X62230000Y-111125000D01*
X81915000Y-117475000D02*
X81915000Y-114935000D01*
D20*
X59055000Y-77470000D02*
X62103000Y-77470000D01*
X59055000Y-77470000D02*
X58674000Y-77470000D01*
D19*
X55626000Y-82550000D02*
X55499000Y-82423000D01*
X57658000Y-82550000D02*
X55626000Y-82550000D01*
D20*
X55499000Y-80645000D02*
X55499000Y-82423000D01*
X55499000Y-82423000D02*
X55499000Y-84836000D01*
X80391000Y-77978000D02*
X78105000Y-75692000D01*
X78105000Y-75692000D02*
X78105000Y-74295000D01*
X58674000Y-77470000D02*
X58166000Y-77978000D01*
X57785000Y-78359000D02*
X58166000Y-77978000D01*
X55499000Y-78486000D02*
X55372000Y-78359000D01*
X55499000Y-80645000D02*
X55499000Y-78486000D01*
X55372000Y-78359000D02*
X57785000Y-78359000D01*
X53213000Y-87122000D02*
X55499000Y-84836000D01*
X50038000Y-87122000D02*
X53213000Y-87122000D01*
X50038000Y-78359000D02*
X50546000Y-78359000D01*
X50546000Y-78359000D02*
X55118000Y-78359000D01*
D19*
X66040000Y-99060000D02*
X63500000Y-101600000D01*
X64135000Y-107950000D02*
X63500000Y-108585000D01*
X63500000Y-108585000D02*
X62230000Y-109855000D01*
X64135000Y-107950000D02*
X63500000Y-107950000D01*
X63500000Y-101600000D02*
X63500000Y-107950000D01*
X63500000Y-107950000D02*
X63500000Y-108585000D01*
X72136000Y-110490000D02*
X73914000Y-112268000D01*
X71755000Y-110490000D02*
X72136000Y-110490000D01*
X72136000Y-104802446D02*
X68439277Y-101105723D01*
X72136000Y-110490000D02*
X72136000Y-104802446D01*
D20*
%TO.N,VDD*%
X49530000Y-127555001D02*
X51990001Y-125095000D01*
X51990001Y-125095000D02*
X64770000Y-125095000D01*
X66040000Y-126365000D02*
X66040000Y-127635000D01*
D18*
X81200001Y-70190001D02*
X80775001Y-70615001D01*
D19*
X80775001Y-70615001D02*
X79187501Y-72202501D01*
D20*
X81200001Y-70190001D02*
X79187501Y-72202501D01*
D19*
X79187501Y-72202501D02*
X78365002Y-73025000D01*
D20*
X79187501Y-74107501D02*
X81280000Y-76200000D01*
D19*
X78365002Y-73025000D02*
X78740000Y-73025000D01*
D20*
X79187501Y-72202501D02*
X79187501Y-73472501D01*
D19*
X78740000Y-73025000D02*
X79187501Y-73472501D01*
D20*
X79187501Y-73472501D02*
X79187501Y-74107501D01*
X65913000Y-125095000D02*
X66040000Y-124968000D01*
X64770000Y-125095000D02*
X65913000Y-125095000D01*
X66040000Y-127635000D02*
X66040000Y-124968000D01*
D19*
X73798000Y-75300000D02*
X76073000Y-73025000D01*
X73798000Y-81280000D02*
X73798000Y-75300000D01*
X78365002Y-73025000D02*
X76073000Y-73025000D01*
D20*
X81280000Y-76200000D02*
X82042000Y-76962000D01*
X66040000Y-122555000D02*
X66040000Y-124968000D01*
X85473000Y-80008000D02*
X79883000Y-85598000D01*
X79883000Y-85598000D02*
X79261998Y-85598000D01*
X76200000Y-112395000D02*
X66040000Y-122555000D01*
X79261998Y-85598000D02*
X78105000Y-86754998D01*
X78105000Y-86754998D02*
X78105000Y-88265000D01*
X78105000Y-88265000D02*
X76200000Y-90170000D01*
X76200000Y-90170000D02*
X76200000Y-112395000D01*
D19*
%TO.N,VDDA*%
X52070000Y-108585000D02*
X51435000Y-109220000D01*
X55880000Y-108585000D02*
X52070000Y-108585000D01*
X85090000Y-70190001D02*
X83185000Y-72095001D01*
D20*
X85090000Y-65110001D02*
X83185000Y-67015001D01*
X83185000Y-68285001D02*
X85090000Y-70190001D01*
X83185000Y-67015001D02*
X83185000Y-68285001D01*
D19*
X79375000Y-80137000D02*
X81661000Y-80137000D01*
X83185000Y-72095001D02*
X83185000Y-78613000D01*
X55880000Y-108585000D02*
X62295001Y-115000001D01*
X62295001Y-115000001D02*
X72324999Y-115000001D01*
X81661000Y-80137000D02*
X83185000Y-78613000D01*
X72324999Y-115000001D02*
X74930000Y-112395000D01*
X74930000Y-89408000D02*
X74930000Y-89214971D01*
X74930000Y-112395000D02*
X74930000Y-89408000D01*
D18*
%TO.N,/~MCLR~*%
X59690000Y-121285000D02*
X58364999Y-122610001D01*
X54030001Y-122610001D02*
X52720000Y-121300000D01*
X58364999Y-122610001D02*
X54030001Y-122610001D01*
X52720000Y-121300000D02*
X48251000Y-121300000D01*
X47625000Y-120674000D02*
X47867000Y-120916000D01*
X46275001Y-99615001D02*
X47625000Y-100965000D01*
X48251000Y-121300000D02*
X47867000Y-120916000D01*
X47625000Y-100965000D02*
X47625000Y-120674000D01*
%TO.N,RX1*%
X65405000Y-102235000D02*
X73660000Y-93980000D01*
X73660000Y-88900000D02*
X73660000Y-89154000D01*
X75565000Y-86995000D02*
X73660000Y-88900000D01*
X73660000Y-93980000D02*
X73660000Y-89154000D01*
%TO.N,TX1*%
X73025000Y-87376000D02*
X74168000Y-86233000D01*
X64770000Y-101600000D02*
X73025000Y-93345000D01*
X73025000Y-93345000D02*
X73025000Y-87376000D01*
X74168000Y-82042000D02*
X75565000Y-80645000D01*
X74168000Y-82804000D02*
X74168000Y-82042000D01*
X74168000Y-82804000D02*
X74168000Y-82550000D01*
X74168000Y-86233000D02*
X74168000Y-82804000D01*
%TO.N,/PGD*%
X71120000Y-121970548D02*
X71120000Y-127635000D01*
X71120000Y-121970548D02*
X71120000Y-119380000D01*
X71120000Y-119380000D02*
X75565000Y-114935000D01*
D19*
%TO.N,VBUS*%
X60706000Y-87630000D02*
X61341000Y-87630000D01*
X61341000Y-87630000D02*
X61976000Y-87630000D01*
D20*
X60643998Y-87630000D02*
X60706000Y-87630000D01*
X60643998Y-87630000D02*
X61976000Y-87630000D01*
X59944000Y-87630000D02*
X60643998Y-87630000D01*
X61976000Y-87630000D02*
X63754000Y-87630000D01*
X59944000Y-87630000D02*
X59055000Y-86741000D01*
X59055000Y-81280000D02*
X57785000Y-80010000D01*
X59055000Y-86741000D02*
X59055000Y-81280000D01*
X77667499Y-71317499D02*
X81200001Y-67784997D01*
X73462501Y-71317499D02*
X77667499Y-71317499D01*
X81200001Y-67784997D02*
X81200001Y-67650001D01*
X64770000Y-80010000D02*
X73462501Y-71317499D01*
X59055000Y-81280000D02*
X59055000Y-80137000D01*
X59055000Y-80137000D02*
X58928000Y-80010000D01*
X57785000Y-80010000D02*
X58928000Y-80010000D01*
X58928000Y-80010000D02*
X64770000Y-80010000D01*
D18*
%TO.N,/PGC*%
X73660000Y-127635000D02*
X73660000Y-120650000D01*
X73660000Y-120650000D02*
X73660000Y-118745000D01*
X73660000Y-118745000D02*
X76290001Y-116114999D01*
X76290001Y-116114999D02*
X76290001Y-114245785D01*
X76290001Y-114245785D02*
X76272108Y-114227892D01*
D17*
%TO.N,Net-(C10-Pad1)*%
X57785000Y-67310000D02*
X54610000Y-70485000D01*
D18*
%TO.N,Net-(C21-Pad2)*%
X61849000Y-86233000D02*
X65532000Y-82550000D01*
%TO.N,/PGM*%
X77470000Y-109855000D02*
X77470000Y-92075000D01*
X77470000Y-92075000D02*
X80010000Y-89535000D01*
X80010000Y-89535000D02*
X81915000Y-89535000D01*
X82550000Y-88900000D02*
X82550000Y-87630000D01*
X81915000Y-89535000D02*
X82550000Y-88900000D01*
%TO.N,Net-(R7-Pad1)*%
X60325000Y-83439000D02*
X60325000Y-84582000D01*
X60325000Y-84582000D02*
X60579000Y-84836000D01*
%TD*%
D21*
%TO.N,GND*%
X86233000Y-61156594D02*
X86184180Y-61130499D01*
X86064482Y-61094189D01*
X85940000Y-61081929D01*
X84240000Y-61081929D01*
X84115518Y-61094189D01*
X83995820Y-61130499D01*
X83885506Y-61189464D01*
X83788815Y-61268816D01*
X83709463Y-61365507D01*
X83650498Y-61475821D01*
X83614188Y-61595519D01*
X83601928Y-61720001D01*
X83601928Y-63420001D01*
X83614188Y-63544483D01*
X83650498Y-63664181D01*
X83709463Y-63774495D01*
X83788815Y-63871186D01*
X83885506Y-63950538D01*
X83995820Y-64009503D01*
X84068380Y-64031514D01*
X83936525Y-64163369D01*
X83774010Y-64406590D01*
X83662068Y-64676843D01*
X83605000Y-64963741D01*
X83605000Y-65131290D01*
X82489097Y-66247194D01*
X82449604Y-66279605D01*
X82320266Y-66437204D01*
X82239122Y-66589015D01*
X82146633Y-66496526D01*
X81972241Y-66380001D01*
X82146633Y-66263476D01*
X82353476Y-66056633D01*
X82515991Y-65813412D01*
X82627933Y-65543159D01*
X82685001Y-65256261D01*
X82685001Y-64963741D01*
X82627933Y-64676843D01*
X82515991Y-64406590D01*
X82353476Y-64163369D01*
X82221621Y-64031514D01*
X82294181Y-64009503D01*
X82404495Y-63950538D01*
X82501186Y-63871186D01*
X82580538Y-63774495D01*
X82639503Y-63664181D01*
X82675813Y-63544483D01*
X82688073Y-63420001D01*
X82688073Y-61720001D01*
X82675813Y-61595519D01*
X82639503Y-61475821D01*
X82580538Y-61365507D01*
X82501186Y-61268816D01*
X82404495Y-61189464D01*
X82294181Y-61130499D01*
X82174483Y-61094189D01*
X82050001Y-61081929D01*
X80350001Y-61081929D01*
X80225519Y-61094189D01*
X80105821Y-61130499D01*
X79995507Y-61189464D01*
X79898816Y-61268816D01*
X79819464Y-61365507D01*
X79760499Y-61475821D01*
X79724189Y-61595519D01*
X79711929Y-61720001D01*
X79711929Y-63420001D01*
X79724189Y-63544483D01*
X79760499Y-63664181D01*
X79819464Y-63774495D01*
X79898816Y-63871186D01*
X79995507Y-63950538D01*
X80105821Y-64009503D01*
X80178381Y-64031514D01*
X80046526Y-64163369D01*
X79884011Y-64406590D01*
X79772069Y-64676843D01*
X79715001Y-64963741D01*
X79715001Y-65256261D01*
X79772069Y-65543159D01*
X79884011Y-65813412D01*
X80046526Y-66056633D01*
X80253369Y-66263476D01*
X80427761Y-66380001D01*
X80253369Y-66496526D01*
X80046526Y-66703369D01*
X79884011Y-66946590D01*
X79772069Y-67216843D01*
X79715001Y-67503741D01*
X79715001Y-67796261D01*
X79716664Y-67804623D01*
X77238789Y-70282499D01*
X73513336Y-70282499D01*
X73462501Y-70277492D01*
X73411666Y-70282499D01*
X73411663Y-70282499D01*
X73259606Y-70297475D01*
X73064508Y-70356658D01*
X72996711Y-70392896D01*
X72884703Y-70452765D01*
X72845425Y-70485000D01*
X72727105Y-70582103D01*
X72694698Y-70621591D01*
X64341290Y-78975000D01*
X58978828Y-78975000D01*
X58928000Y-78969994D01*
X58877172Y-78975000D01*
X57835828Y-78975000D01*
X57785000Y-78969994D01*
X57734172Y-78975000D01*
X57683061Y-78975000D01*
X57632943Y-78984969D01*
X57582105Y-78989976D01*
X57533223Y-79004804D01*
X57483102Y-79014774D01*
X57435887Y-79034331D01*
X57387007Y-79049159D01*
X57341958Y-79073238D01*
X57294744Y-79092795D01*
X57252254Y-79121186D01*
X57207203Y-79145266D01*
X57167716Y-79177672D01*
X57125226Y-79206063D01*
X57089092Y-79242197D01*
X57049604Y-79274604D01*
X57017197Y-79314092D01*
X56981063Y-79350226D01*
X56952672Y-79392716D01*
X56920266Y-79432203D01*
X56896186Y-79477254D01*
X56867795Y-79519744D01*
X56848238Y-79566958D01*
X56824159Y-79612007D01*
X56809331Y-79660887D01*
X56789774Y-79708102D01*
X56779804Y-79758223D01*
X56764976Y-79807105D01*
X56759969Y-79857943D01*
X56750000Y-79908061D01*
X56750000Y-79959162D01*
X56744993Y-80010000D01*
X56750000Y-80060838D01*
X56750000Y-80111939D01*
X56759969Y-80162057D01*
X56764976Y-80212895D01*
X56779804Y-80261777D01*
X56789774Y-80311898D01*
X56809331Y-80359113D01*
X56824159Y-80407993D01*
X56848238Y-80453042D01*
X56867795Y-80500256D01*
X56896186Y-80542746D01*
X56920266Y-80587797D01*
X56952672Y-80627284D01*
X56981063Y-80669774D01*
X57017196Y-80705907D01*
X57049604Y-80745396D01*
X57089092Y-80777803D01*
X57125226Y-80813937D01*
X57125229Y-80813939D01*
X58020001Y-81708712D01*
X58020000Y-86690172D01*
X58014994Y-86741000D01*
X58020000Y-86791828D01*
X58020000Y-86791837D01*
X58034976Y-86943894D01*
X58094159Y-87138992D01*
X58190266Y-87318797D01*
X58319604Y-87476396D01*
X58359097Y-87508807D01*
X59176197Y-88325908D01*
X59208604Y-88365396D01*
X59248092Y-88397803D01*
X59366202Y-88494734D01*
X59411650Y-88519026D01*
X59546007Y-88590841D01*
X59741105Y-88650024D01*
X59893162Y-88665000D01*
X59893165Y-88665000D01*
X59944000Y-88670007D01*
X59994835Y-88665000D01*
X63855939Y-88665000D01*
X63906057Y-88655031D01*
X63956895Y-88650024D01*
X64005777Y-88635196D01*
X64055898Y-88625226D01*
X64103113Y-88605669D01*
X64151993Y-88590841D01*
X64197042Y-88566762D01*
X64244256Y-88547205D01*
X64286746Y-88518814D01*
X64331797Y-88494734D01*
X64371284Y-88462328D01*
X64413774Y-88433937D01*
X64449908Y-88397803D01*
X64489396Y-88365396D01*
X64521803Y-88325908D01*
X64557937Y-88289774D01*
X64586328Y-88247284D01*
X64618734Y-88207797D01*
X64642814Y-88162746D01*
X64671205Y-88120256D01*
X64690762Y-88073042D01*
X64714841Y-88027993D01*
X64729669Y-87979113D01*
X64749226Y-87931898D01*
X64759196Y-87881777D01*
X64774024Y-87832895D01*
X64779031Y-87782057D01*
X64789000Y-87731939D01*
X64789000Y-87680838D01*
X64794007Y-87630000D01*
X64789000Y-87579162D01*
X64789000Y-87528061D01*
X64779031Y-87477943D01*
X64774024Y-87427105D01*
X64759196Y-87378223D01*
X64749226Y-87328102D01*
X64729669Y-87280887D01*
X64714841Y-87232007D01*
X64690762Y-87186958D01*
X64671205Y-87139744D01*
X64642814Y-87097254D01*
X64618734Y-87052203D01*
X64586328Y-87012716D01*
X64557937Y-86970226D01*
X64521803Y-86934092D01*
X64489396Y-86894604D01*
X64449908Y-86862197D01*
X64413774Y-86826063D01*
X64371284Y-86797672D01*
X64331797Y-86765266D01*
X64286746Y-86741186D01*
X64244256Y-86712795D01*
X64197042Y-86693238D01*
X64151993Y-86669159D01*
X64103113Y-86654331D01*
X64055898Y-86634774D01*
X64005777Y-86624804D01*
X63956895Y-86609976D01*
X63906057Y-86604969D01*
X63855939Y-86595000D01*
X62711091Y-86595000D01*
X62748068Y-86505729D01*
X62772153Y-86384648D01*
X65683649Y-83473153D01*
X65804729Y-83449068D01*
X65974889Y-83378586D01*
X66128028Y-83276262D01*
X66258262Y-83146028D01*
X66360586Y-82992889D01*
X66431068Y-82822729D01*
X66467000Y-82642089D01*
X66467000Y-82457911D01*
X66431068Y-82277271D01*
X66360586Y-82107111D01*
X66258262Y-81953972D01*
X66128028Y-81823738D01*
X65974889Y-81721414D01*
X65804729Y-81650932D01*
X65624089Y-81615000D01*
X65439911Y-81615000D01*
X65259271Y-81650932D01*
X65089111Y-81721414D01*
X64935972Y-81823738D01*
X64805738Y-81953972D01*
X64703414Y-82107111D01*
X64632932Y-82277271D01*
X64608847Y-82398351D01*
X61697352Y-85309847D01*
X61576271Y-85333932D01*
X61406111Y-85404414D01*
X61252972Y-85506738D01*
X61122738Y-85636972D01*
X61020414Y-85790111D01*
X60949932Y-85960271D01*
X60914000Y-86140911D01*
X60914000Y-86325089D01*
X60949932Y-86505729D01*
X60986909Y-86595000D01*
X60372711Y-86595000D01*
X60090000Y-86312290D01*
X60090000Y-85633776D01*
X60136111Y-85664586D01*
X60306271Y-85735068D01*
X60486911Y-85771000D01*
X60671089Y-85771000D01*
X60851729Y-85735068D01*
X61021889Y-85664586D01*
X61175028Y-85562262D01*
X61305262Y-85432028D01*
X61407586Y-85278889D01*
X61478068Y-85108729D01*
X61514000Y-84928089D01*
X61514000Y-84743911D01*
X61478068Y-84563271D01*
X61407586Y-84393111D01*
X61305262Y-84239972D01*
X61175028Y-84109738D01*
X61085000Y-84049583D01*
X61085000Y-83984535D01*
X61153586Y-83881889D01*
X61224068Y-83711729D01*
X61260000Y-83531089D01*
X61260000Y-83346911D01*
X61224068Y-83166271D01*
X61153586Y-82996111D01*
X61051262Y-82842972D01*
X60921028Y-82712738D01*
X60767889Y-82610414D01*
X60597729Y-82539932D01*
X60417089Y-82504000D01*
X60232911Y-82504000D01*
X60090000Y-82532427D01*
X60090000Y-81330827D01*
X60095006Y-81279999D01*
X60090000Y-81229171D01*
X60090000Y-81045000D01*
X64719172Y-81045000D01*
X64770000Y-81050006D01*
X64820828Y-81045000D01*
X64820838Y-81045000D01*
X64972895Y-81030024D01*
X65167993Y-80970841D01*
X65347797Y-80874734D01*
X65505396Y-80745396D01*
X65537807Y-80705903D01*
X73891212Y-72352499D01*
X75576227Y-72352499D01*
X75511772Y-72405396D01*
X75479709Y-72431709D01*
X75453563Y-72463568D01*
X73236574Y-74680559D01*
X73204710Y-74706709D01*
X73178562Y-74738571D01*
X73100364Y-74833855D01*
X73022828Y-74978914D01*
X72975082Y-75136312D01*
X72958960Y-75300000D01*
X72963001Y-75341028D01*
X72963000Y-80852596D01*
X72898932Y-81007271D01*
X72863000Y-81187911D01*
X72863000Y-81372089D01*
X72898932Y-81552729D01*
X72969414Y-81722889D01*
X73071738Y-81876028D01*
X73201972Y-82006262D01*
X73355111Y-82108586D01*
X73408000Y-82130493D01*
X73408000Y-82841332D01*
X73408001Y-82841342D01*
X73408000Y-85918198D01*
X72513998Y-86812201D01*
X72485000Y-86835999D01*
X72461202Y-86864997D01*
X72461201Y-86864998D01*
X72390026Y-86951724D01*
X72319454Y-87083754D01*
X72301184Y-87143986D01*
X72275998Y-87227014D01*
X72268400Y-87304160D01*
X72261324Y-87376000D01*
X72265001Y-87413332D01*
X72265000Y-93030198D01*
X64618352Y-100676847D01*
X64497271Y-100700932D01*
X64327111Y-100771414D01*
X64173972Y-100873738D01*
X64043738Y-101003972D01*
X63941414Y-101157111D01*
X63870932Y-101327271D01*
X63835000Y-101507911D01*
X63835000Y-101692089D01*
X63870932Y-101872729D01*
X63941414Y-102042889D01*
X64043738Y-102196028D01*
X64173972Y-102326262D01*
X64327111Y-102428586D01*
X64497271Y-102499068D01*
X64504495Y-102500505D01*
X64505932Y-102507729D01*
X64576414Y-102677889D01*
X64678738Y-102831028D01*
X64808972Y-102961262D01*
X64962111Y-103063586D01*
X65132271Y-103134068D01*
X65312911Y-103170000D01*
X65497089Y-103170000D01*
X65677729Y-103134068D01*
X65847889Y-103063586D01*
X66001028Y-102961262D01*
X66131262Y-102831028D01*
X66233586Y-102677889D01*
X66304068Y-102507729D01*
X66328153Y-102386648D01*
X74095001Y-94619801D01*
X74095000Y-105157394D01*
X69812803Y-100875197D01*
X69793557Y-100859403D01*
X69771601Y-100847667D01*
X69747776Y-100840440D01*
X69723000Y-100838000D01*
X69698224Y-100840440D01*
X69674399Y-100847667D01*
X69652443Y-100859403D01*
X69633197Y-100875197D01*
X68908394Y-101600000D01*
X68834000Y-101600000D01*
X68809224Y-101602440D01*
X68785399Y-101609667D01*
X68763443Y-101621403D01*
X68744197Y-101637197D01*
X68728403Y-101656443D01*
X68716667Y-101678399D01*
X68709440Y-101702224D01*
X68707000Y-101727000D01*
X68707000Y-109728000D01*
X68709440Y-109752776D01*
X68716667Y-109776601D01*
X68728403Y-109798557D01*
X68744197Y-109817803D01*
X72535263Y-113608869D01*
X71979132Y-114165001D01*
X62640869Y-114165001D01*
X56772655Y-108296788D01*
X56708586Y-108142111D01*
X56606262Y-107988972D01*
X56476028Y-107858738D01*
X56322889Y-107756414D01*
X56152729Y-107685932D01*
X55972089Y-107650000D01*
X55787911Y-107650000D01*
X55607271Y-107685932D01*
X55452596Y-107750000D01*
X52111018Y-107750000D01*
X52070000Y-107745960D01*
X52028982Y-107750000D01*
X52028981Y-107750000D01*
X51906311Y-107762082D01*
X51748913Y-107809828D01*
X51603854Y-107887364D01*
X51541652Y-107938412D01*
X51476709Y-107991709D01*
X51450562Y-108023569D01*
X51146786Y-108327346D01*
X50992111Y-108391414D01*
X50838972Y-108493738D01*
X50708738Y-108623972D01*
X50606414Y-108777111D01*
X50535932Y-108947271D01*
X50500000Y-109127911D01*
X50500000Y-109312089D01*
X50535932Y-109492729D01*
X50606414Y-109662889D01*
X50708738Y-109816028D01*
X50838972Y-109946262D01*
X50992111Y-110048586D01*
X51162271Y-110119068D01*
X51342911Y-110155000D01*
X51527089Y-110155000D01*
X51707729Y-110119068D01*
X51877889Y-110048586D01*
X52031028Y-109946262D01*
X52161262Y-109816028D01*
X52263586Y-109662889D01*
X52327654Y-109508214D01*
X52415868Y-109420000D01*
X55452596Y-109420000D01*
X55591788Y-109477655D01*
X61675560Y-115561428D01*
X61701710Y-115593292D01*
X61828855Y-115697637D01*
X61973914Y-115775173D01*
X62131312Y-115822919D01*
X62253982Y-115835001D01*
X62253992Y-115835001D01*
X62295000Y-115839040D01*
X62336008Y-115835001D01*
X71296288Y-115835001D01*
X65344097Y-121787193D01*
X65304604Y-121819604D01*
X65175266Y-121977203D01*
X65079159Y-122157008D01*
X65019976Y-122352106D01*
X65005000Y-122504163D01*
X65005000Y-122504172D01*
X64999994Y-122555000D01*
X65005000Y-122605828D01*
X65005001Y-124060000D01*
X52040836Y-124060000D01*
X51990001Y-124054993D01*
X51939166Y-124060000D01*
X51939163Y-124060000D01*
X51787106Y-124074976D01*
X51592008Y-124134159D01*
X51565425Y-124148368D01*
X51412203Y-124230266D01*
X51313110Y-124311590D01*
X51254605Y-124359604D01*
X51222198Y-124399092D01*
X50360128Y-125261162D01*
X50380000Y-125161261D01*
X50380000Y-124868741D01*
X50322932Y-124581843D01*
X50210990Y-124311590D01*
X50048475Y-124068369D01*
X49841632Y-123861526D01*
X49667240Y-123745001D01*
X49841632Y-123628476D01*
X50048475Y-123421633D01*
X50210990Y-123178412D01*
X50322932Y-122908159D01*
X50380000Y-122621261D01*
X50380000Y-122328741D01*
X50326544Y-122060000D01*
X52405199Y-122060000D01*
X53466202Y-123121004D01*
X53490000Y-123150002D01*
X53605725Y-123244975D01*
X53737754Y-123315547D01*
X53881015Y-123359004D01*
X53992668Y-123370001D01*
X53992677Y-123370001D01*
X54030000Y-123373677D01*
X54067323Y-123370001D01*
X58327677Y-123370001D01*
X58364999Y-123373677D01*
X58402321Y-123370001D01*
X58402332Y-123370001D01*
X58513985Y-123359004D01*
X58657246Y-123315547D01*
X58789275Y-123244975D01*
X58905000Y-123150002D01*
X58928802Y-123120999D01*
X59198624Y-122851177D01*
X59213088Y-122857168D01*
X59528967Y-122920000D01*
X59851033Y-122920000D01*
X60166912Y-122857168D01*
X60464463Y-122733918D01*
X60732252Y-122554987D01*
X60959987Y-122327252D01*
X61138918Y-122059463D01*
X61262168Y-121761912D01*
X61325000Y-121446033D01*
X61325000Y-121123967D01*
X61262168Y-120808088D01*
X61138918Y-120510537D01*
X60959987Y-120242748D01*
X60732252Y-120015013D01*
X60464463Y-119836082D01*
X60166912Y-119712832D01*
X59851033Y-119650000D01*
X59528967Y-119650000D01*
X59213088Y-119712832D01*
X58915537Y-119836082D01*
X58647748Y-120015013D01*
X58420013Y-120242748D01*
X58241082Y-120510537D01*
X58117832Y-120808088D01*
X58055000Y-121123967D01*
X58055000Y-121446033D01*
X58117832Y-121761912D01*
X58123823Y-121776376D01*
X58050198Y-121850001D01*
X56732127Y-121850001D01*
X56812384Y-121543892D01*
X56831718Y-121222405D01*
X56787961Y-120903325D01*
X56682795Y-120598912D01*
X56589814Y-120424956D01*
X56325413Y-120329192D01*
X55369605Y-121285000D01*
X55383748Y-121299143D01*
X55204143Y-121478748D01*
X55190000Y-121464605D01*
X55175858Y-121478748D01*
X54996253Y-121299143D01*
X55010395Y-121285000D01*
X54054587Y-120329192D01*
X53790186Y-120424956D01*
X53649296Y-120714571D01*
X53567616Y-121026108D01*
X53564966Y-121070165D01*
X53283804Y-120789003D01*
X53260001Y-120759999D01*
X53144276Y-120665026D01*
X53012247Y-120594454D01*
X52868986Y-120550997D01*
X52757333Y-120540000D01*
X52757322Y-120540000D01*
X52720000Y-120536324D01*
X52682678Y-120540000D01*
X50251753Y-120540000D01*
X50322932Y-120368159D01*
X50366409Y-120149587D01*
X54234192Y-120149587D01*
X55190000Y-121105395D01*
X56145808Y-120149587D01*
X56050044Y-119885186D01*
X55760429Y-119744296D01*
X55448892Y-119662616D01*
X55127405Y-119643282D01*
X54808325Y-119687039D01*
X54503912Y-119792205D01*
X54329956Y-119885186D01*
X54234192Y-120149587D01*
X50366409Y-120149587D01*
X50380000Y-120081261D01*
X50380000Y-119788741D01*
X50322932Y-119501843D01*
X50210990Y-119231590D01*
X50048475Y-118988369D01*
X49841632Y-118781526D01*
X49667240Y-118665001D01*
X49841632Y-118548476D01*
X50048475Y-118341633D01*
X50210990Y-118098412D01*
X50322932Y-117828159D01*
X50380000Y-117541261D01*
X50380000Y-117248741D01*
X50322932Y-116961843D01*
X50210990Y-116691590D01*
X50048475Y-116448369D01*
X49841632Y-116241526D01*
X49667240Y-116125001D01*
X49841632Y-116008476D01*
X50048475Y-115801633D01*
X50210990Y-115558412D01*
X50322932Y-115288159D01*
X50380000Y-115001261D01*
X50380000Y-114708741D01*
X50322932Y-114421843D01*
X50210990Y-114151590D01*
X50048475Y-113908369D01*
X49841632Y-113701526D01*
X49659466Y-113579806D01*
X49776355Y-113510179D01*
X49992588Y-113315270D01*
X50166641Y-113081921D01*
X50291825Y-112819100D01*
X50336476Y-112671891D01*
X50215155Y-112442001D01*
X49022000Y-112442001D01*
X49022000Y-112462001D01*
X48768000Y-112462001D01*
X48768000Y-112442001D01*
X48748000Y-112442001D01*
X48748000Y-112188001D01*
X48768000Y-112188001D01*
X48768000Y-112168001D01*
X49022000Y-112168001D01*
X49022000Y-112188001D01*
X50215155Y-112188001D01*
X50336476Y-111958111D01*
X50291825Y-111810902D01*
X50166641Y-111548081D01*
X49992588Y-111314732D01*
X49776355Y-111119823D01*
X49659466Y-111050196D01*
X49841632Y-110928476D01*
X50048475Y-110721633D01*
X50210990Y-110478412D01*
X50322932Y-110208159D01*
X50380000Y-109921261D01*
X50380000Y-109628741D01*
X50322932Y-109341843D01*
X50210990Y-109071590D01*
X50048475Y-108828369D01*
X49841632Y-108621526D01*
X49667240Y-108505001D01*
X49841632Y-108388476D01*
X50048475Y-108181633D01*
X50210990Y-107938412D01*
X50322932Y-107668159D01*
X50380000Y-107381261D01*
X50380000Y-107088741D01*
X50322932Y-106801843D01*
X50210990Y-106531590D01*
X50048475Y-106288369D01*
X49841632Y-106081526D01*
X49667240Y-105965001D01*
X49841632Y-105848476D01*
X50048475Y-105641633D01*
X50210990Y-105398412D01*
X50322932Y-105128159D01*
X50380000Y-104841261D01*
X50380000Y-104548741D01*
X50322932Y-104261843D01*
X50210990Y-103991590D01*
X50048475Y-103748369D01*
X49841632Y-103541526D01*
X49667240Y-103425001D01*
X49841632Y-103308476D01*
X50048475Y-103101633D01*
X50210990Y-102858412D01*
X50322932Y-102588159D01*
X50380000Y-102301261D01*
X50380000Y-102008741D01*
X50322932Y-101721843D01*
X50210990Y-101451590D01*
X50048475Y-101208369D01*
X49841632Y-101001526D01*
X49667240Y-100885001D01*
X49841632Y-100768476D01*
X50048475Y-100561633D01*
X50210990Y-100318412D01*
X50322932Y-100048159D01*
X50380000Y-99761261D01*
X50380000Y-99468741D01*
X50322932Y-99181843D01*
X50210990Y-98911590D01*
X50048475Y-98668369D01*
X49841632Y-98461526D01*
X49667240Y-98345001D01*
X49841632Y-98228476D01*
X50048475Y-98021633D01*
X50210990Y-97778412D01*
X50322932Y-97508159D01*
X50380000Y-97221261D01*
X50380000Y-96928741D01*
X50322932Y-96641843D01*
X50210990Y-96371590D01*
X50048475Y-96128369D01*
X49841632Y-95921526D01*
X49667240Y-95805001D01*
X49841632Y-95688476D01*
X50048475Y-95481633D01*
X50210990Y-95238412D01*
X50322932Y-94968159D01*
X50380000Y-94681261D01*
X50380000Y-94388741D01*
X50322932Y-94101843D01*
X50210990Y-93831590D01*
X50048475Y-93588369D01*
X49916620Y-93456514D01*
X49989180Y-93434503D01*
X50099494Y-93375538D01*
X50196185Y-93296186D01*
X50275537Y-93199495D01*
X50334502Y-93089181D01*
X50370812Y-92969483D01*
X50383072Y-92845001D01*
X50383072Y-91145001D01*
X50370812Y-91020519D01*
X50334502Y-90900821D01*
X50275537Y-90790507D01*
X50196185Y-90693816D01*
X50099494Y-90614464D01*
X49989180Y-90555499D01*
X49869482Y-90519189D01*
X49745000Y-90506929D01*
X48045000Y-90506929D01*
X47920518Y-90519189D01*
X47800820Y-90555499D01*
X47690506Y-90614464D01*
X47625000Y-90668223D01*
X47559494Y-90614464D01*
X47449180Y-90555499D01*
X47329482Y-90519189D01*
X47205000Y-90506929D01*
X45505000Y-90506929D01*
X45380518Y-90519189D01*
X45260820Y-90555499D01*
X45150506Y-90614464D01*
X45053815Y-90693816D01*
X44974463Y-90790507D01*
X44915498Y-90900821D01*
X44879188Y-91020519D01*
X44866928Y-91145001D01*
X44866928Y-92845001D01*
X44879188Y-92969483D01*
X44915498Y-93089181D01*
X44974463Y-93199495D01*
X45053815Y-93296186D01*
X45150506Y-93375538D01*
X45260820Y-93434503D01*
X45333380Y-93456514D01*
X45201525Y-93588369D01*
X45039010Y-93831590D01*
X44927068Y-94101843D01*
X44870000Y-94388741D01*
X44870000Y-94681261D01*
X44927068Y-94968159D01*
X45039010Y-95238412D01*
X45201525Y-95481633D01*
X45408368Y-95688476D01*
X45582760Y-95805001D01*
X45408368Y-95921526D01*
X45201525Y-96128369D01*
X45039010Y-96371590D01*
X44927068Y-96641843D01*
X44870000Y-96928741D01*
X44870000Y-97221261D01*
X44927068Y-97508159D01*
X45039010Y-97778412D01*
X45201525Y-98021633D01*
X45408368Y-98228476D01*
X45582760Y-98345001D01*
X45408368Y-98461526D01*
X45201525Y-98668369D01*
X45039010Y-98911590D01*
X44927068Y-99181843D01*
X44870000Y-99468741D01*
X44870000Y-99761261D01*
X44927068Y-100048159D01*
X45039010Y-100318412D01*
X45201525Y-100561633D01*
X45408368Y-100768476D01*
X45582760Y-100885001D01*
X45408368Y-101001526D01*
X45201525Y-101208369D01*
X45039010Y-101451590D01*
X44927068Y-101721843D01*
X44870000Y-102008741D01*
X44870000Y-102301261D01*
X44927068Y-102588159D01*
X45039010Y-102858412D01*
X45201525Y-103101633D01*
X45408368Y-103308476D01*
X45582760Y-103425001D01*
X45408368Y-103541526D01*
X45201525Y-103748369D01*
X45039010Y-103991590D01*
X44927068Y-104261843D01*
X44870000Y-104548741D01*
X44870000Y-104841261D01*
X44927068Y-105128159D01*
X45039010Y-105398412D01*
X45201525Y-105641633D01*
X45408368Y-105848476D01*
X45582760Y-105965001D01*
X45408368Y-106081526D01*
X45201525Y-106288369D01*
X45039010Y-106531590D01*
X44927068Y-106801843D01*
X44870000Y-107088741D01*
X44870000Y-107381261D01*
X44927068Y-107668159D01*
X45039010Y-107938412D01*
X45201525Y-108181633D01*
X45408368Y-108388476D01*
X45582760Y-108505001D01*
X45408368Y-108621526D01*
X45201525Y-108828369D01*
X45039010Y-109071590D01*
X44927068Y-109341843D01*
X44870000Y-109628741D01*
X44870000Y-109921261D01*
X44927068Y-110208159D01*
X45039010Y-110478412D01*
X45201525Y-110721633D01*
X45408368Y-110928476D01*
X45582760Y-111045001D01*
X45408368Y-111161526D01*
X45201525Y-111368369D01*
X45039010Y-111611590D01*
X44927068Y-111881843D01*
X44870000Y-112168741D01*
X44870000Y-112461261D01*
X44927068Y-112748159D01*
X45039010Y-113018412D01*
X45201525Y-113261633D01*
X45408368Y-113468476D01*
X45582760Y-113585001D01*
X45408368Y-113701526D01*
X45201525Y-113908369D01*
X45039010Y-114151590D01*
X44927068Y-114421843D01*
X44870000Y-114708741D01*
X44870000Y-115001261D01*
X44927068Y-115288159D01*
X45039010Y-115558412D01*
X45201525Y-115801633D01*
X45408368Y-116008476D01*
X45582760Y-116125001D01*
X45408368Y-116241526D01*
X45201525Y-116448369D01*
X45039010Y-116691590D01*
X44927068Y-116961843D01*
X44870000Y-117248741D01*
X44870000Y-117541261D01*
X44927068Y-117828159D01*
X45039010Y-118098412D01*
X45201525Y-118341633D01*
X45408368Y-118548476D01*
X45582760Y-118665001D01*
X45408368Y-118781526D01*
X45201525Y-118988369D01*
X45039010Y-119231590D01*
X44927068Y-119501843D01*
X44870000Y-119788741D01*
X44870000Y-120081261D01*
X44927068Y-120368159D01*
X45039010Y-120638412D01*
X45201525Y-120881633D01*
X45408368Y-121088476D01*
X45582760Y-121205001D01*
X45408368Y-121321526D01*
X45201525Y-121528369D01*
X45039010Y-121771590D01*
X44927068Y-122041843D01*
X44870000Y-122328741D01*
X44870000Y-122621261D01*
X44927068Y-122908159D01*
X45039010Y-123178412D01*
X45201525Y-123421633D01*
X45408368Y-123628476D01*
X45582760Y-123745001D01*
X45408368Y-123861526D01*
X45201525Y-124068369D01*
X45039010Y-124311590D01*
X44927068Y-124581843D01*
X44870000Y-124868741D01*
X44870000Y-125161261D01*
X44927068Y-125448159D01*
X45039010Y-125718412D01*
X45201525Y-125961633D01*
X45408368Y-126168476D01*
X45590534Y-126290196D01*
X45473645Y-126359823D01*
X45257412Y-126554732D01*
X45083359Y-126788081D01*
X44958175Y-127050902D01*
X44913524Y-127198111D01*
X45034845Y-127428001D01*
X46228000Y-127428001D01*
X46228000Y-127408001D01*
X46482000Y-127408001D01*
X46482000Y-127428001D01*
X46502000Y-127428001D01*
X46502000Y-127682001D01*
X46482000Y-127682001D01*
X46482000Y-128875815D01*
X46711891Y-128996482D01*
X46986252Y-128899158D01*
X47236355Y-128750179D01*
X47452588Y-128555270D01*
X47623900Y-128325595D01*
X47741525Y-128501633D01*
X47948368Y-128708476D01*
X48191589Y-128870991D01*
X48461842Y-128982933D01*
X48748740Y-129040001D01*
X49041260Y-129040001D01*
X49328158Y-128982933D01*
X49598411Y-128870991D01*
X49841632Y-128708476D01*
X50048475Y-128501633D01*
X50100642Y-128423559D01*
X50107797Y-128419735D01*
X50225907Y-128322804D01*
X50701116Y-127847595D01*
X53548282Y-127847595D01*
X53592039Y-128166675D01*
X53697205Y-128471088D01*
X53790186Y-128645044D01*
X54054587Y-128740808D01*
X55010395Y-127785000D01*
X55369605Y-127785000D01*
X56325413Y-128740808D01*
X56589814Y-128645044D01*
X56730704Y-128355429D01*
X56812384Y-128043892D01*
X56831718Y-127722405D01*
X56787961Y-127403325D01*
X56682795Y-127098912D01*
X56589814Y-126924956D01*
X56325413Y-126829192D01*
X55369605Y-127785000D01*
X55010395Y-127785000D01*
X54054587Y-126829192D01*
X53790186Y-126924956D01*
X53649296Y-127214571D01*
X53567616Y-127526108D01*
X53548282Y-127847595D01*
X50701116Y-127847595D01*
X51899124Y-126649587D01*
X54234192Y-126649587D01*
X55190000Y-127605395D01*
X56145808Y-126649587D01*
X56050044Y-126385186D01*
X55760429Y-126244296D01*
X55448892Y-126162616D01*
X55127405Y-126143282D01*
X54808325Y-126187039D01*
X54503912Y-126292205D01*
X54329956Y-126385186D01*
X54234192Y-126649587D01*
X51899124Y-126649587D01*
X52418712Y-126130000D01*
X65005001Y-126130000D01*
X65005000Y-126569893D01*
X64961513Y-126613380D01*
X64939502Y-126540820D01*
X64880537Y-126430506D01*
X64801185Y-126333815D01*
X64704494Y-126254463D01*
X64594180Y-126195498D01*
X64474482Y-126159188D01*
X64350000Y-126146928D01*
X62650000Y-126146928D01*
X62525518Y-126159188D01*
X62405820Y-126195498D01*
X62295506Y-126254463D01*
X62198815Y-126333815D01*
X62119463Y-126430506D01*
X62060498Y-126540820D01*
X62024188Y-126660518D01*
X62011928Y-126785000D01*
X62011928Y-128485000D01*
X62024188Y-128609482D01*
X62060498Y-128729180D01*
X62119463Y-128839494D01*
X62198815Y-128936185D01*
X62295506Y-129015537D01*
X62405820Y-129074502D01*
X62525518Y-129110812D01*
X62650000Y-129123072D01*
X64350000Y-129123072D01*
X64474482Y-129110812D01*
X64594180Y-129074502D01*
X64704494Y-129015537D01*
X64801185Y-128936185D01*
X64880537Y-128839494D01*
X64939502Y-128729180D01*
X64961513Y-128656620D01*
X65093368Y-128788475D01*
X65336589Y-128950990D01*
X65606842Y-129062932D01*
X65893740Y-129120000D01*
X66186260Y-129120000D01*
X66473158Y-129062932D01*
X66743411Y-128950990D01*
X66986632Y-128788475D01*
X67193475Y-128581632D01*
X67315195Y-128399466D01*
X67384822Y-128516355D01*
X67579731Y-128732588D01*
X67813080Y-128906641D01*
X68075901Y-129031825D01*
X68223110Y-129076476D01*
X68453000Y-128955155D01*
X68453000Y-127762000D01*
X68433000Y-127762000D01*
X68433000Y-127508000D01*
X68453000Y-127508000D01*
X68453000Y-126314845D01*
X68223110Y-126193524D01*
X68075901Y-126238175D01*
X67813080Y-126363359D01*
X67579731Y-126537412D01*
X67384822Y-126753645D01*
X67315195Y-126870534D01*
X67193475Y-126688368D01*
X67075000Y-126569893D01*
X67075000Y-125018829D01*
X67080006Y-124968001D01*
X67075000Y-124917173D01*
X67075000Y-122983710D01*
X70360001Y-119698709D01*
X70360000Y-121933215D01*
X70360000Y-121933216D01*
X70360001Y-126356821D01*
X70173368Y-126481525D01*
X69966525Y-126688368D01*
X69844805Y-126870534D01*
X69775178Y-126753645D01*
X69580269Y-126537412D01*
X69346920Y-126363359D01*
X69084099Y-126238175D01*
X68936890Y-126193524D01*
X68707000Y-126314845D01*
X68707000Y-127508000D01*
X68727000Y-127508000D01*
X68727000Y-127762000D01*
X68707000Y-127762000D01*
X68707000Y-128955155D01*
X68936890Y-129076476D01*
X69084099Y-129031825D01*
X69346920Y-128906641D01*
X69580269Y-128732588D01*
X69775178Y-128516355D01*
X69844805Y-128399466D01*
X69966525Y-128581632D01*
X70173368Y-128788475D01*
X70416589Y-128950990D01*
X70686842Y-129062932D01*
X70973740Y-129120000D01*
X71266260Y-129120000D01*
X71553158Y-129062932D01*
X71823411Y-128950990D01*
X72066632Y-128788475D01*
X72273475Y-128581632D01*
X72390000Y-128407240D01*
X72506525Y-128581632D01*
X72713368Y-128788475D01*
X72956589Y-128950990D01*
X73226842Y-129062932D01*
X73513740Y-129120000D01*
X73806260Y-129120000D01*
X74093158Y-129062932D01*
X74363411Y-128950990D01*
X74606632Y-128788475D01*
X74813475Y-128581632D01*
X74930000Y-128407240D01*
X75046525Y-128581632D01*
X75253368Y-128788475D01*
X75496589Y-128950990D01*
X75766842Y-129062932D01*
X76053740Y-129120000D01*
X76346260Y-129120000D01*
X76633158Y-129062932D01*
X76903411Y-128950990D01*
X77146632Y-128788475D01*
X77353475Y-128581632D01*
X77515990Y-128338411D01*
X77627932Y-128068158D01*
X77685000Y-127781260D01*
X77685000Y-127488740D01*
X77627932Y-127201842D01*
X77515990Y-126931589D01*
X77353475Y-126688368D01*
X77146632Y-126481525D01*
X76903411Y-126319010D01*
X76633158Y-126207068D01*
X76346260Y-126150000D01*
X76053740Y-126150000D01*
X75766842Y-126207068D01*
X75496589Y-126319010D01*
X75253368Y-126481525D01*
X75046525Y-126688368D01*
X74930000Y-126862760D01*
X74813475Y-126688368D01*
X74606632Y-126481525D01*
X74420000Y-126356822D01*
X74420000Y-119059801D01*
X76801005Y-116678797D01*
X76830002Y-116655000D01*
X76856333Y-116622916D01*
X76924975Y-116539276D01*
X76995547Y-116407246D01*
X77015945Y-116340001D01*
X77039004Y-116263985D01*
X77050001Y-116152332D01*
X77050001Y-116152323D01*
X77053677Y-116115000D01*
X77050001Y-116077677D01*
X77050001Y-115291890D01*
X80473524Y-115291890D01*
X80518175Y-115439099D01*
X80643359Y-115701920D01*
X80817412Y-115935269D01*
X81033645Y-116130178D01*
X81159255Y-116205000D01*
X81033645Y-116279822D01*
X80817412Y-116474731D01*
X80643359Y-116708080D01*
X80518175Y-116970901D01*
X80473524Y-117118110D01*
X80594845Y-117348000D01*
X81788000Y-117348000D01*
X81788000Y-115062000D01*
X80594845Y-115062000D01*
X80473524Y-115291890D01*
X77050001Y-115291890D01*
X77050001Y-114746649D01*
X77100694Y-114670781D01*
X77171176Y-114500621D01*
X77207108Y-114319981D01*
X77207108Y-114135803D01*
X77171176Y-113955163D01*
X77100694Y-113785003D01*
X76998370Y-113631864D01*
X76868136Y-113501630D01*
X76714997Y-113399306D01*
X76675687Y-113383024D01*
X76895908Y-113162803D01*
X76935396Y-113130396D01*
X77027299Y-113018412D01*
X77064734Y-112972798D01*
X77116104Y-112876691D01*
X77160841Y-112792993D01*
X77220024Y-112597895D01*
X77235000Y-112445838D01*
X77235000Y-112445835D01*
X77240007Y-112395000D01*
X77235000Y-112344165D01*
X77235000Y-110761573D01*
X77377911Y-110790000D01*
X77562089Y-110790000D01*
X77742729Y-110754068D01*
X77912889Y-110683586D01*
X78066028Y-110581262D01*
X78196262Y-110451028D01*
X78298586Y-110297889D01*
X78369068Y-110127729D01*
X78405000Y-109947089D01*
X78405000Y-109762911D01*
X78369068Y-109582271D01*
X78298586Y-109412111D01*
X78230000Y-109309465D01*
X78230000Y-92389801D01*
X79394802Y-91225000D01*
X80426928Y-91225000D01*
X80426928Y-92925000D01*
X80439188Y-93049482D01*
X80475498Y-93169180D01*
X80534463Y-93279494D01*
X80613815Y-93376185D01*
X80710506Y-93455537D01*
X80820820Y-93514502D01*
X80893380Y-93536513D01*
X80761525Y-93668368D01*
X80599010Y-93911589D01*
X80487068Y-94181842D01*
X80430000Y-94468740D01*
X80430000Y-94761260D01*
X80487068Y-95048158D01*
X80599010Y-95318411D01*
X80761525Y-95561632D01*
X80968368Y-95768475D01*
X81142760Y-95885000D01*
X80968368Y-96001525D01*
X80761525Y-96208368D01*
X80599010Y-96451589D01*
X80487068Y-96721842D01*
X80430000Y-97008740D01*
X80430000Y-97301260D01*
X80487068Y-97588158D01*
X80599010Y-97858411D01*
X80761525Y-98101632D01*
X80968368Y-98308475D01*
X81142760Y-98425000D01*
X80968368Y-98541525D01*
X80761525Y-98748368D01*
X80599010Y-98991589D01*
X80487068Y-99261842D01*
X80430000Y-99548740D01*
X80430000Y-99841260D01*
X80487068Y-100128158D01*
X80599010Y-100398411D01*
X80761525Y-100641632D01*
X80968368Y-100848475D01*
X81142760Y-100965000D01*
X80968368Y-101081525D01*
X80761525Y-101288368D01*
X80599010Y-101531589D01*
X80487068Y-101801842D01*
X80430000Y-102088740D01*
X80430000Y-102381260D01*
X80487068Y-102668158D01*
X80599010Y-102938411D01*
X80761525Y-103181632D01*
X80968368Y-103388475D01*
X81142760Y-103505000D01*
X80968368Y-103621525D01*
X80761525Y-103828368D01*
X80599010Y-104071589D01*
X80487068Y-104341842D01*
X80430000Y-104628740D01*
X80430000Y-104921260D01*
X80487068Y-105208158D01*
X80599010Y-105478411D01*
X80761525Y-105721632D01*
X80968368Y-105928475D01*
X81142760Y-106045000D01*
X80968368Y-106161525D01*
X80761525Y-106368368D01*
X80599010Y-106611589D01*
X80487068Y-106881842D01*
X80430000Y-107168740D01*
X80430000Y-107461260D01*
X80487068Y-107748158D01*
X80599010Y-108018411D01*
X80761525Y-108261632D01*
X80968368Y-108468475D01*
X81142760Y-108585000D01*
X80968368Y-108701525D01*
X80761525Y-108908368D01*
X80599010Y-109151589D01*
X80487068Y-109421842D01*
X80430000Y-109708740D01*
X80430000Y-110001260D01*
X80487068Y-110288158D01*
X80599010Y-110558411D01*
X80761525Y-110801632D01*
X80968368Y-111008475D01*
X81142760Y-111125000D01*
X80968368Y-111241525D01*
X80761525Y-111448368D01*
X80599010Y-111691589D01*
X80487068Y-111961842D01*
X80430000Y-112248740D01*
X80430000Y-112541260D01*
X80487068Y-112828158D01*
X80599010Y-113098411D01*
X80761525Y-113341632D01*
X80968368Y-113548475D01*
X81150534Y-113670195D01*
X81033645Y-113739822D01*
X80817412Y-113934731D01*
X80643359Y-114168080D01*
X80518175Y-114430901D01*
X80473524Y-114578110D01*
X80594845Y-114808000D01*
X81788000Y-114808000D01*
X81788000Y-114788000D01*
X82042000Y-114788000D01*
X82042000Y-114808000D01*
X82062000Y-114808000D01*
X82062000Y-115062000D01*
X82042000Y-115062000D01*
X82042000Y-117348000D01*
X82062000Y-117348000D01*
X82062000Y-117602000D01*
X82042000Y-117602000D01*
X82042000Y-117622000D01*
X81788000Y-117622000D01*
X81788000Y-117602000D01*
X80594845Y-117602000D01*
X80473524Y-117831890D01*
X80518175Y-117979099D01*
X80643359Y-118241920D01*
X80817412Y-118475269D01*
X81033645Y-118670178D01*
X81150534Y-118739805D01*
X80968368Y-118861525D01*
X80761525Y-119068368D01*
X80599010Y-119311589D01*
X80487068Y-119581842D01*
X80430000Y-119868740D01*
X80430000Y-120161260D01*
X80487068Y-120448158D01*
X80599010Y-120718411D01*
X80761525Y-120961632D01*
X80968368Y-121168475D01*
X81142760Y-121285000D01*
X80968368Y-121401525D01*
X80761525Y-121608368D01*
X80599010Y-121851589D01*
X80487068Y-122121842D01*
X80430000Y-122408740D01*
X80430000Y-122701260D01*
X80487068Y-122988158D01*
X80599010Y-123258411D01*
X80761525Y-123501632D01*
X80968368Y-123708475D01*
X81142760Y-123825000D01*
X80968368Y-123941525D01*
X80761525Y-124148368D01*
X80599010Y-124391589D01*
X80487068Y-124661842D01*
X80430000Y-124948740D01*
X80430000Y-125241260D01*
X80487068Y-125528158D01*
X80599010Y-125798411D01*
X80761525Y-126041632D01*
X80968368Y-126248475D01*
X81142760Y-126365000D01*
X80968368Y-126481525D01*
X80761525Y-126688368D01*
X80599010Y-126931589D01*
X80487068Y-127201842D01*
X80430000Y-127488740D01*
X80430000Y-127781260D01*
X80487068Y-128068158D01*
X80599010Y-128338411D01*
X80761525Y-128581632D01*
X80968368Y-128788475D01*
X81211589Y-128950990D01*
X81481842Y-129062932D01*
X81768740Y-129120000D01*
X82061260Y-129120000D01*
X82348158Y-129062932D01*
X82618411Y-128950990D01*
X82861632Y-128788475D01*
X83068475Y-128581632D01*
X83186100Y-128405594D01*
X83357412Y-128635269D01*
X83573645Y-128830178D01*
X83823748Y-128979157D01*
X84098109Y-129076481D01*
X84328000Y-128955814D01*
X84328000Y-127762000D01*
X84582000Y-127762000D01*
X84582000Y-128955814D01*
X84811891Y-129076481D01*
X85086252Y-128979157D01*
X85336355Y-128830178D01*
X85552588Y-128635269D01*
X85726641Y-128401920D01*
X85851825Y-128139099D01*
X85896476Y-127991890D01*
X85775155Y-127762000D01*
X84582000Y-127762000D01*
X84328000Y-127762000D01*
X84308000Y-127762000D01*
X84308000Y-127508000D01*
X84328000Y-127508000D01*
X84328000Y-127488000D01*
X84582000Y-127488000D01*
X84582000Y-127508000D01*
X85775155Y-127508000D01*
X85896476Y-127278110D01*
X85851825Y-127130901D01*
X85726641Y-126868080D01*
X85552588Y-126634731D01*
X85336355Y-126439822D01*
X85219466Y-126370195D01*
X85401632Y-126248475D01*
X85608475Y-126041632D01*
X85770990Y-125798411D01*
X85882932Y-125528158D01*
X85940000Y-125241260D01*
X85940000Y-124948740D01*
X85882932Y-124661842D01*
X85770990Y-124391589D01*
X85608475Y-124148368D01*
X85401632Y-123941525D01*
X85227240Y-123825000D01*
X85401632Y-123708475D01*
X85608475Y-123501632D01*
X85770990Y-123258411D01*
X85882932Y-122988158D01*
X85940000Y-122701260D01*
X85940000Y-122408740D01*
X85882932Y-122121842D01*
X85770990Y-121851589D01*
X85608475Y-121608368D01*
X85401632Y-121401525D01*
X85219466Y-121279805D01*
X85336355Y-121210178D01*
X85552588Y-121015269D01*
X85726641Y-120781920D01*
X85851825Y-120519099D01*
X85896476Y-120371890D01*
X85775155Y-120142000D01*
X84582000Y-120142000D01*
X84582000Y-120162000D01*
X84328000Y-120162000D01*
X84328000Y-120142000D01*
X84308000Y-120142000D01*
X84308000Y-119888000D01*
X84328000Y-119888000D01*
X84328000Y-119868000D01*
X84582000Y-119868000D01*
X84582000Y-119888000D01*
X85775155Y-119888000D01*
X85896476Y-119658110D01*
X85851825Y-119510901D01*
X85726641Y-119248080D01*
X85552588Y-119014731D01*
X85336355Y-118819822D01*
X85219466Y-118750195D01*
X85401632Y-118628475D01*
X85608475Y-118421632D01*
X85770990Y-118178411D01*
X85882932Y-117908158D01*
X85940000Y-117621260D01*
X85940000Y-117328740D01*
X85882932Y-117041842D01*
X85770990Y-116771589D01*
X85608475Y-116528368D01*
X85401632Y-116321525D01*
X85227240Y-116205000D01*
X85401632Y-116088475D01*
X85608475Y-115881632D01*
X85770990Y-115638411D01*
X85882932Y-115368158D01*
X85940000Y-115081260D01*
X85940000Y-114788740D01*
X85882932Y-114501842D01*
X85770990Y-114231589D01*
X85608475Y-113988368D01*
X85401632Y-113781525D01*
X85227240Y-113665000D01*
X85401632Y-113548475D01*
X85608475Y-113341632D01*
X85770990Y-113098411D01*
X85882932Y-112828158D01*
X85940000Y-112541260D01*
X85940000Y-112248740D01*
X85882932Y-111961842D01*
X85770990Y-111691589D01*
X85608475Y-111448368D01*
X85401632Y-111241525D01*
X85227240Y-111125000D01*
X85401632Y-111008475D01*
X85608475Y-110801632D01*
X85770990Y-110558411D01*
X85882932Y-110288158D01*
X85940000Y-110001260D01*
X85940000Y-109708740D01*
X85882932Y-109421842D01*
X85770990Y-109151589D01*
X85608475Y-108908368D01*
X85401632Y-108701525D01*
X85227240Y-108585000D01*
X85401632Y-108468475D01*
X85608475Y-108261632D01*
X85770990Y-108018411D01*
X85882932Y-107748158D01*
X85940000Y-107461260D01*
X85940000Y-107168740D01*
X85882932Y-106881842D01*
X85770990Y-106611589D01*
X85608475Y-106368368D01*
X85401632Y-106161525D01*
X85227240Y-106045000D01*
X85401632Y-105928475D01*
X85608475Y-105721632D01*
X85770990Y-105478411D01*
X85882932Y-105208158D01*
X85940000Y-104921260D01*
X85940000Y-104628740D01*
X85882932Y-104341842D01*
X85770990Y-104071589D01*
X85608475Y-103828368D01*
X85401632Y-103621525D01*
X85227240Y-103505000D01*
X85401632Y-103388475D01*
X85608475Y-103181632D01*
X85770990Y-102938411D01*
X85882932Y-102668158D01*
X85940000Y-102381260D01*
X85940000Y-102088740D01*
X85882932Y-101801842D01*
X85770990Y-101531589D01*
X85608475Y-101288368D01*
X85401632Y-101081525D01*
X85227240Y-100965000D01*
X85401632Y-100848475D01*
X85608475Y-100641632D01*
X85770990Y-100398411D01*
X85882932Y-100128158D01*
X85940000Y-99841260D01*
X85940000Y-99548740D01*
X85882932Y-99261842D01*
X85770990Y-98991589D01*
X85608475Y-98748368D01*
X85401632Y-98541525D01*
X85227240Y-98425000D01*
X85401632Y-98308475D01*
X85608475Y-98101632D01*
X85770990Y-97858411D01*
X85882932Y-97588158D01*
X85940000Y-97301260D01*
X85940000Y-97008740D01*
X85882932Y-96721842D01*
X85770990Y-96451589D01*
X85608475Y-96208368D01*
X85401632Y-96001525D01*
X85227240Y-95885000D01*
X85401632Y-95768475D01*
X85608475Y-95561632D01*
X85770990Y-95318411D01*
X85882932Y-95048158D01*
X85940000Y-94761260D01*
X85940000Y-94468740D01*
X85882932Y-94181842D01*
X85770990Y-93911589D01*
X85608475Y-93668368D01*
X85476620Y-93536513D01*
X85549180Y-93514502D01*
X85659494Y-93455537D01*
X85756185Y-93376185D01*
X85835537Y-93279494D01*
X85894502Y-93169180D01*
X85930812Y-93049482D01*
X85943072Y-92925000D01*
X85943072Y-91225000D01*
X85930812Y-91100518D01*
X85894502Y-90980820D01*
X85835537Y-90870506D01*
X85756185Y-90773815D01*
X85659494Y-90694463D01*
X85549180Y-90635498D01*
X85429482Y-90599188D01*
X85305000Y-90586928D01*
X83605000Y-90586928D01*
X83480518Y-90599188D01*
X83360820Y-90635498D01*
X83250506Y-90694463D01*
X83185000Y-90748222D01*
X83119494Y-90694463D01*
X83009180Y-90635498D01*
X82889482Y-90599188D01*
X82765000Y-90586928D01*
X81065000Y-90586928D01*
X80940518Y-90599188D01*
X80820820Y-90635498D01*
X80710506Y-90694463D01*
X80613815Y-90773815D01*
X80534463Y-90870506D01*
X80475498Y-90980820D01*
X80439188Y-91100518D01*
X80426928Y-91225000D01*
X79394802Y-91225000D01*
X80324803Y-90295000D01*
X81877678Y-90295000D01*
X81915000Y-90298676D01*
X81952322Y-90295000D01*
X81952333Y-90295000D01*
X82063986Y-90284003D01*
X82207247Y-90240546D01*
X82339276Y-90169974D01*
X82455001Y-90075001D01*
X82478803Y-90045998D01*
X83061004Y-89463798D01*
X83090001Y-89440001D01*
X83184974Y-89324276D01*
X83255546Y-89192247D01*
X83299003Y-89048986D01*
X83310000Y-88937333D01*
X83310000Y-88937332D01*
X83313074Y-88906125D01*
X83496632Y-88783475D01*
X83703475Y-88576632D01*
X83820000Y-88402240D01*
X83936525Y-88576632D01*
X84143368Y-88783475D01*
X84386589Y-88945990D01*
X84656842Y-89057932D01*
X84943740Y-89115000D01*
X85236260Y-89115000D01*
X85523158Y-89057932D01*
X85793411Y-88945990D01*
X86036632Y-88783475D01*
X86233000Y-88587107D01*
X86233000Y-129413000D01*
X59886225Y-129413000D01*
X60166912Y-129357168D01*
X60464463Y-129233918D01*
X60732252Y-129054987D01*
X60959987Y-128827252D01*
X61138918Y-128559463D01*
X61262168Y-128261912D01*
X61325000Y-127946033D01*
X61325000Y-127623967D01*
X61262168Y-127308088D01*
X61138918Y-127010537D01*
X60959987Y-126742748D01*
X60732252Y-126515013D01*
X60464463Y-126336082D01*
X60166912Y-126212832D01*
X59851033Y-126150000D01*
X59528967Y-126150000D01*
X59213088Y-126212832D01*
X58915537Y-126336082D01*
X58647748Y-126515013D01*
X58420013Y-126742748D01*
X58241082Y-127010537D01*
X58117832Y-127308088D01*
X58055000Y-127623967D01*
X58055000Y-127946033D01*
X58117832Y-128261912D01*
X58241082Y-128559463D01*
X58420013Y-128827252D01*
X58647748Y-129054987D01*
X58915537Y-129233918D01*
X59213088Y-129357168D01*
X59493775Y-129413000D01*
X55352628Y-129413000D01*
X55571675Y-129382961D01*
X55876088Y-129277795D01*
X56050044Y-129184814D01*
X56145808Y-128920413D01*
X55190000Y-127964605D01*
X54234192Y-128920413D01*
X54329956Y-129184814D01*
X54619571Y-129325704D01*
X54931108Y-129407384D01*
X55024491Y-129413000D01*
X44577000Y-129413000D01*
X44577000Y-127911891D01*
X44913524Y-127911891D01*
X44958175Y-128059100D01*
X45083359Y-128321921D01*
X45257412Y-128555270D01*
X45473645Y-128750179D01*
X45723748Y-128899158D01*
X45998109Y-128996482D01*
X46228000Y-128875815D01*
X46228000Y-127682001D01*
X45034845Y-127682001D01*
X44913524Y-127911891D01*
X44577000Y-127911891D01*
X44577000Y-84897137D01*
X48953000Y-84897137D01*
X48953000Y-85110863D01*
X48994696Y-85320483D01*
X49076485Y-85517940D01*
X49195225Y-85695647D01*
X49346353Y-85846775D01*
X49524060Y-85965515D01*
X49721517Y-86047304D01*
X49931137Y-86089000D01*
X50144863Y-86089000D01*
X50354483Y-86047304D01*
X50551940Y-85965515D01*
X50729647Y-85846775D01*
X50880775Y-85695647D01*
X50999515Y-85517940D01*
X51081304Y-85320483D01*
X51123000Y-85110863D01*
X51123000Y-84897137D01*
X51081304Y-84687517D01*
X50999515Y-84490060D01*
X50880775Y-84312353D01*
X50729647Y-84161225D01*
X50551940Y-84042485D01*
X50354483Y-83960696D01*
X50144863Y-83919000D01*
X49931137Y-83919000D01*
X49721517Y-83960696D01*
X49524060Y-84042485D01*
X49346353Y-84161225D01*
X49195225Y-84312353D01*
X49076485Y-84490060D01*
X48994696Y-84687517D01*
X48953000Y-84897137D01*
X44577000Y-84897137D01*
X44577000Y-80497137D01*
X48953000Y-80497137D01*
X48953000Y-80710863D01*
X48994696Y-80920483D01*
X49076485Y-81117940D01*
X49195225Y-81295647D01*
X49346353Y-81446775D01*
X49524060Y-81565515D01*
X49721517Y-81647304D01*
X49931137Y-81689000D01*
X50144863Y-81689000D01*
X50354483Y-81647304D01*
X50551940Y-81565515D01*
X50729647Y-81446775D01*
X50880775Y-81295647D01*
X50999515Y-81117940D01*
X51081304Y-80920483D01*
X51123000Y-80710863D01*
X51123000Y-80497137D01*
X51081304Y-80287517D01*
X50999515Y-80090060D01*
X50880775Y-79912353D01*
X50729647Y-79761225D01*
X50551940Y-79642485D01*
X50354483Y-79560696D01*
X50144863Y-79519000D01*
X49931137Y-79519000D01*
X49721517Y-79560696D01*
X49524060Y-79642485D01*
X49346353Y-79761225D01*
X49195225Y-79912353D01*
X49076485Y-80090060D01*
X48994696Y-80287517D01*
X48953000Y-80497137D01*
X44577000Y-80497137D01*
X44577000Y-71544721D01*
X45871000Y-71544721D01*
X45871000Y-71965279D01*
X45953047Y-72377756D01*
X46113988Y-72766302D01*
X46347637Y-73115983D01*
X46645017Y-73413363D01*
X46994698Y-73647012D01*
X47383244Y-73807953D01*
X47795721Y-73890000D01*
X48216279Y-73890000D01*
X48628756Y-73807953D01*
X49017302Y-73647012D01*
X49366983Y-73413363D01*
X49664363Y-73115983D01*
X49898012Y-72766302D01*
X50058953Y-72377756D01*
X50141000Y-71965279D01*
X50141000Y-71544721D01*
X50058953Y-71132244D01*
X49898012Y-70743698D01*
X49725156Y-70485000D01*
X53469509Y-70485000D01*
X53491423Y-70707498D01*
X53556324Y-70921446D01*
X53661717Y-71118622D01*
X53803552Y-71291448D01*
X53976378Y-71433283D01*
X54173554Y-71538676D01*
X54387502Y-71603577D01*
X54610000Y-71625491D01*
X54832498Y-71603577D01*
X55046446Y-71538676D01*
X55243622Y-71433283D01*
X55373143Y-71326988D01*
X58626988Y-68073144D01*
X58733283Y-67943623D01*
X58838676Y-67746447D01*
X58903577Y-67532499D01*
X58925491Y-67310001D01*
X58903577Y-67087502D01*
X58838676Y-66873554D01*
X58733283Y-66676378D01*
X58591448Y-66503552D01*
X58418622Y-66361717D01*
X58221446Y-66256324D01*
X58007498Y-66191423D01*
X57784999Y-66169509D01*
X57562501Y-66191423D01*
X57348553Y-66256324D01*
X57151377Y-66361717D01*
X57021856Y-66468012D01*
X53768012Y-69721857D01*
X53661717Y-69851378D01*
X53556324Y-70048554D01*
X53491423Y-70262502D01*
X53469509Y-70485000D01*
X49725156Y-70485000D01*
X49664363Y-70394017D01*
X49366983Y-70096637D01*
X49017302Y-69862988D01*
X48628756Y-69702047D01*
X48216279Y-69620000D01*
X47795721Y-69620000D01*
X47383244Y-69702047D01*
X46994698Y-69862988D01*
X46645017Y-70096637D01*
X46347637Y-70394017D01*
X46113988Y-70743698D01*
X45953047Y-71132244D01*
X45871000Y-71544721D01*
X44577000Y-71544721D01*
X44577000Y-68175000D01*
X45867928Y-68175000D01*
X45880188Y-68299482D01*
X45916498Y-68419180D01*
X45975463Y-68529494D01*
X46054815Y-68626185D01*
X46151506Y-68705537D01*
X46261820Y-68764502D01*
X46381518Y-68800812D01*
X46506000Y-68813072D01*
X47720250Y-68810000D01*
X47879000Y-68651250D01*
X47879000Y-66802000D01*
X48133000Y-66802000D01*
X48133000Y-68651250D01*
X48291750Y-68810000D01*
X49506000Y-68813072D01*
X49630482Y-68800812D01*
X49750180Y-68764502D01*
X49860494Y-68705537D01*
X49957185Y-68626185D01*
X50036537Y-68529494D01*
X50095502Y-68419180D01*
X50131812Y-68299482D01*
X50144072Y-68175000D01*
X50141000Y-66960750D01*
X49982250Y-66802000D01*
X48133000Y-66802000D01*
X47879000Y-66802000D01*
X46029750Y-66802000D01*
X45871000Y-66960750D01*
X45867928Y-68175000D01*
X44577000Y-68175000D01*
X44577000Y-65175000D01*
X45867928Y-65175000D01*
X45871000Y-66389250D01*
X46029750Y-66548000D01*
X47879000Y-66548000D01*
X47879000Y-64698750D01*
X48133000Y-64698750D01*
X48133000Y-66548000D01*
X49982250Y-66548000D01*
X50141000Y-66389250D01*
X50144072Y-65175000D01*
X50131812Y-65050518D01*
X50095502Y-64930820D01*
X50036537Y-64820506D01*
X49957185Y-64723815D01*
X49860494Y-64644463D01*
X49750180Y-64585498D01*
X49630482Y-64549188D01*
X49506000Y-64536928D01*
X48291750Y-64540000D01*
X48133000Y-64698750D01*
X47879000Y-64698750D01*
X47720250Y-64540000D01*
X46506000Y-64536928D01*
X46381518Y-64549188D01*
X46261820Y-64585498D01*
X46151506Y-64644463D01*
X46054815Y-64723815D01*
X45975463Y-64820506D01*
X45916498Y-64930820D01*
X45880188Y-65050518D01*
X45867928Y-65175000D01*
X44577000Y-65175000D01*
X44577000Y-59817000D01*
X86233000Y-59817000D01*
X86233000Y-61156594D01*
%TA.AperFunction,Conductor*%
D22*
G36*
X86233000Y-61156594D02*
G01*
X86184180Y-61130499D01*
X86064482Y-61094189D01*
X85940000Y-61081929D01*
X84240000Y-61081929D01*
X84115518Y-61094189D01*
X83995820Y-61130499D01*
X83885506Y-61189464D01*
X83788815Y-61268816D01*
X83709463Y-61365507D01*
X83650498Y-61475821D01*
X83614188Y-61595519D01*
X83601928Y-61720001D01*
X83601928Y-63420001D01*
X83614188Y-63544483D01*
X83650498Y-63664181D01*
X83709463Y-63774495D01*
X83788815Y-63871186D01*
X83885506Y-63950538D01*
X83995820Y-64009503D01*
X84068380Y-64031514D01*
X83936525Y-64163369D01*
X83774010Y-64406590D01*
X83662068Y-64676843D01*
X83605000Y-64963741D01*
X83605000Y-65131290D01*
X82489097Y-66247194D01*
X82449604Y-66279605D01*
X82320266Y-66437204D01*
X82239122Y-66589015D01*
X82146633Y-66496526D01*
X81972241Y-66380001D01*
X82146633Y-66263476D01*
X82353476Y-66056633D01*
X82515991Y-65813412D01*
X82627933Y-65543159D01*
X82685001Y-65256261D01*
X82685001Y-64963741D01*
X82627933Y-64676843D01*
X82515991Y-64406590D01*
X82353476Y-64163369D01*
X82221621Y-64031514D01*
X82294181Y-64009503D01*
X82404495Y-63950538D01*
X82501186Y-63871186D01*
X82580538Y-63774495D01*
X82639503Y-63664181D01*
X82675813Y-63544483D01*
X82688073Y-63420001D01*
X82688073Y-61720001D01*
X82675813Y-61595519D01*
X82639503Y-61475821D01*
X82580538Y-61365507D01*
X82501186Y-61268816D01*
X82404495Y-61189464D01*
X82294181Y-61130499D01*
X82174483Y-61094189D01*
X82050001Y-61081929D01*
X80350001Y-61081929D01*
X80225519Y-61094189D01*
X80105821Y-61130499D01*
X79995507Y-61189464D01*
X79898816Y-61268816D01*
X79819464Y-61365507D01*
X79760499Y-61475821D01*
X79724189Y-61595519D01*
X79711929Y-61720001D01*
X79711929Y-63420001D01*
X79724189Y-63544483D01*
X79760499Y-63664181D01*
X79819464Y-63774495D01*
X79898816Y-63871186D01*
X79995507Y-63950538D01*
X80105821Y-64009503D01*
X80178381Y-64031514D01*
X80046526Y-64163369D01*
X79884011Y-64406590D01*
X79772069Y-64676843D01*
X79715001Y-64963741D01*
X79715001Y-65256261D01*
X79772069Y-65543159D01*
X79884011Y-65813412D01*
X80046526Y-66056633D01*
X80253369Y-66263476D01*
X80427761Y-66380001D01*
X80253369Y-66496526D01*
X80046526Y-66703369D01*
X79884011Y-66946590D01*
X79772069Y-67216843D01*
X79715001Y-67503741D01*
X79715001Y-67796261D01*
X79716664Y-67804623D01*
X77238789Y-70282499D01*
X73513336Y-70282499D01*
X73462501Y-70277492D01*
X73411666Y-70282499D01*
X73411663Y-70282499D01*
X73259606Y-70297475D01*
X73064508Y-70356658D01*
X72996711Y-70392896D01*
X72884703Y-70452765D01*
X72845425Y-70485000D01*
X72727105Y-70582103D01*
X72694698Y-70621591D01*
X64341290Y-78975000D01*
X58978828Y-78975000D01*
X58928000Y-78969994D01*
X58877172Y-78975000D01*
X57835828Y-78975000D01*
X57785000Y-78969994D01*
X57734172Y-78975000D01*
X57683061Y-78975000D01*
X57632943Y-78984969D01*
X57582105Y-78989976D01*
X57533223Y-79004804D01*
X57483102Y-79014774D01*
X57435887Y-79034331D01*
X57387007Y-79049159D01*
X57341958Y-79073238D01*
X57294744Y-79092795D01*
X57252254Y-79121186D01*
X57207203Y-79145266D01*
X57167716Y-79177672D01*
X57125226Y-79206063D01*
X57089092Y-79242197D01*
X57049604Y-79274604D01*
X57017197Y-79314092D01*
X56981063Y-79350226D01*
X56952672Y-79392716D01*
X56920266Y-79432203D01*
X56896186Y-79477254D01*
X56867795Y-79519744D01*
X56848238Y-79566958D01*
X56824159Y-79612007D01*
X56809331Y-79660887D01*
X56789774Y-79708102D01*
X56779804Y-79758223D01*
X56764976Y-79807105D01*
X56759969Y-79857943D01*
X56750000Y-79908061D01*
X56750000Y-79959162D01*
X56744993Y-80010000D01*
X56750000Y-80060838D01*
X56750000Y-80111939D01*
X56759969Y-80162057D01*
X56764976Y-80212895D01*
X56779804Y-80261777D01*
X56789774Y-80311898D01*
X56809331Y-80359113D01*
X56824159Y-80407993D01*
X56848238Y-80453042D01*
X56867795Y-80500256D01*
X56896186Y-80542746D01*
X56920266Y-80587797D01*
X56952672Y-80627284D01*
X56981063Y-80669774D01*
X57017196Y-80705907D01*
X57049604Y-80745396D01*
X57089092Y-80777803D01*
X57125226Y-80813937D01*
X57125229Y-80813939D01*
X58020001Y-81708712D01*
X58020000Y-86690172D01*
X58014994Y-86741000D01*
X58020000Y-86791828D01*
X58020000Y-86791837D01*
X58034976Y-86943894D01*
X58094159Y-87138992D01*
X58190266Y-87318797D01*
X58319604Y-87476396D01*
X58359097Y-87508807D01*
X59176197Y-88325908D01*
X59208604Y-88365396D01*
X59248092Y-88397803D01*
X59366202Y-88494734D01*
X59411650Y-88519026D01*
X59546007Y-88590841D01*
X59741105Y-88650024D01*
X59893162Y-88665000D01*
X59893165Y-88665000D01*
X59944000Y-88670007D01*
X59994835Y-88665000D01*
X63855939Y-88665000D01*
X63906057Y-88655031D01*
X63956895Y-88650024D01*
X64005777Y-88635196D01*
X64055898Y-88625226D01*
X64103113Y-88605669D01*
X64151993Y-88590841D01*
X64197042Y-88566762D01*
X64244256Y-88547205D01*
X64286746Y-88518814D01*
X64331797Y-88494734D01*
X64371284Y-88462328D01*
X64413774Y-88433937D01*
X64449908Y-88397803D01*
X64489396Y-88365396D01*
X64521803Y-88325908D01*
X64557937Y-88289774D01*
X64586328Y-88247284D01*
X64618734Y-88207797D01*
X64642814Y-88162746D01*
X64671205Y-88120256D01*
X64690762Y-88073042D01*
X64714841Y-88027993D01*
X64729669Y-87979113D01*
X64749226Y-87931898D01*
X64759196Y-87881777D01*
X64774024Y-87832895D01*
X64779031Y-87782057D01*
X64789000Y-87731939D01*
X64789000Y-87680838D01*
X64794007Y-87630000D01*
X64789000Y-87579162D01*
X64789000Y-87528061D01*
X64779031Y-87477943D01*
X64774024Y-87427105D01*
X64759196Y-87378223D01*
X64749226Y-87328102D01*
X64729669Y-87280887D01*
X64714841Y-87232007D01*
X64690762Y-87186958D01*
X64671205Y-87139744D01*
X64642814Y-87097254D01*
X64618734Y-87052203D01*
X64586328Y-87012716D01*
X64557937Y-86970226D01*
X64521803Y-86934092D01*
X64489396Y-86894604D01*
X64449908Y-86862197D01*
X64413774Y-86826063D01*
X64371284Y-86797672D01*
X64331797Y-86765266D01*
X64286746Y-86741186D01*
X64244256Y-86712795D01*
X64197042Y-86693238D01*
X64151993Y-86669159D01*
X64103113Y-86654331D01*
X64055898Y-86634774D01*
X64005777Y-86624804D01*
X63956895Y-86609976D01*
X63906057Y-86604969D01*
X63855939Y-86595000D01*
X62711091Y-86595000D01*
X62748068Y-86505729D01*
X62772153Y-86384648D01*
X65683649Y-83473153D01*
X65804729Y-83449068D01*
X65974889Y-83378586D01*
X66128028Y-83276262D01*
X66258262Y-83146028D01*
X66360586Y-82992889D01*
X66431068Y-82822729D01*
X66467000Y-82642089D01*
X66467000Y-82457911D01*
X66431068Y-82277271D01*
X66360586Y-82107111D01*
X66258262Y-81953972D01*
X66128028Y-81823738D01*
X65974889Y-81721414D01*
X65804729Y-81650932D01*
X65624089Y-81615000D01*
X65439911Y-81615000D01*
X65259271Y-81650932D01*
X65089111Y-81721414D01*
X64935972Y-81823738D01*
X64805738Y-81953972D01*
X64703414Y-82107111D01*
X64632932Y-82277271D01*
X64608847Y-82398351D01*
X61697352Y-85309847D01*
X61576271Y-85333932D01*
X61406111Y-85404414D01*
X61252972Y-85506738D01*
X61122738Y-85636972D01*
X61020414Y-85790111D01*
X60949932Y-85960271D01*
X60914000Y-86140911D01*
X60914000Y-86325089D01*
X60949932Y-86505729D01*
X60986909Y-86595000D01*
X60372711Y-86595000D01*
X60090000Y-86312290D01*
X60090000Y-85633776D01*
X60136111Y-85664586D01*
X60306271Y-85735068D01*
X60486911Y-85771000D01*
X60671089Y-85771000D01*
X60851729Y-85735068D01*
X61021889Y-85664586D01*
X61175028Y-85562262D01*
X61305262Y-85432028D01*
X61407586Y-85278889D01*
X61478068Y-85108729D01*
X61514000Y-84928089D01*
X61514000Y-84743911D01*
X61478068Y-84563271D01*
X61407586Y-84393111D01*
X61305262Y-84239972D01*
X61175028Y-84109738D01*
X61085000Y-84049583D01*
X61085000Y-83984535D01*
X61153586Y-83881889D01*
X61224068Y-83711729D01*
X61260000Y-83531089D01*
X61260000Y-83346911D01*
X61224068Y-83166271D01*
X61153586Y-82996111D01*
X61051262Y-82842972D01*
X60921028Y-82712738D01*
X60767889Y-82610414D01*
X60597729Y-82539932D01*
X60417089Y-82504000D01*
X60232911Y-82504000D01*
X60090000Y-82532427D01*
X60090000Y-81330827D01*
X60095006Y-81279999D01*
X60090000Y-81229171D01*
X60090000Y-81045000D01*
X64719172Y-81045000D01*
X64770000Y-81050006D01*
X64820828Y-81045000D01*
X64820838Y-81045000D01*
X64972895Y-81030024D01*
X65167993Y-80970841D01*
X65347797Y-80874734D01*
X65505396Y-80745396D01*
X65537807Y-80705903D01*
X73891212Y-72352499D01*
X75576227Y-72352499D01*
X75511772Y-72405396D01*
X75479709Y-72431709D01*
X75453563Y-72463568D01*
X73236574Y-74680559D01*
X73204710Y-74706709D01*
X73178562Y-74738571D01*
X73100364Y-74833855D01*
X73022828Y-74978914D01*
X72975082Y-75136312D01*
X72958960Y-75300000D01*
X72963001Y-75341028D01*
X72963000Y-80852596D01*
X72898932Y-81007271D01*
X72863000Y-81187911D01*
X72863000Y-81372089D01*
X72898932Y-81552729D01*
X72969414Y-81722889D01*
X73071738Y-81876028D01*
X73201972Y-82006262D01*
X73355111Y-82108586D01*
X73408000Y-82130493D01*
X73408000Y-82841332D01*
X73408001Y-82841342D01*
X73408000Y-85918198D01*
X72513998Y-86812201D01*
X72485000Y-86835999D01*
X72461202Y-86864997D01*
X72461201Y-86864998D01*
X72390026Y-86951724D01*
X72319454Y-87083754D01*
X72301184Y-87143986D01*
X72275998Y-87227014D01*
X72268400Y-87304160D01*
X72261324Y-87376000D01*
X72265001Y-87413332D01*
X72265000Y-93030198D01*
X64618352Y-100676847D01*
X64497271Y-100700932D01*
X64327111Y-100771414D01*
X64173972Y-100873738D01*
X64043738Y-101003972D01*
X63941414Y-101157111D01*
X63870932Y-101327271D01*
X63835000Y-101507911D01*
X63835000Y-101692089D01*
X63870932Y-101872729D01*
X63941414Y-102042889D01*
X64043738Y-102196028D01*
X64173972Y-102326262D01*
X64327111Y-102428586D01*
X64497271Y-102499068D01*
X64504495Y-102500505D01*
X64505932Y-102507729D01*
X64576414Y-102677889D01*
X64678738Y-102831028D01*
X64808972Y-102961262D01*
X64962111Y-103063586D01*
X65132271Y-103134068D01*
X65312911Y-103170000D01*
X65497089Y-103170000D01*
X65677729Y-103134068D01*
X65847889Y-103063586D01*
X66001028Y-102961262D01*
X66131262Y-102831028D01*
X66233586Y-102677889D01*
X66304068Y-102507729D01*
X66328153Y-102386648D01*
X74095001Y-94619801D01*
X74095000Y-105157394D01*
X69812803Y-100875197D01*
X69793557Y-100859403D01*
X69771601Y-100847667D01*
X69747776Y-100840440D01*
X69723000Y-100838000D01*
X69698224Y-100840440D01*
X69674399Y-100847667D01*
X69652443Y-100859403D01*
X69633197Y-100875197D01*
X68908394Y-101600000D01*
X68834000Y-101600000D01*
X68809224Y-101602440D01*
X68785399Y-101609667D01*
X68763443Y-101621403D01*
X68744197Y-101637197D01*
X68728403Y-101656443D01*
X68716667Y-101678399D01*
X68709440Y-101702224D01*
X68707000Y-101727000D01*
X68707000Y-109728000D01*
X68709440Y-109752776D01*
X68716667Y-109776601D01*
X68728403Y-109798557D01*
X68744197Y-109817803D01*
X72535263Y-113608869D01*
X71979132Y-114165001D01*
X62640869Y-114165001D01*
X56772655Y-108296788D01*
X56708586Y-108142111D01*
X56606262Y-107988972D01*
X56476028Y-107858738D01*
X56322889Y-107756414D01*
X56152729Y-107685932D01*
X55972089Y-107650000D01*
X55787911Y-107650000D01*
X55607271Y-107685932D01*
X55452596Y-107750000D01*
X52111018Y-107750000D01*
X52070000Y-107745960D01*
X52028982Y-107750000D01*
X52028981Y-107750000D01*
X51906311Y-107762082D01*
X51748913Y-107809828D01*
X51603854Y-107887364D01*
X51541652Y-107938412D01*
X51476709Y-107991709D01*
X51450562Y-108023569D01*
X51146786Y-108327346D01*
X50992111Y-108391414D01*
X50838972Y-108493738D01*
X50708738Y-108623972D01*
X50606414Y-108777111D01*
X50535932Y-108947271D01*
X50500000Y-109127911D01*
X50500000Y-109312089D01*
X50535932Y-109492729D01*
X50606414Y-109662889D01*
X50708738Y-109816028D01*
X50838972Y-109946262D01*
X50992111Y-110048586D01*
X51162271Y-110119068D01*
X51342911Y-110155000D01*
X51527089Y-110155000D01*
X51707729Y-110119068D01*
X51877889Y-110048586D01*
X52031028Y-109946262D01*
X52161262Y-109816028D01*
X52263586Y-109662889D01*
X52327654Y-109508214D01*
X52415868Y-109420000D01*
X55452596Y-109420000D01*
X55591788Y-109477655D01*
X61675560Y-115561428D01*
X61701710Y-115593292D01*
X61828855Y-115697637D01*
X61973914Y-115775173D01*
X62131312Y-115822919D01*
X62253982Y-115835001D01*
X62253992Y-115835001D01*
X62295000Y-115839040D01*
X62336008Y-115835001D01*
X71296288Y-115835001D01*
X65344097Y-121787193D01*
X65304604Y-121819604D01*
X65175266Y-121977203D01*
X65079159Y-122157008D01*
X65019976Y-122352106D01*
X65005000Y-122504163D01*
X65005000Y-122504172D01*
X64999994Y-122555000D01*
X65005000Y-122605828D01*
X65005001Y-124060000D01*
X52040836Y-124060000D01*
X51990001Y-124054993D01*
X51939166Y-124060000D01*
X51939163Y-124060000D01*
X51787106Y-124074976D01*
X51592008Y-124134159D01*
X51565425Y-124148368D01*
X51412203Y-124230266D01*
X51313110Y-124311590D01*
X51254605Y-124359604D01*
X51222198Y-124399092D01*
X50360128Y-125261162D01*
X50380000Y-125161261D01*
X50380000Y-124868741D01*
X50322932Y-124581843D01*
X50210990Y-124311590D01*
X50048475Y-124068369D01*
X49841632Y-123861526D01*
X49667240Y-123745001D01*
X49841632Y-123628476D01*
X50048475Y-123421633D01*
X50210990Y-123178412D01*
X50322932Y-122908159D01*
X50380000Y-122621261D01*
X50380000Y-122328741D01*
X50326544Y-122060000D01*
X52405199Y-122060000D01*
X53466202Y-123121004D01*
X53490000Y-123150002D01*
X53605725Y-123244975D01*
X53737754Y-123315547D01*
X53881015Y-123359004D01*
X53992668Y-123370001D01*
X53992677Y-123370001D01*
X54030000Y-123373677D01*
X54067323Y-123370001D01*
X58327677Y-123370001D01*
X58364999Y-123373677D01*
X58402321Y-123370001D01*
X58402332Y-123370001D01*
X58513985Y-123359004D01*
X58657246Y-123315547D01*
X58789275Y-123244975D01*
X58905000Y-123150002D01*
X58928802Y-123120999D01*
X59198624Y-122851177D01*
X59213088Y-122857168D01*
X59528967Y-122920000D01*
X59851033Y-122920000D01*
X60166912Y-122857168D01*
X60464463Y-122733918D01*
X60732252Y-122554987D01*
X60959987Y-122327252D01*
X61138918Y-122059463D01*
X61262168Y-121761912D01*
X61325000Y-121446033D01*
X61325000Y-121123967D01*
X61262168Y-120808088D01*
X61138918Y-120510537D01*
X60959987Y-120242748D01*
X60732252Y-120015013D01*
X60464463Y-119836082D01*
X60166912Y-119712832D01*
X59851033Y-119650000D01*
X59528967Y-119650000D01*
X59213088Y-119712832D01*
X58915537Y-119836082D01*
X58647748Y-120015013D01*
X58420013Y-120242748D01*
X58241082Y-120510537D01*
X58117832Y-120808088D01*
X58055000Y-121123967D01*
X58055000Y-121446033D01*
X58117832Y-121761912D01*
X58123823Y-121776376D01*
X58050198Y-121850001D01*
X56732127Y-121850001D01*
X56812384Y-121543892D01*
X56831718Y-121222405D01*
X56787961Y-120903325D01*
X56682795Y-120598912D01*
X56589814Y-120424956D01*
X56325413Y-120329192D01*
X55369605Y-121285000D01*
X55383748Y-121299143D01*
X55204143Y-121478748D01*
X55190000Y-121464605D01*
X55175858Y-121478748D01*
X54996253Y-121299143D01*
X55010395Y-121285000D01*
X54054587Y-120329192D01*
X53790186Y-120424956D01*
X53649296Y-120714571D01*
X53567616Y-121026108D01*
X53564966Y-121070165D01*
X53283804Y-120789003D01*
X53260001Y-120759999D01*
X53144276Y-120665026D01*
X53012247Y-120594454D01*
X52868986Y-120550997D01*
X52757333Y-120540000D01*
X52757322Y-120540000D01*
X52720000Y-120536324D01*
X52682678Y-120540000D01*
X50251753Y-120540000D01*
X50322932Y-120368159D01*
X50366409Y-120149587D01*
X54234192Y-120149587D01*
X55190000Y-121105395D01*
X56145808Y-120149587D01*
X56050044Y-119885186D01*
X55760429Y-119744296D01*
X55448892Y-119662616D01*
X55127405Y-119643282D01*
X54808325Y-119687039D01*
X54503912Y-119792205D01*
X54329956Y-119885186D01*
X54234192Y-120149587D01*
X50366409Y-120149587D01*
X50380000Y-120081261D01*
X50380000Y-119788741D01*
X50322932Y-119501843D01*
X50210990Y-119231590D01*
X50048475Y-118988369D01*
X49841632Y-118781526D01*
X49667240Y-118665001D01*
X49841632Y-118548476D01*
X50048475Y-118341633D01*
X50210990Y-118098412D01*
X50322932Y-117828159D01*
X50380000Y-117541261D01*
X50380000Y-117248741D01*
X50322932Y-116961843D01*
X50210990Y-116691590D01*
X50048475Y-116448369D01*
X49841632Y-116241526D01*
X49667240Y-116125001D01*
X49841632Y-116008476D01*
X50048475Y-115801633D01*
X50210990Y-115558412D01*
X50322932Y-115288159D01*
X50380000Y-115001261D01*
X50380000Y-114708741D01*
X50322932Y-114421843D01*
X50210990Y-114151590D01*
X50048475Y-113908369D01*
X49841632Y-113701526D01*
X49659466Y-113579806D01*
X49776355Y-113510179D01*
X49992588Y-113315270D01*
X50166641Y-113081921D01*
X50291825Y-112819100D01*
X50336476Y-112671891D01*
X50215155Y-112442001D01*
X49022000Y-112442001D01*
X49022000Y-112462001D01*
X48768000Y-112462001D01*
X48768000Y-112442001D01*
X48748000Y-112442001D01*
X48748000Y-112188001D01*
X48768000Y-112188001D01*
X48768000Y-112168001D01*
X49022000Y-112168001D01*
X49022000Y-112188001D01*
X50215155Y-112188001D01*
X50336476Y-111958111D01*
X50291825Y-111810902D01*
X50166641Y-111548081D01*
X49992588Y-111314732D01*
X49776355Y-111119823D01*
X49659466Y-111050196D01*
X49841632Y-110928476D01*
X50048475Y-110721633D01*
X50210990Y-110478412D01*
X50322932Y-110208159D01*
X50380000Y-109921261D01*
X50380000Y-109628741D01*
X50322932Y-109341843D01*
X50210990Y-109071590D01*
X50048475Y-108828369D01*
X49841632Y-108621526D01*
X49667240Y-108505001D01*
X49841632Y-108388476D01*
X50048475Y-108181633D01*
X50210990Y-107938412D01*
X50322932Y-107668159D01*
X50380000Y-107381261D01*
X50380000Y-107088741D01*
X50322932Y-106801843D01*
X50210990Y-106531590D01*
X50048475Y-106288369D01*
X49841632Y-106081526D01*
X49667240Y-105965001D01*
X49841632Y-105848476D01*
X50048475Y-105641633D01*
X50210990Y-105398412D01*
X50322932Y-105128159D01*
X50380000Y-104841261D01*
X50380000Y-104548741D01*
X50322932Y-104261843D01*
X50210990Y-103991590D01*
X50048475Y-103748369D01*
X49841632Y-103541526D01*
X49667240Y-103425001D01*
X49841632Y-103308476D01*
X50048475Y-103101633D01*
X50210990Y-102858412D01*
X50322932Y-102588159D01*
X50380000Y-102301261D01*
X50380000Y-102008741D01*
X50322932Y-101721843D01*
X50210990Y-101451590D01*
X50048475Y-101208369D01*
X49841632Y-101001526D01*
X49667240Y-100885001D01*
X49841632Y-100768476D01*
X50048475Y-100561633D01*
X50210990Y-100318412D01*
X50322932Y-100048159D01*
X50380000Y-99761261D01*
X50380000Y-99468741D01*
X50322932Y-99181843D01*
X50210990Y-98911590D01*
X50048475Y-98668369D01*
X49841632Y-98461526D01*
X49667240Y-98345001D01*
X49841632Y-98228476D01*
X50048475Y-98021633D01*
X50210990Y-97778412D01*
X50322932Y-97508159D01*
X50380000Y-97221261D01*
X50380000Y-96928741D01*
X50322932Y-96641843D01*
X50210990Y-96371590D01*
X50048475Y-96128369D01*
X49841632Y-95921526D01*
X49667240Y-95805001D01*
X49841632Y-95688476D01*
X50048475Y-95481633D01*
X50210990Y-95238412D01*
X50322932Y-94968159D01*
X50380000Y-94681261D01*
X50380000Y-94388741D01*
X50322932Y-94101843D01*
X50210990Y-93831590D01*
X50048475Y-93588369D01*
X49916620Y-93456514D01*
X49989180Y-93434503D01*
X50099494Y-93375538D01*
X50196185Y-93296186D01*
X50275537Y-93199495D01*
X50334502Y-93089181D01*
X50370812Y-92969483D01*
X50383072Y-92845001D01*
X50383072Y-91145001D01*
X50370812Y-91020519D01*
X50334502Y-90900821D01*
X50275537Y-90790507D01*
X50196185Y-90693816D01*
X50099494Y-90614464D01*
X49989180Y-90555499D01*
X49869482Y-90519189D01*
X49745000Y-90506929D01*
X48045000Y-90506929D01*
X47920518Y-90519189D01*
X47800820Y-90555499D01*
X47690506Y-90614464D01*
X47625000Y-90668223D01*
X47559494Y-90614464D01*
X47449180Y-90555499D01*
X47329482Y-90519189D01*
X47205000Y-90506929D01*
X45505000Y-90506929D01*
X45380518Y-90519189D01*
X45260820Y-90555499D01*
X45150506Y-90614464D01*
X45053815Y-90693816D01*
X44974463Y-90790507D01*
X44915498Y-90900821D01*
X44879188Y-91020519D01*
X44866928Y-91145001D01*
X44866928Y-92845001D01*
X44879188Y-92969483D01*
X44915498Y-93089181D01*
X44974463Y-93199495D01*
X45053815Y-93296186D01*
X45150506Y-93375538D01*
X45260820Y-93434503D01*
X45333380Y-93456514D01*
X45201525Y-93588369D01*
X45039010Y-93831590D01*
X44927068Y-94101843D01*
X44870000Y-94388741D01*
X44870000Y-94681261D01*
X44927068Y-94968159D01*
X45039010Y-95238412D01*
X45201525Y-95481633D01*
X45408368Y-95688476D01*
X45582760Y-95805001D01*
X45408368Y-95921526D01*
X45201525Y-96128369D01*
X45039010Y-96371590D01*
X44927068Y-96641843D01*
X44870000Y-96928741D01*
X44870000Y-97221261D01*
X44927068Y-97508159D01*
X45039010Y-97778412D01*
X45201525Y-98021633D01*
X45408368Y-98228476D01*
X45582760Y-98345001D01*
X45408368Y-98461526D01*
X45201525Y-98668369D01*
X45039010Y-98911590D01*
X44927068Y-99181843D01*
X44870000Y-99468741D01*
X44870000Y-99761261D01*
X44927068Y-100048159D01*
X45039010Y-100318412D01*
X45201525Y-100561633D01*
X45408368Y-100768476D01*
X45582760Y-100885001D01*
X45408368Y-101001526D01*
X45201525Y-101208369D01*
X45039010Y-101451590D01*
X44927068Y-101721843D01*
X44870000Y-102008741D01*
X44870000Y-102301261D01*
X44927068Y-102588159D01*
X45039010Y-102858412D01*
X45201525Y-103101633D01*
X45408368Y-103308476D01*
X45582760Y-103425001D01*
X45408368Y-103541526D01*
X45201525Y-103748369D01*
X45039010Y-103991590D01*
X44927068Y-104261843D01*
X44870000Y-104548741D01*
X44870000Y-104841261D01*
X44927068Y-105128159D01*
X45039010Y-105398412D01*
X45201525Y-105641633D01*
X45408368Y-105848476D01*
X45582760Y-105965001D01*
X45408368Y-106081526D01*
X45201525Y-106288369D01*
X45039010Y-106531590D01*
X44927068Y-106801843D01*
X44870000Y-107088741D01*
X44870000Y-107381261D01*
X44927068Y-107668159D01*
X45039010Y-107938412D01*
X45201525Y-108181633D01*
X45408368Y-108388476D01*
X45582760Y-108505001D01*
X45408368Y-108621526D01*
X45201525Y-108828369D01*
X45039010Y-109071590D01*
X44927068Y-109341843D01*
X44870000Y-109628741D01*
X44870000Y-109921261D01*
X44927068Y-110208159D01*
X45039010Y-110478412D01*
X45201525Y-110721633D01*
X45408368Y-110928476D01*
X45582760Y-111045001D01*
X45408368Y-111161526D01*
X45201525Y-111368369D01*
X45039010Y-111611590D01*
X44927068Y-111881843D01*
X44870000Y-112168741D01*
X44870000Y-112461261D01*
X44927068Y-112748159D01*
X45039010Y-113018412D01*
X45201525Y-113261633D01*
X45408368Y-113468476D01*
X45582760Y-113585001D01*
X45408368Y-113701526D01*
X45201525Y-113908369D01*
X45039010Y-114151590D01*
X44927068Y-114421843D01*
X44870000Y-114708741D01*
X44870000Y-115001261D01*
X44927068Y-115288159D01*
X45039010Y-115558412D01*
X45201525Y-115801633D01*
X45408368Y-116008476D01*
X45582760Y-116125001D01*
X45408368Y-116241526D01*
X45201525Y-116448369D01*
X45039010Y-116691590D01*
X44927068Y-116961843D01*
X44870000Y-117248741D01*
X44870000Y-117541261D01*
X44927068Y-117828159D01*
X45039010Y-118098412D01*
X45201525Y-118341633D01*
X45408368Y-118548476D01*
X45582760Y-118665001D01*
X45408368Y-118781526D01*
X45201525Y-118988369D01*
X45039010Y-119231590D01*
X44927068Y-119501843D01*
X44870000Y-119788741D01*
X44870000Y-120081261D01*
X44927068Y-120368159D01*
X45039010Y-120638412D01*
X45201525Y-120881633D01*
X45408368Y-121088476D01*
X45582760Y-121205001D01*
X45408368Y-121321526D01*
X45201525Y-121528369D01*
X45039010Y-121771590D01*
X44927068Y-122041843D01*
X44870000Y-122328741D01*
X44870000Y-122621261D01*
X44927068Y-122908159D01*
X45039010Y-123178412D01*
X45201525Y-123421633D01*
X45408368Y-123628476D01*
X45582760Y-123745001D01*
X45408368Y-123861526D01*
X45201525Y-124068369D01*
X45039010Y-124311590D01*
X44927068Y-124581843D01*
X44870000Y-124868741D01*
X44870000Y-125161261D01*
X44927068Y-125448159D01*
X45039010Y-125718412D01*
X45201525Y-125961633D01*
X45408368Y-126168476D01*
X45590534Y-126290196D01*
X45473645Y-126359823D01*
X45257412Y-126554732D01*
X45083359Y-126788081D01*
X44958175Y-127050902D01*
X44913524Y-127198111D01*
X45034845Y-127428001D01*
X46228000Y-127428001D01*
X46228000Y-127408001D01*
X46482000Y-127408001D01*
X46482000Y-127428001D01*
X46502000Y-127428001D01*
X46502000Y-127682001D01*
X46482000Y-127682001D01*
X46482000Y-128875815D01*
X46711891Y-128996482D01*
X46986252Y-128899158D01*
X47236355Y-128750179D01*
X47452588Y-128555270D01*
X47623900Y-128325595D01*
X47741525Y-128501633D01*
X47948368Y-128708476D01*
X48191589Y-128870991D01*
X48461842Y-128982933D01*
X48748740Y-129040001D01*
X49041260Y-129040001D01*
X49328158Y-128982933D01*
X49598411Y-128870991D01*
X49841632Y-128708476D01*
X50048475Y-128501633D01*
X50100642Y-128423559D01*
X50107797Y-128419735D01*
X50225907Y-128322804D01*
X50701116Y-127847595D01*
X53548282Y-127847595D01*
X53592039Y-128166675D01*
X53697205Y-128471088D01*
X53790186Y-128645044D01*
X54054587Y-128740808D01*
X55010395Y-127785000D01*
X55369605Y-127785000D01*
X56325413Y-128740808D01*
X56589814Y-128645044D01*
X56730704Y-128355429D01*
X56812384Y-128043892D01*
X56831718Y-127722405D01*
X56787961Y-127403325D01*
X56682795Y-127098912D01*
X56589814Y-126924956D01*
X56325413Y-126829192D01*
X55369605Y-127785000D01*
X55010395Y-127785000D01*
X54054587Y-126829192D01*
X53790186Y-126924956D01*
X53649296Y-127214571D01*
X53567616Y-127526108D01*
X53548282Y-127847595D01*
X50701116Y-127847595D01*
X51899124Y-126649587D01*
X54234192Y-126649587D01*
X55190000Y-127605395D01*
X56145808Y-126649587D01*
X56050044Y-126385186D01*
X55760429Y-126244296D01*
X55448892Y-126162616D01*
X55127405Y-126143282D01*
X54808325Y-126187039D01*
X54503912Y-126292205D01*
X54329956Y-126385186D01*
X54234192Y-126649587D01*
X51899124Y-126649587D01*
X52418712Y-126130000D01*
X65005001Y-126130000D01*
X65005000Y-126569893D01*
X64961513Y-126613380D01*
X64939502Y-126540820D01*
X64880537Y-126430506D01*
X64801185Y-126333815D01*
X64704494Y-126254463D01*
X64594180Y-126195498D01*
X64474482Y-126159188D01*
X64350000Y-126146928D01*
X62650000Y-126146928D01*
X62525518Y-126159188D01*
X62405820Y-126195498D01*
X62295506Y-126254463D01*
X62198815Y-126333815D01*
X62119463Y-126430506D01*
X62060498Y-126540820D01*
X62024188Y-126660518D01*
X62011928Y-126785000D01*
X62011928Y-128485000D01*
X62024188Y-128609482D01*
X62060498Y-128729180D01*
X62119463Y-128839494D01*
X62198815Y-128936185D01*
X62295506Y-129015537D01*
X62405820Y-129074502D01*
X62525518Y-129110812D01*
X62650000Y-129123072D01*
X64350000Y-129123072D01*
X64474482Y-129110812D01*
X64594180Y-129074502D01*
X64704494Y-129015537D01*
X64801185Y-128936185D01*
X64880537Y-128839494D01*
X64939502Y-128729180D01*
X64961513Y-128656620D01*
X65093368Y-128788475D01*
X65336589Y-128950990D01*
X65606842Y-129062932D01*
X65893740Y-129120000D01*
X66186260Y-129120000D01*
X66473158Y-129062932D01*
X66743411Y-128950990D01*
X66986632Y-128788475D01*
X67193475Y-128581632D01*
X67315195Y-128399466D01*
X67384822Y-128516355D01*
X67579731Y-128732588D01*
X67813080Y-128906641D01*
X68075901Y-129031825D01*
X68223110Y-129076476D01*
X68453000Y-128955155D01*
X68453000Y-127762000D01*
X68433000Y-127762000D01*
X68433000Y-127508000D01*
X68453000Y-127508000D01*
X68453000Y-126314845D01*
X68223110Y-126193524D01*
X68075901Y-126238175D01*
X67813080Y-126363359D01*
X67579731Y-126537412D01*
X67384822Y-126753645D01*
X67315195Y-126870534D01*
X67193475Y-126688368D01*
X67075000Y-126569893D01*
X67075000Y-125018829D01*
X67080006Y-124968001D01*
X67075000Y-124917173D01*
X67075000Y-122983710D01*
X70360001Y-119698709D01*
X70360000Y-121933215D01*
X70360000Y-121933216D01*
X70360001Y-126356821D01*
X70173368Y-126481525D01*
X69966525Y-126688368D01*
X69844805Y-126870534D01*
X69775178Y-126753645D01*
X69580269Y-126537412D01*
X69346920Y-126363359D01*
X69084099Y-126238175D01*
X68936890Y-126193524D01*
X68707000Y-126314845D01*
X68707000Y-127508000D01*
X68727000Y-127508000D01*
X68727000Y-127762000D01*
X68707000Y-127762000D01*
X68707000Y-128955155D01*
X68936890Y-129076476D01*
X69084099Y-129031825D01*
X69346920Y-128906641D01*
X69580269Y-128732588D01*
X69775178Y-128516355D01*
X69844805Y-128399466D01*
X69966525Y-128581632D01*
X70173368Y-128788475D01*
X70416589Y-128950990D01*
X70686842Y-129062932D01*
X70973740Y-129120000D01*
X71266260Y-129120000D01*
X71553158Y-129062932D01*
X71823411Y-128950990D01*
X72066632Y-128788475D01*
X72273475Y-128581632D01*
X72390000Y-128407240D01*
X72506525Y-128581632D01*
X72713368Y-128788475D01*
X72956589Y-128950990D01*
X73226842Y-129062932D01*
X73513740Y-129120000D01*
X73806260Y-129120000D01*
X74093158Y-129062932D01*
X74363411Y-128950990D01*
X74606632Y-128788475D01*
X74813475Y-128581632D01*
X74930000Y-128407240D01*
X75046525Y-128581632D01*
X75253368Y-128788475D01*
X75496589Y-128950990D01*
X75766842Y-129062932D01*
X76053740Y-129120000D01*
X76346260Y-129120000D01*
X76633158Y-129062932D01*
X76903411Y-128950990D01*
X77146632Y-128788475D01*
X77353475Y-128581632D01*
X77515990Y-128338411D01*
X77627932Y-128068158D01*
X77685000Y-127781260D01*
X77685000Y-127488740D01*
X77627932Y-127201842D01*
X77515990Y-126931589D01*
X77353475Y-126688368D01*
X77146632Y-126481525D01*
X76903411Y-126319010D01*
X76633158Y-126207068D01*
X76346260Y-126150000D01*
X76053740Y-126150000D01*
X75766842Y-126207068D01*
X75496589Y-126319010D01*
X75253368Y-126481525D01*
X75046525Y-126688368D01*
X74930000Y-126862760D01*
X74813475Y-126688368D01*
X74606632Y-126481525D01*
X74420000Y-126356822D01*
X74420000Y-119059801D01*
X76801005Y-116678797D01*
X76830002Y-116655000D01*
X76856333Y-116622916D01*
X76924975Y-116539276D01*
X76995547Y-116407246D01*
X77015945Y-116340001D01*
X77039004Y-116263985D01*
X77050001Y-116152332D01*
X77050001Y-116152323D01*
X77053677Y-116115000D01*
X77050001Y-116077677D01*
X77050001Y-115291890D01*
X80473524Y-115291890D01*
X80518175Y-115439099D01*
X80643359Y-115701920D01*
X80817412Y-115935269D01*
X81033645Y-116130178D01*
X81159255Y-116205000D01*
X81033645Y-116279822D01*
X80817412Y-116474731D01*
X80643359Y-116708080D01*
X80518175Y-116970901D01*
X80473524Y-117118110D01*
X80594845Y-117348000D01*
X81788000Y-117348000D01*
X81788000Y-115062000D01*
X80594845Y-115062000D01*
X80473524Y-115291890D01*
X77050001Y-115291890D01*
X77050001Y-114746649D01*
X77100694Y-114670781D01*
X77171176Y-114500621D01*
X77207108Y-114319981D01*
X77207108Y-114135803D01*
X77171176Y-113955163D01*
X77100694Y-113785003D01*
X76998370Y-113631864D01*
X76868136Y-113501630D01*
X76714997Y-113399306D01*
X76675687Y-113383024D01*
X76895908Y-113162803D01*
X76935396Y-113130396D01*
X77027299Y-113018412D01*
X77064734Y-112972798D01*
X77116104Y-112876691D01*
X77160841Y-112792993D01*
X77220024Y-112597895D01*
X77235000Y-112445838D01*
X77235000Y-112445835D01*
X77240007Y-112395000D01*
X77235000Y-112344165D01*
X77235000Y-110761573D01*
X77377911Y-110790000D01*
X77562089Y-110790000D01*
X77742729Y-110754068D01*
X77912889Y-110683586D01*
X78066028Y-110581262D01*
X78196262Y-110451028D01*
X78298586Y-110297889D01*
X78369068Y-110127729D01*
X78405000Y-109947089D01*
X78405000Y-109762911D01*
X78369068Y-109582271D01*
X78298586Y-109412111D01*
X78230000Y-109309465D01*
X78230000Y-92389801D01*
X79394802Y-91225000D01*
X80426928Y-91225000D01*
X80426928Y-92925000D01*
X80439188Y-93049482D01*
X80475498Y-93169180D01*
X80534463Y-93279494D01*
X80613815Y-93376185D01*
X80710506Y-93455537D01*
X80820820Y-93514502D01*
X80893380Y-93536513D01*
X80761525Y-93668368D01*
X80599010Y-93911589D01*
X80487068Y-94181842D01*
X80430000Y-94468740D01*
X80430000Y-94761260D01*
X80487068Y-95048158D01*
X80599010Y-95318411D01*
X80761525Y-95561632D01*
X80968368Y-95768475D01*
X81142760Y-95885000D01*
X80968368Y-96001525D01*
X80761525Y-96208368D01*
X80599010Y-96451589D01*
X80487068Y-96721842D01*
X80430000Y-97008740D01*
X80430000Y-97301260D01*
X80487068Y-97588158D01*
X80599010Y-97858411D01*
X80761525Y-98101632D01*
X80968368Y-98308475D01*
X81142760Y-98425000D01*
X80968368Y-98541525D01*
X80761525Y-98748368D01*
X80599010Y-98991589D01*
X80487068Y-99261842D01*
X80430000Y-99548740D01*
X80430000Y-99841260D01*
X80487068Y-100128158D01*
X80599010Y-100398411D01*
X80761525Y-100641632D01*
X80968368Y-100848475D01*
X81142760Y-100965000D01*
X80968368Y-101081525D01*
X80761525Y-101288368D01*
X80599010Y-101531589D01*
X80487068Y-101801842D01*
X80430000Y-102088740D01*
X80430000Y-102381260D01*
X80487068Y-102668158D01*
X80599010Y-102938411D01*
X80761525Y-103181632D01*
X80968368Y-103388475D01*
X81142760Y-103505000D01*
X80968368Y-103621525D01*
X80761525Y-103828368D01*
X80599010Y-104071589D01*
X80487068Y-104341842D01*
X80430000Y-104628740D01*
X80430000Y-104921260D01*
X80487068Y-105208158D01*
X80599010Y-105478411D01*
X80761525Y-105721632D01*
X80968368Y-105928475D01*
X81142760Y-106045000D01*
X80968368Y-106161525D01*
X80761525Y-106368368D01*
X80599010Y-106611589D01*
X80487068Y-106881842D01*
X80430000Y-107168740D01*
X80430000Y-107461260D01*
X80487068Y-107748158D01*
X80599010Y-108018411D01*
X80761525Y-108261632D01*
X80968368Y-108468475D01*
X81142760Y-108585000D01*
X80968368Y-108701525D01*
X80761525Y-108908368D01*
X80599010Y-109151589D01*
X80487068Y-109421842D01*
X80430000Y-109708740D01*
X80430000Y-110001260D01*
X80487068Y-110288158D01*
X80599010Y-110558411D01*
X80761525Y-110801632D01*
X80968368Y-111008475D01*
X81142760Y-111125000D01*
X80968368Y-111241525D01*
X80761525Y-111448368D01*
X80599010Y-111691589D01*
X80487068Y-111961842D01*
X80430000Y-112248740D01*
X80430000Y-112541260D01*
X80487068Y-112828158D01*
X80599010Y-113098411D01*
X80761525Y-113341632D01*
X80968368Y-113548475D01*
X81150534Y-113670195D01*
X81033645Y-113739822D01*
X80817412Y-113934731D01*
X80643359Y-114168080D01*
X80518175Y-114430901D01*
X80473524Y-114578110D01*
X80594845Y-114808000D01*
X81788000Y-114808000D01*
X81788000Y-114788000D01*
X82042000Y-114788000D01*
X82042000Y-114808000D01*
X82062000Y-114808000D01*
X82062000Y-115062000D01*
X82042000Y-115062000D01*
X82042000Y-117348000D01*
X82062000Y-117348000D01*
X82062000Y-117602000D01*
X82042000Y-117602000D01*
X82042000Y-117622000D01*
X81788000Y-117622000D01*
X81788000Y-117602000D01*
X80594845Y-117602000D01*
X80473524Y-117831890D01*
X80518175Y-117979099D01*
X80643359Y-118241920D01*
X80817412Y-118475269D01*
X81033645Y-118670178D01*
X81150534Y-118739805D01*
X80968368Y-118861525D01*
X80761525Y-119068368D01*
X80599010Y-119311589D01*
X80487068Y-119581842D01*
X80430000Y-119868740D01*
X80430000Y-120161260D01*
X80487068Y-120448158D01*
X80599010Y-120718411D01*
X80761525Y-120961632D01*
X80968368Y-121168475D01*
X81142760Y-121285000D01*
X80968368Y-121401525D01*
X80761525Y-121608368D01*
X80599010Y-121851589D01*
X80487068Y-122121842D01*
X80430000Y-122408740D01*
X80430000Y-122701260D01*
X80487068Y-122988158D01*
X80599010Y-123258411D01*
X80761525Y-123501632D01*
X80968368Y-123708475D01*
X81142760Y-123825000D01*
X80968368Y-123941525D01*
X80761525Y-124148368D01*
X80599010Y-124391589D01*
X80487068Y-124661842D01*
X80430000Y-124948740D01*
X80430000Y-125241260D01*
X80487068Y-125528158D01*
X80599010Y-125798411D01*
X80761525Y-126041632D01*
X80968368Y-126248475D01*
X81142760Y-126365000D01*
X80968368Y-126481525D01*
X80761525Y-126688368D01*
X80599010Y-126931589D01*
X80487068Y-127201842D01*
X80430000Y-127488740D01*
X80430000Y-127781260D01*
X80487068Y-128068158D01*
X80599010Y-128338411D01*
X80761525Y-128581632D01*
X80968368Y-128788475D01*
X81211589Y-128950990D01*
X81481842Y-129062932D01*
X81768740Y-129120000D01*
X82061260Y-129120000D01*
X82348158Y-129062932D01*
X82618411Y-128950990D01*
X82861632Y-128788475D01*
X83068475Y-128581632D01*
X83186100Y-128405594D01*
X83357412Y-128635269D01*
X83573645Y-128830178D01*
X83823748Y-128979157D01*
X84098109Y-129076481D01*
X84328000Y-128955814D01*
X84328000Y-127762000D01*
X84582000Y-127762000D01*
X84582000Y-128955814D01*
X84811891Y-129076481D01*
X85086252Y-128979157D01*
X85336355Y-128830178D01*
X85552588Y-128635269D01*
X85726641Y-128401920D01*
X85851825Y-128139099D01*
X85896476Y-127991890D01*
X85775155Y-127762000D01*
X84582000Y-127762000D01*
X84328000Y-127762000D01*
X84308000Y-127762000D01*
X84308000Y-127508000D01*
X84328000Y-127508000D01*
X84328000Y-127488000D01*
X84582000Y-127488000D01*
X84582000Y-127508000D01*
X85775155Y-127508000D01*
X85896476Y-127278110D01*
X85851825Y-127130901D01*
X85726641Y-126868080D01*
X85552588Y-126634731D01*
X85336355Y-126439822D01*
X85219466Y-126370195D01*
X85401632Y-126248475D01*
X85608475Y-126041632D01*
X85770990Y-125798411D01*
X85882932Y-125528158D01*
X85940000Y-125241260D01*
X85940000Y-124948740D01*
X85882932Y-124661842D01*
X85770990Y-124391589D01*
X85608475Y-124148368D01*
X85401632Y-123941525D01*
X85227240Y-123825000D01*
X85401632Y-123708475D01*
X85608475Y-123501632D01*
X85770990Y-123258411D01*
X85882932Y-122988158D01*
X85940000Y-122701260D01*
X85940000Y-122408740D01*
X85882932Y-122121842D01*
X85770990Y-121851589D01*
X85608475Y-121608368D01*
X85401632Y-121401525D01*
X85219466Y-121279805D01*
X85336355Y-121210178D01*
X85552588Y-121015269D01*
X85726641Y-120781920D01*
X85851825Y-120519099D01*
X85896476Y-120371890D01*
X85775155Y-120142000D01*
X84582000Y-120142000D01*
X84582000Y-120162000D01*
X84328000Y-120162000D01*
X84328000Y-120142000D01*
X84308000Y-120142000D01*
X84308000Y-119888000D01*
X84328000Y-119888000D01*
X84328000Y-119868000D01*
X84582000Y-119868000D01*
X84582000Y-119888000D01*
X85775155Y-119888000D01*
X85896476Y-119658110D01*
X85851825Y-119510901D01*
X85726641Y-119248080D01*
X85552588Y-119014731D01*
X85336355Y-118819822D01*
X85219466Y-118750195D01*
X85401632Y-118628475D01*
X85608475Y-118421632D01*
X85770990Y-118178411D01*
X85882932Y-117908158D01*
X85940000Y-117621260D01*
X85940000Y-117328740D01*
X85882932Y-117041842D01*
X85770990Y-116771589D01*
X85608475Y-116528368D01*
X85401632Y-116321525D01*
X85227240Y-116205000D01*
X85401632Y-116088475D01*
X85608475Y-115881632D01*
X85770990Y-115638411D01*
X85882932Y-115368158D01*
X85940000Y-115081260D01*
X85940000Y-114788740D01*
X85882932Y-114501842D01*
X85770990Y-114231589D01*
X85608475Y-113988368D01*
X85401632Y-113781525D01*
X85227240Y-113665000D01*
X85401632Y-113548475D01*
X85608475Y-113341632D01*
X85770990Y-113098411D01*
X85882932Y-112828158D01*
X85940000Y-112541260D01*
X85940000Y-112248740D01*
X85882932Y-111961842D01*
X85770990Y-111691589D01*
X85608475Y-111448368D01*
X85401632Y-111241525D01*
X85227240Y-111125000D01*
X85401632Y-111008475D01*
X85608475Y-110801632D01*
X85770990Y-110558411D01*
X85882932Y-110288158D01*
X85940000Y-110001260D01*
X85940000Y-109708740D01*
X85882932Y-109421842D01*
X85770990Y-109151589D01*
X85608475Y-108908368D01*
X85401632Y-108701525D01*
X85227240Y-108585000D01*
X85401632Y-108468475D01*
X85608475Y-108261632D01*
X85770990Y-108018411D01*
X85882932Y-107748158D01*
X85940000Y-107461260D01*
X85940000Y-107168740D01*
X85882932Y-106881842D01*
X85770990Y-106611589D01*
X85608475Y-106368368D01*
X85401632Y-106161525D01*
X85227240Y-106045000D01*
X85401632Y-105928475D01*
X85608475Y-105721632D01*
X85770990Y-105478411D01*
X85882932Y-105208158D01*
X85940000Y-104921260D01*
X85940000Y-104628740D01*
X85882932Y-104341842D01*
X85770990Y-104071589D01*
X85608475Y-103828368D01*
X85401632Y-103621525D01*
X85227240Y-103505000D01*
X85401632Y-103388475D01*
X85608475Y-103181632D01*
X85770990Y-102938411D01*
X85882932Y-102668158D01*
X85940000Y-102381260D01*
X85940000Y-102088740D01*
X85882932Y-101801842D01*
X85770990Y-101531589D01*
X85608475Y-101288368D01*
X85401632Y-101081525D01*
X85227240Y-100965000D01*
X85401632Y-100848475D01*
X85608475Y-100641632D01*
X85770990Y-100398411D01*
X85882932Y-100128158D01*
X85940000Y-99841260D01*
X85940000Y-99548740D01*
X85882932Y-99261842D01*
X85770990Y-98991589D01*
X85608475Y-98748368D01*
X85401632Y-98541525D01*
X85227240Y-98425000D01*
X85401632Y-98308475D01*
X85608475Y-98101632D01*
X85770990Y-97858411D01*
X85882932Y-97588158D01*
X85940000Y-97301260D01*
X85940000Y-97008740D01*
X85882932Y-96721842D01*
X85770990Y-96451589D01*
X85608475Y-96208368D01*
X85401632Y-96001525D01*
X85227240Y-95885000D01*
X85401632Y-95768475D01*
X85608475Y-95561632D01*
X85770990Y-95318411D01*
X85882932Y-95048158D01*
X85940000Y-94761260D01*
X85940000Y-94468740D01*
X85882932Y-94181842D01*
X85770990Y-93911589D01*
X85608475Y-93668368D01*
X85476620Y-93536513D01*
X85549180Y-93514502D01*
X85659494Y-93455537D01*
X85756185Y-93376185D01*
X85835537Y-93279494D01*
X85894502Y-93169180D01*
X85930812Y-93049482D01*
X85943072Y-92925000D01*
X85943072Y-91225000D01*
X85930812Y-91100518D01*
X85894502Y-90980820D01*
X85835537Y-90870506D01*
X85756185Y-90773815D01*
X85659494Y-90694463D01*
X85549180Y-90635498D01*
X85429482Y-90599188D01*
X85305000Y-90586928D01*
X83605000Y-90586928D01*
X83480518Y-90599188D01*
X83360820Y-90635498D01*
X83250506Y-90694463D01*
X83185000Y-90748222D01*
X83119494Y-90694463D01*
X83009180Y-90635498D01*
X82889482Y-90599188D01*
X82765000Y-90586928D01*
X81065000Y-90586928D01*
X80940518Y-90599188D01*
X80820820Y-90635498D01*
X80710506Y-90694463D01*
X80613815Y-90773815D01*
X80534463Y-90870506D01*
X80475498Y-90980820D01*
X80439188Y-91100518D01*
X80426928Y-91225000D01*
X79394802Y-91225000D01*
X80324803Y-90295000D01*
X81877678Y-90295000D01*
X81915000Y-90298676D01*
X81952322Y-90295000D01*
X81952333Y-90295000D01*
X82063986Y-90284003D01*
X82207247Y-90240546D01*
X82339276Y-90169974D01*
X82455001Y-90075001D01*
X82478803Y-90045998D01*
X83061004Y-89463798D01*
X83090001Y-89440001D01*
X83184974Y-89324276D01*
X83255546Y-89192247D01*
X83299003Y-89048986D01*
X83310000Y-88937333D01*
X83310000Y-88937332D01*
X83313074Y-88906125D01*
X83496632Y-88783475D01*
X83703475Y-88576632D01*
X83820000Y-88402240D01*
X83936525Y-88576632D01*
X84143368Y-88783475D01*
X84386589Y-88945990D01*
X84656842Y-89057932D01*
X84943740Y-89115000D01*
X85236260Y-89115000D01*
X85523158Y-89057932D01*
X85793411Y-88945990D01*
X86036632Y-88783475D01*
X86233000Y-88587107D01*
X86233000Y-129413000D01*
X59886225Y-129413000D01*
X60166912Y-129357168D01*
X60464463Y-129233918D01*
X60732252Y-129054987D01*
X60959987Y-128827252D01*
X61138918Y-128559463D01*
X61262168Y-128261912D01*
X61325000Y-127946033D01*
X61325000Y-127623967D01*
X61262168Y-127308088D01*
X61138918Y-127010537D01*
X60959987Y-126742748D01*
X60732252Y-126515013D01*
X60464463Y-126336082D01*
X60166912Y-126212832D01*
X59851033Y-126150000D01*
X59528967Y-126150000D01*
X59213088Y-126212832D01*
X58915537Y-126336082D01*
X58647748Y-126515013D01*
X58420013Y-126742748D01*
X58241082Y-127010537D01*
X58117832Y-127308088D01*
X58055000Y-127623967D01*
X58055000Y-127946033D01*
X58117832Y-128261912D01*
X58241082Y-128559463D01*
X58420013Y-128827252D01*
X58647748Y-129054987D01*
X58915537Y-129233918D01*
X59213088Y-129357168D01*
X59493775Y-129413000D01*
X55352628Y-129413000D01*
X55571675Y-129382961D01*
X55876088Y-129277795D01*
X56050044Y-129184814D01*
X56145808Y-128920413D01*
X55190000Y-127964605D01*
X54234192Y-128920413D01*
X54329956Y-129184814D01*
X54619571Y-129325704D01*
X54931108Y-129407384D01*
X55024491Y-129413000D01*
X44577000Y-129413000D01*
X44577000Y-127911891D01*
X44913524Y-127911891D01*
X44958175Y-128059100D01*
X45083359Y-128321921D01*
X45257412Y-128555270D01*
X45473645Y-128750179D01*
X45723748Y-128899158D01*
X45998109Y-128996482D01*
X46228000Y-128875815D01*
X46228000Y-127682001D01*
X45034845Y-127682001D01*
X44913524Y-127911891D01*
X44577000Y-127911891D01*
X44577000Y-84897137D01*
X48953000Y-84897137D01*
X48953000Y-85110863D01*
X48994696Y-85320483D01*
X49076485Y-85517940D01*
X49195225Y-85695647D01*
X49346353Y-85846775D01*
X49524060Y-85965515D01*
X49721517Y-86047304D01*
X49931137Y-86089000D01*
X50144863Y-86089000D01*
X50354483Y-86047304D01*
X50551940Y-85965515D01*
X50729647Y-85846775D01*
X50880775Y-85695647D01*
X50999515Y-85517940D01*
X51081304Y-85320483D01*
X51123000Y-85110863D01*
X51123000Y-84897137D01*
X51081304Y-84687517D01*
X50999515Y-84490060D01*
X50880775Y-84312353D01*
X50729647Y-84161225D01*
X50551940Y-84042485D01*
X50354483Y-83960696D01*
X50144863Y-83919000D01*
X49931137Y-83919000D01*
X49721517Y-83960696D01*
X49524060Y-84042485D01*
X49346353Y-84161225D01*
X49195225Y-84312353D01*
X49076485Y-84490060D01*
X48994696Y-84687517D01*
X48953000Y-84897137D01*
X44577000Y-84897137D01*
X44577000Y-80497137D01*
X48953000Y-80497137D01*
X48953000Y-80710863D01*
X48994696Y-80920483D01*
X49076485Y-81117940D01*
X49195225Y-81295647D01*
X49346353Y-81446775D01*
X49524060Y-81565515D01*
X49721517Y-81647304D01*
X49931137Y-81689000D01*
X50144863Y-81689000D01*
X50354483Y-81647304D01*
X50551940Y-81565515D01*
X50729647Y-81446775D01*
X50880775Y-81295647D01*
X50999515Y-81117940D01*
X51081304Y-80920483D01*
X51123000Y-80710863D01*
X51123000Y-80497137D01*
X51081304Y-80287517D01*
X50999515Y-80090060D01*
X50880775Y-79912353D01*
X50729647Y-79761225D01*
X50551940Y-79642485D01*
X50354483Y-79560696D01*
X50144863Y-79519000D01*
X49931137Y-79519000D01*
X49721517Y-79560696D01*
X49524060Y-79642485D01*
X49346353Y-79761225D01*
X49195225Y-79912353D01*
X49076485Y-80090060D01*
X48994696Y-80287517D01*
X48953000Y-80497137D01*
X44577000Y-80497137D01*
X44577000Y-71544721D01*
X45871000Y-71544721D01*
X45871000Y-71965279D01*
X45953047Y-72377756D01*
X46113988Y-72766302D01*
X46347637Y-73115983D01*
X46645017Y-73413363D01*
X46994698Y-73647012D01*
X47383244Y-73807953D01*
X47795721Y-73890000D01*
X48216279Y-73890000D01*
X48628756Y-73807953D01*
X49017302Y-73647012D01*
X49366983Y-73413363D01*
X49664363Y-73115983D01*
X49898012Y-72766302D01*
X50058953Y-72377756D01*
X50141000Y-71965279D01*
X50141000Y-71544721D01*
X50058953Y-71132244D01*
X49898012Y-70743698D01*
X49725156Y-70485000D01*
X53469509Y-70485000D01*
X53491423Y-70707498D01*
X53556324Y-70921446D01*
X53661717Y-71118622D01*
X53803552Y-71291448D01*
X53976378Y-71433283D01*
X54173554Y-71538676D01*
X54387502Y-71603577D01*
X54610000Y-71625491D01*
X54832498Y-71603577D01*
X55046446Y-71538676D01*
X55243622Y-71433283D01*
X55373143Y-71326988D01*
X58626988Y-68073144D01*
X58733283Y-67943623D01*
X58838676Y-67746447D01*
X58903577Y-67532499D01*
X58925491Y-67310001D01*
X58903577Y-67087502D01*
X58838676Y-66873554D01*
X58733283Y-66676378D01*
X58591448Y-66503552D01*
X58418622Y-66361717D01*
X58221446Y-66256324D01*
X58007498Y-66191423D01*
X57784999Y-66169509D01*
X57562501Y-66191423D01*
X57348553Y-66256324D01*
X57151377Y-66361717D01*
X57021856Y-66468012D01*
X53768012Y-69721857D01*
X53661717Y-69851378D01*
X53556324Y-70048554D01*
X53491423Y-70262502D01*
X53469509Y-70485000D01*
X49725156Y-70485000D01*
X49664363Y-70394017D01*
X49366983Y-70096637D01*
X49017302Y-69862988D01*
X48628756Y-69702047D01*
X48216279Y-69620000D01*
X47795721Y-69620000D01*
X47383244Y-69702047D01*
X46994698Y-69862988D01*
X46645017Y-70096637D01*
X46347637Y-70394017D01*
X46113988Y-70743698D01*
X45953047Y-71132244D01*
X45871000Y-71544721D01*
X44577000Y-71544721D01*
X44577000Y-68175000D01*
X45867928Y-68175000D01*
X45880188Y-68299482D01*
X45916498Y-68419180D01*
X45975463Y-68529494D01*
X46054815Y-68626185D01*
X46151506Y-68705537D01*
X46261820Y-68764502D01*
X46381518Y-68800812D01*
X46506000Y-68813072D01*
X47720250Y-68810000D01*
X47879000Y-68651250D01*
X47879000Y-66802000D01*
X48133000Y-66802000D01*
X48133000Y-68651250D01*
X48291750Y-68810000D01*
X49506000Y-68813072D01*
X49630482Y-68800812D01*
X49750180Y-68764502D01*
X49860494Y-68705537D01*
X49957185Y-68626185D01*
X50036537Y-68529494D01*
X50095502Y-68419180D01*
X50131812Y-68299482D01*
X50144072Y-68175000D01*
X50141000Y-66960750D01*
X49982250Y-66802000D01*
X48133000Y-66802000D01*
X47879000Y-66802000D01*
X46029750Y-66802000D01*
X45871000Y-66960750D01*
X45867928Y-68175000D01*
X44577000Y-68175000D01*
X44577000Y-65175000D01*
X45867928Y-65175000D01*
X45871000Y-66389250D01*
X46029750Y-66548000D01*
X47879000Y-66548000D01*
X47879000Y-64698750D01*
X48133000Y-64698750D01*
X48133000Y-66548000D01*
X49982250Y-66548000D01*
X50141000Y-66389250D01*
X50144072Y-65175000D01*
X50131812Y-65050518D01*
X50095502Y-64930820D01*
X50036537Y-64820506D01*
X49957185Y-64723815D01*
X49860494Y-64644463D01*
X49750180Y-64585498D01*
X49630482Y-64549188D01*
X49506000Y-64536928D01*
X48291750Y-64540000D01*
X48133000Y-64698750D01*
X47879000Y-64698750D01*
X47720250Y-64540000D01*
X46506000Y-64536928D01*
X46381518Y-64549188D01*
X46261820Y-64585498D01*
X46151506Y-64644463D01*
X46054815Y-64723815D01*
X45975463Y-64820506D01*
X45916498Y-64930820D01*
X45880188Y-65050518D01*
X45867928Y-65175000D01*
X44577000Y-65175000D01*
X44577000Y-59817000D01*
X86233000Y-59817000D01*
X86233000Y-61156594D01*
G37*
%TD.AperFunction*%
D21*
X83301525Y-126041632D02*
X83508368Y-126248475D01*
X83690534Y-126370195D01*
X83573645Y-126439822D01*
X83357412Y-126634731D01*
X83186100Y-126864406D01*
X83068475Y-126688368D01*
X82861632Y-126481525D01*
X82687240Y-126365000D01*
X82861632Y-126248475D01*
X83068475Y-126041632D01*
X83185000Y-125867240D01*
X83301525Y-126041632D01*
%TA.AperFunction,Conductor*%
D22*
G36*
X83301525Y-126041632D02*
G01*
X83508368Y-126248475D01*
X83690534Y-126370195D01*
X83573645Y-126439822D01*
X83357412Y-126634731D01*
X83186100Y-126864406D01*
X83068475Y-126688368D01*
X82861632Y-126481525D01*
X82687240Y-126365000D01*
X82861632Y-126248475D01*
X83068475Y-126041632D01*
X83185000Y-125867240D01*
X83301525Y-126041632D01*
G37*
%TD.AperFunction*%
D21*
X83357412Y-121015269D02*
X83573645Y-121210178D01*
X83690534Y-121279805D01*
X83508368Y-121401525D01*
X83301525Y-121608368D01*
X83185000Y-121782760D01*
X83068475Y-121608368D01*
X82861632Y-121401525D01*
X82687240Y-121285000D01*
X82861632Y-121168475D01*
X83068475Y-120961632D01*
X83186100Y-120785594D01*
X83357412Y-121015269D01*
%TA.AperFunction,Conductor*%
D22*
G36*
X83357412Y-121015269D02*
G01*
X83573645Y-121210178D01*
X83690534Y-121279805D01*
X83508368Y-121401525D01*
X83301525Y-121608368D01*
X83185000Y-121782760D01*
X83068475Y-121608368D01*
X82861632Y-121401525D01*
X82687240Y-121285000D01*
X82861632Y-121168475D01*
X83068475Y-120961632D01*
X83186100Y-120785594D01*
X83357412Y-121015269D01*
G37*
%TD.AperFunction*%
D21*
X74095000Y-106405606D02*
X74095000Y-112049131D01*
X73095869Y-113048263D01*
X69596000Y-109548394D01*
X69596000Y-101906606D01*
X74095000Y-106405606D01*
%TA.AperFunction,Conductor*%
D22*
G36*
X74095000Y-106405606D02*
G01*
X74095000Y-112049131D01*
X73095869Y-113048263D01*
X69596000Y-109548394D01*
X69596000Y-101906606D01*
X74095000Y-106405606D01*
G37*
%TD.AperFunction*%
D21*
X86233000Y-79302584D02*
X86208396Y-79272604D01*
X86168908Y-79240197D01*
X86132774Y-79204063D01*
X86090284Y-79175672D01*
X86050797Y-79143266D01*
X86005748Y-79119187D01*
X85963256Y-79090795D01*
X85916036Y-79071236D01*
X85870993Y-79047160D01*
X85822122Y-79032335D01*
X85774898Y-79012774D01*
X85724768Y-79002803D01*
X85675895Y-78987977D01*
X85625064Y-78982970D01*
X85574939Y-78973000D01*
X85523835Y-78973000D01*
X85473000Y-78967993D01*
X85422165Y-78973000D01*
X85371061Y-78973000D01*
X85320936Y-78982970D01*
X85270105Y-78987977D01*
X85221232Y-79002803D01*
X85171102Y-79012774D01*
X85123880Y-79032334D01*
X85075006Y-79047160D01*
X85029959Y-79071238D01*
X84982744Y-79090795D01*
X84940256Y-79119184D01*
X84895202Y-79143266D01*
X84855712Y-79175675D01*
X84813226Y-79204063D01*
X84777092Y-79240197D01*
X79454290Y-84563000D01*
X79312825Y-84563000D01*
X79261997Y-84557994D01*
X79211169Y-84563000D01*
X79211160Y-84563000D01*
X79059103Y-84577976D01*
X78864005Y-84637159D01*
X78780307Y-84681896D01*
X78684200Y-84733266D01*
X78566090Y-84830197D01*
X78526602Y-84862604D01*
X78494195Y-84902092D01*
X77409097Y-85987191D01*
X77369604Y-86019602D01*
X77240266Y-86177201D01*
X77144159Y-86357006D01*
X77084976Y-86552104D01*
X77070000Y-86704161D01*
X77070000Y-86704170D01*
X77064994Y-86754998D01*
X77070000Y-86805826D01*
X77070001Y-87836288D01*
X75936506Y-88969783D01*
X75925226Y-88913073D01*
X75847205Y-88724715D01*
X75733937Y-88555197D01*
X75658740Y-88480000D01*
X75711260Y-88480000D01*
X75998158Y-88422932D01*
X76268411Y-88310990D01*
X76511632Y-88148475D01*
X76718475Y-87941632D01*
X76880990Y-87698411D01*
X76992932Y-87428158D01*
X77050000Y-87141260D01*
X77050000Y-86848740D01*
X76992932Y-86561842D01*
X76880990Y-86291589D01*
X76718475Y-86048368D01*
X76586620Y-85916513D01*
X76659180Y-85894502D01*
X76769494Y-85835537D01*
X76866185Y-85756185D01*
X76945537Y-85659494D01*
X77004502Y-85549180D01*
X77040812Y-85429482D01*
X77053072Y-85305000D01*
X77053072Y-83605000D01*
X77040812Y-83480518D01*
X77004502Y-83360820D01*
X76945537Y-83250506D01*
X76866185Y-83153815D01*
X76769494Y-83074463D01*
X76659180Y-83015498D01*
X76539482Y-82979188D01*
X76415000Y-82966928D01*
X74928000Y-82966928D01*
X74928000Y-82356801D01*
X75198592Y-82086209D01*
X75418740Y-82130000D01*
X75711260Y-82130000D01*
X75998158Y-82072932D01*
X76268411Y-81960990D01*
X76511632Y-81798475D01*
X76718475Y-81591632D01*
X76880990Y-81348411D01*
X76992932Y-81078158D01*
X77050000Y-80791260D01*
X77050000Y-80498740D01*
X76992932Y-80211842D01*
X76880990Y-79941589D01*
X76718475Y-79698368D01*
X76586620Y-79566513D01*
X76659180Y-79544502D01*
X76769494Y-79485537D01*
X76866185Y-79406185D01*
X76945537Y-79309494D01*
X77004502Y-79199180D01*
X77040812Y-79079482D01*
X77053072Y-78955000D01*
X77053072Y-77255000D01*
X77040812Y-77130518D01*
X77004502Y-77010820D01*
X76945537Y-76900506D01*
X76866185Y-76803815D01*
X76769494Y-76724463D01*
X76659180Y-76665498D01*
X76539482Y-76629188D01*
X76415000Y-76616928D01*
X74715000Y-76616928D01*
X74633000Y-76625004D01*
X74633000Y-75645867D01*
X76418869Y-73860000D01*
X78152501Y-73860000D01*
X78152501Y-74056673D01*
X78147495Y-74107501D01*
X78152501Y-74158329D01*
X78152501Y-74158339D01*
X78167477Y-74310396D01*
X78218042Y-74477082D01*
X78226661Y-74505494D01*
X78322767Y-74685298D01*
X78419698Y-74803408D01*
X78452106Y-74842897D01*
X78491593Y-74875303D01*
X80584092Y-76967803D01*
X80584097Y-76967807D01*
X81238063Y-77621774D01*
X81382226Y-77765937D01*
X81424712Y-77794325D01*
X81464202Y-77826734D01*
X81509256Y-77850816D01*
X81551744Y-77879205D01*
X81598959Y-77898762D01*
X81644006Y-77922840D01*
X81692880Y-77937666D01*
X81740102Y-77957226D01*
X81790232Y-77967197D01*
X81839105Y-77982023D01*
X81889936Y-77987030D01*
X81940061Y-77997000D01*
X81991165Y-77997000D01*
X82042000Y-78002007D01*
X82092835Y-77997000D01*
X82143939Y-77997000D01*
X82194064Y-77987030D01*
X82244895Y-77982023D01*
X82293768Y-77967197D01*
X82343898Y-77957226D01*
X82350001Y-77954698D01*
X82350001Y-78267131D01*
X81315133Y-79302000D01*
X79988285Y-79302000D01*
X79865256Y-79219795D01*
X79676898Y-79141774D01*
X79476939Y-79102000D01*
X79273061Y-79102000D01*
X79073102Y-79141774D01*
X78884744Y-79219795D01*
X78715226Y-79333063D01*
X78571063Y-79477226D01*
X78457795Y-79646744D01*
X78379774Y-79835102D01*
X78340000Y-80035061D01*
X78340000Y-80238939D01*
X78379774Y-80438898D01*
X78457795Y-80627256D01*
X78571063Y-80796774D01*
X78715226Y-80940937D01*
X78884744Y-81054205D01*
X79073102Y-81132226D01*
X79273061Y-81172000D01*
X79476939Y-81172000D01*
X79676898Y-81132226D01*
X79865256Y-81054205D01*
X79988285Y-80972000D01*
X81619982Y-80972000D01*
X81661000Y-80976040D01*
X81702018Y-80972000D01*
X81702019Y-80972000D01*
X81824689Y-80959918D01*
X81982087Y-80912172D01*
X82127146Y-80834636D01*
X82254291Y-80730291D01*
X82280446Y-80698421D01*
X83746426Y-79232441D01*
X83778291Y-79206291D01*
X83882636Y-79079146D01*
X83960172Y-78934087D01*
X84007918Y-78776689D01*
X84020000Y-78654019D01*
X84020000Y-78654009D01*
X84024039Y-78613001D01*
X84020000Y-78571993D01*
X84020000Y-73760108D01*
X84143368Y-73883476D01*
X84386589Y-74045991D01*
X84656842Y-74157933D01*
X84943740Y-74215001D01*
X85236260Y-74215001D01*
X85523158Y-74157933D01*
X85793411Y-74045991D01*
X86036632Y-73883476D01*
X86233000Y-73687108D01*
X86233000Y-79302584D01*
%TA.AperFunction,Conductor*%
D22*
G36*
X86233000Y-79302584D02*
G01*
X86208396Y-79272604D01*
X86168908Y-79240197D01*
X86132774Y-79204063D01*
X86090284Y-79175672D01*
X86050797Y-79143266D01*
X86005748Y-79119187D01*
X85963256Y-79090795D01*
X85916036Y-79071236D01*
X85870993Y-79047160D01*
X85822122Y-79032335D01*
X85774898Y-79012774D01*
X85724768Y-79002803D01*
X85675895Y-78987977D01*
X85625064Y-78982970D01*
X85574939Y-78973000D01*
X85523835Y-78973000D01*
X85473000Y-78967993D01*
X85422165Y-78973000D01*
X85371061Y-78973000D01*
X85320936Y-78982970D01*
X85270105Y-78987977D01*
X85221232Y-79002803D01*
X85171102Y-79012774D01*
X85123880Y-79032334D01*
X85075006Y-79047160D01*
X85029959Y-79071238D01*
X84982744Y-79090795D01*
X84940256Y-79119184D01*
X84895202Y-79143266D01*
X84855712Y-79175675D01*
X84813226Y-79204063D01*
X84777092Y-79240197D01*
X79454290Y-84563000D01*
X79312825Y-84563000D01*
X79261997Y-84557994D01*
X79211169Y-84563000D01*
X79211160Y-84563000D01*
X79059103Y-84577976D01*
X78864005Y-84637159D01*
X78780307Y-84681896D01*
X78684200Y-84733266D01*
X78566090Y-84830197D01*
X78526602Y-84862604D01*
X78494195Y-84902092D01*
X77409097Y-85987191D01*
X77369604Y-86019602D01*
X77240266Y-86177201D01*
X77144159Y-86357006D01*
X77084976Y-86552104D01*
X77070000Y-86704161D01*
X77070000Y-86704170D01*
X77064994Y-86754998D01*
X77070000Y-86805826D01*
X77070001Y-87836288D01*
X75936506Y-88969783D01*
X75925226Y-88913073D01*
X75847205Y-88724715D01*
X75733937Y-88555197D01*
X75658740Y-88480000D01*
X75711260Y-88480000D01*
X75998158Y-88422932D01*
X76268411Y-88310990D01*
X76511632Y-88148475D01*
X76718475Y-87941632D01*
X76880990Y-87698411D01*
X76992932Y-87428158D01*
X77050000Y-87141260D01*
X77050000Y-86848740D01*
X76992932Y-86561842D01*
X76880990Y-86291589D01*
X76718475Y-86048368D01*
X76586620Y-85916513D01*
X76659180Y-85894502D01*
X76769494Y-85835537D01*
X76866185Y-85756185D01*
X76945537Y-85659494D01*
X77004502Y-85549180D01*
X77040812Y-85429482D01*
X77053072Y-85305000D01*
X77053072Y-83605000D01*
X77040812Y-83480518D01*
X77004502Y-83360820D01*
X76945537Y-83250506D01*
X76866185Y-83153815D01*
X76769494Y-83074463D01*
X76659180Y-83015498D01*
X76539482Y-82979188D01*
X76415000Y-82966928D01*
X74928000Y-82966928D01*
X74928000Y-82356801D01*
X75198592Y-82086209D01*
X75418740Y-82130000D01*
X75711260Y-82130000D01*
X75998158Y-82072932D01*
X76268411Y-81960990D01*
X76511632Y-81798475D01*
X76718475Y-81591632D01*
X76880990Y-81348411D01*
X76992932Y-81078158D01*
X77050000Y-80791260D01*
X77050000Y-80498740D01*
X76992932Y-80211842D01*
X76880990Y-79941589D01*
X76718475Y-79698368D01*
X76586620Y-79566513D01*
X76659180Y-79544502D01*
X76769494Y-79485537D01*
X76866185Y-79406185D01*
X76945537Y-79309494D01*
X77004502Y-79199180D01*
X77040812Y-79079482D01*
X77053072Y-78955000D01*
X77053072Y-77255000D01*
X77040812Y-77130518D01*
X77004502Y-77010820D01*
X76945537Y-76900506D01*
X76866185Y-76803815D01*
X76769494Y-76724463D01*
X76659180Y-76665498D01*
X76539482Y-76629188D01*
X76415000Y-76616928D01*
X74715000Y-76616928D01*
X74633000Y-76625004D01*
X74633000Y-75645867D01*
X76418869Y-73860000D01*
X78152501Y-73860000D01*
X78152501Y-74056673D01*
X78147495Y-74107501D01*
X78152501Y-74158329D01*
X78152501Y-74158339D01*
X78167477Y-74310396D01*
X78218042Y-74477082D01*
X78226661Y-74505494D01*
X78322767Y-74685298D01*
X78419698Y-74803408D01*
X78452106Y-74842897D01*
X78491593Y-74875303D01*
X80584092Y-76967803D01*
X80584097Y-76967807D01*
X81238063Y-77621774D01*
X81382226Y-77765937D01*
X81424712Y-77794325D01*
X81464202Y-77826734D01*
X81509256Y-77850816D01*
X81551744Y-77879205D01*
X81598959Y-77898762D01*
X81644006Y-77922840D01*
X81692880Y-77937666D01*
X81740102Y-77957226D01*
X81790232Y-77967197D01*
X81839105Y-77982023D01*
X81889936Y-77987030D01*
X81940061Y-77997000D01*
X81991165Y-77997000D01*
X82042000Y-78002007D01*
X82092835Y-77997000D01*
X82143939Y-77997000D01*
X82194064Y-77987030D01*
X82244895Y-77982023D01*
X82293768Y-77967197D01*
X82343898Y-77957226D01*
X82350001Y-77954698D01*
X82350001Y-78267131D01*
X81315133Y-79302000D01*
X79988285Y-79302000D01*
X79865256Y-79219795D01*
X79676898Y-79141774D01*
X79476939Y-79102000D01*
X79273061Y-79102000D01*
X79073102Y-79141774D01*
X78884744Y-79219795D01*
X78715226Y-79333063D01*
X78571063Y-79477226D01*
X78457795Y-79646744D01*
X78379774Y-79835102D01*
X78340000Y-80035061D01*
X78340000Y-80238939D01*
X78379774Y-80438898D01*
X78457795Y-80627256D01*
X78571063Y-80796774D01*
X78715226Y-80940937D01*
X78884744Y-81054205D01*
X79073102Y-81132226D01*
X79273061Y-81172000D01*
X79476939Y-81172000D01*
X79676898Y-81132226D01*
X79865256Y-81054205D01*
X79988285Y-80972000D01*
X81619982Y-80972000D01*
X81661000Y-80976040D01*
X81702018Y-80972000D01*
X81702019Y-80972000D01*
X81824689Y-80959918D01*
X81982087Y-80912172D01*
X82127146Y-80834636D01*
X82254291Y-80730291D01*
X82280446Y-80698421D01*
X83746426Y-79232441D01*
X83778291Y-79206291D01*
X83882636Y-79079146D01*
X83960172Y-78934087D01*
X84007918Y-78776689D01*
X84020000Y-78654019D01*
X84020000Y-78654009D01*
X84024039Y-78613001D01*
X84020000Y-78571993D01*
X84020000Y-73760108D01*
X84143368Y-73883476D01*
X84386589Y-74045991D01*
X84656842Y-74157933D01*
X84943740Y-74215001D01*
X85236260Y-74215001D01*
X85523158Y-74157933D01*
X85793411Y-74045991D01*
X86036632Y-73883476D01*
X86233000Y-73687108D01*
X86233000Y-79302584D01*
G37*
%TD.AperFunction*%
D21*
X80137000Y-87503000D02*
X80157000Y-87503000D01*
X80157000Y-87757000D01*
X80137000Y-87757000D01*
X80137000Y-87777000D01*
X79883000Y-87777000D01*
X79883000Y-87757000D01*
X79863000Y-87757000D01*
X79863000Y-87503000D01*
X79883000Y-87503000D01*
X79883000Y-87483000D01*
X80137000Y-87483000D01*
X80137000Y-87503000D01*
%TA.AperFunction,Conductor*%
D22*
G36*
X80137000Y-87503000D02*
G01*
X80157000Y-87503000D01*
X80157000Y-87757000D01*
X80137000Y-87757000D01*
X80137000Y-87777000D01*
X79883000Y-87777000D01*
X79883000Y-87757000D01*
X79863000Y-87757000D01*
X79863000Y-87503000D01*
X79883000Y-87503000D01*
X79883000Y-87483000D01*
X80137000Y-87483000D01*
X80137000Y-87503000D01*
G37*
%TD.AperFunction*%
%TD*%
M02*
