%TF.GenerationSoftware,KiCad,Pcbnew,5.1.7-a382d34a8~87~ubuntu18.04.1*%
%TF.CreationDate,2020-10-15T21:21:34+02:00*%
%TF.ProjectId,veriController,76657269-436f-46e7-9472-6f6c6c65722e,rev?*%
%TF.SameCoordinates,Original*%
%TF.FileFunction,Soldermask,Top*%
%TF.FilePolarity,Negative*%
%FSLAX46Y46*%
G04 Gerber Fmt 4.6, Leading zero omitted, Abs format (unit mm)*
G04 Created by KiCad (PCBNEW 5.1.7-a382d34a8~87~ubuntu18.04.1) date 2020-10-15 21:21:34*
%MOMM*%
%LPD*%
G01*
G04 APERTURE LIST*
%ADD10C,0.100000*%
%ADD11R,1.700000X1.700000*%
%ADD12O,1.700000X1.700000*%
%ADD13R,2.200000X1.200000*%
%ADD14R,6.400000X5.800000*%
%ADD15R,3.000000X3.000000*%
%ADD16C,3.000000*%
%ADD17R,0.900000X0.800000*%
%ADD18R,2.100000X2.100000*%
%ADD19C,2.000000*%
%ADD20R,2.500000X2.000000*%
%ADD21R,2.500000X0.500000*%
%ADD22C,0.900000*%
G04 APERTURE END LIST*
%TO.C,U1*%
G36*
G01*
X63478134Y-91300899D02*
X63584200Y-91194833D01*
G75*
G02*
X63690266Y-91194833I53033J-53033D01*
G01*
X64627182Y-92131749D01*
G75*
G02*
X64627182Y-92237815I-53033J-53033D01*
G01*
X64521116Y-92343881D01*
G75*
G02*
X64415050Y-92343881I-53033J53033D01*
G01*
X63478134Y-91406965D01*
G75*
G02*
X63478134Y-91300899I53033J53033D01*
G01*
G37*
G36*
G01*
X63124581Y-91654453D02*
X63230647Y-91548387D01*
G75*
G02*
X63336713Y-91548387I53033J-53033D01*
G01*
X64273629Y-92485303D01*
G75*
G02*
X64273629Y-92591369I-53033J-53033D01*
G01*
X64167563Y-92697435D01*
G75*
G02*
X64061497Y-92697435I-53033J53033D01*
G01*
X63124581Y-91760519D01*
G75*
G02*
X63124581Y-91654453I53033J53033D01*
G01*
G37*
G36*
G01*
X62771027Y-92008006D02*
X62877093Y-91901940D01*
G75*
G02*
X62983159Y-91901940I53033J-53033D01*
G01*
X63920075Y-92838856D01*
G75*
G02*
X63920075Y-92944922I-53033J-53033D01*
G01*
X63814009Y-93050988D01*
G75*
G02*
X63707943Y-93050988I-53033J53033D01*
G01*
X62771027Y-92114072D01*
G75*
G02*
X62771027Y-92008006I53033J53033D01*
G01*
G37*
G36*
G01*
X62417474Y-92361560D02*
X62523540Y-92255494D01*
G75*
G02*
X62629606Y-92255494I53033J-53033D01*
G01*
X63566522Y-93192410D01*
G75*
G02*
X63566522Y-93298476I-53033J-53033D01*
G01*
X63460456Y-93404542D01*
G75*
G02*
X63354390Y-93404542I-53033J53033D01*
G01*
X62417474Y-92467626D01*
G75*
G02*
X62417474Y-92361560I53033J53033D01*
G01*
G37*
G36*
G01*
X62063921Y-92715113D02*
X62169987Y-92609047D01*
G75*
G02*
X62276053Y-92609047I53033J-53033D01*
G01*
X63212969Y-93545963D01*
G75*
G02*
X63212969Y-93652029I-53033J-53033D01*
G01*
X63106903Y-93758095D01*
G75*
G02*
X63000837Y-93758095I-53033J53033D01*
G01*
X62063921Y-92821179D01*
G75*
G02*
X62063921Y-92715113I53033J53033D01*
G01*
G37*
G36*
G01*
X61710367Y-93068666D02*
X61816433Y-92962600D01*
G75*
G02*
X61922499Y-92962600I53033J-53033D01*
G01*
X62859415Y-93899516D01*
G75*
G02*
X62859415Y-94005582I-53033J-53033D01*
G01*
X62753349Y-94111648D01*
G75*
G02*
X62647283Y-94111648I-53033J53033D01*
G01*
X61710367Y-93174732D01*
G75*
G02*
X61710367Y-93068666I53033J53033D01*
G01*
G37*
G36*
G01*
X61356814Y-93422220D02*
X61462880Y-93316154D01*
G75*
G02*
X61568946Y-93316154I53033J-53033D01*
G01*
X62505862Y-94253070D01*
G75*
G02*
X62505862Y-94359136I-53033J-53033D01*
G01*
X62399796Y-94465202D01*
G75*
G02*
X62293730Y-94465202I-53033J53033D01*
G01*
X61356814Y-93528286D01*
G75*
G02*
X61356814Y-93422220I53033J53033D01*
G01*
G37*
G36*
G01*
X61003261Y-93775773D02*
X61109327Y-93669707D01*
G75*
G02*
X61215393Y-93669707I53033J-53033D01*
G01*
X62152309Y-94606623D01*
G75*
G02*
X62152309Y-94712689I-53033J-53033D01*
G01*
X62046243Y-94818755D01*
G75*
G02*
X61940177Y-94818755I-53033J53033D01*
G01*
X61003261Y-93881839D01*
G75*
G02*
X61003261Y-93775773I53033J53033D01*
G01*
G37*
G36*
G01*
X60649707Y-94129327D02*
X60755773Y-94023261D01*
G75*
G02*
X60861839Y-94023261I53033J-53033D01*
G01*
X61798755Y-94960177D01*
G75*
G02*
X61798755Y-95066243I-53033J-53033D01*
G01*
X61692689Y-95172309D01*
G75*
G02*
X61586623Y-95172309I-53033J53033D01*
G01*
X60649707Y-94235393D01*
G75*
G02*
X60649707Y-94129327I53033J53033D01*
G01*
G37*
G36*
G01*
X60296154Y-94482880D02*
X60402220Y-94376814D01*
G75*
G02*
X60508286Y-94376814I53033J-53033D01*
G01*
X61445202Y-95313730D01*
G75*
G02*
X61445202Y-95419796I-53033J-53033D01*
G01*
X61339136Y-95525862D01*
G75*
G02*
X61233070Y-95525862I-53033J53033D01*
G01*
X60296154Y-94588946D01*
G75*
G02*
X60296154Y-94482880I53033J53033D01*
G01*
G37*
G36*
G01*
X59942600Y-94836433D02*
X60048666Y-94730367D01*
G75*
G02*
X60154732Y-94730367I53033J-53033D01*
G01*
X61091648Y-95667283D01*
G75*
G02*
X61091648Y-95773349I-53033J-53033D01*
G01*
X60985582Y-95879415D01*
G75*
G02*
X60879516Y-95879415I-53033J53033D01*
G01*
X59942600Y-94942499D01*
G75*
G02*
X59942600Y-94836433I53033J53033D01*
G01*
G37*
G36*
G01*
X59589047Y-95189987D02*
X59695113Y-95083921D01*
G75*
G02*
X59801179Y-95083921I53033J-53033D01*
G01*
X60738095Y-96020837D01*
G75*
G02*
X60738095Y-96126903I-53033J-53033D01*
G01*
X60632029Y-96232969D01*
G75*
G02*
X60525963Y-96232969I-53033J53033D01*
G01*
X59589047Y-95296053D01*
G75*
G02*
X59589047Y-95189987I53033J53033D01*
G01*
G37*
G36*
G01*
X59235494Y-95543540D02*
X59341560Y-95437474D01*
G75*
G02*
X59447626Y-95437474I53033J-53033D01*
G01*
X60384542Y-96374390D01*
G75*
G02*
X60384542Y-96480456I-53033J-53033D01*
G01*
X60278476Y-96586522D01*
G75*
G02*
X60172410Y-96586522I-53033J53033D01*
G01*
X59235494Y-95649606D01*
G75*
G02*
X59235494Y-95543540I53033J53033D01*
G01*
G37*
G36*
G01*
X58881940Y-95897093D02*
X58988006Y-95791027D01*
G75*
G02*
X59094072Y-95791027I53033J-53033D01*
G01*
X60030988Y-96727943D01*
G75*
G02*
X60030988Y-96834009I-53033J-53033D01*
G01*
X59924922Y-96940075D01*
G75*
G02*
X59818856Y-96940075I-53033J53033D01*
G01*
X58881940Y-96003159D01*
G75*
G02*
X58881940Y-95897093I53033J53033D01*
G01*
G37*
G36*
G01*
X58528387Y-96250647D02*
X58634453Y-96144581D01*
G75*
G02*
X58740519Y-96144581I53033J-53033D01*
G01*
X59677435Y-97081497D01*
G75*
G02*
X59677435Y-97187563I-53033J-53033D01*
G01*
X59571369Y-97293629D01*
G75*
G02*
X59465303Y-97293629I-53033J53033D01*
G01*
X58528387Y-96356713D01*
G75*
G02*
X58528387Y-96250647I53033J53033D01*
G01*
G37*
G36*
G01*
X58174833Y-96604200D02*
X58280899Y-96498134D01*
G75*
G02*
X58386965Y-96498134I53033J-53033D01*
G01*
X59323881Y-97435050D01*
G75*
G02*
X59323881Y-97541116I-53033J-53033D01*
G01*
X59217815Y-97647182D01*
G75*
G02*
X59111749Y-97647182I-53033J53033D01*
G01*
X58174833Y-96710266D01*
G75*
G02*
X58174833Y-96604200I53033J53033D01*
G01*
G37*
G36*
G01*
X58174833Y-100139734D02*
X59111749Y-99202818D01*
G75*
G02*
X59217815Y-99202818I53033J-53033D01*
G01*
X59323881Y-99308884D01*
G75*
G02*
X59323881Y-99414950I-53033J-53033D01*
G01*
X58386965Y-100351866D01*
G75*
G02*
X58280899Y-100351866I-53033J53033D01*
G01*
X58174833Y-100245800D01*
G75*
G02*
X58174833Y-100139734I53033J53033D01*
G01*
G37*
G36*
G01*
X58528387Y-100493287D02*
X59465303Y-99556371D01*
G75*
G02*
X59571369Y-99556371I53033J-53033D01*
G01*
X59677435Y-99662437D01*
G75*
G02*
X59677435Y-99768503I-53033J-53033D01*
G01*
X58740519Y-100705419D01*
G75*
G02*
X58634453Y-100705419I-53033J53033D01*
G01*
X58528387Y-100599353D01*
G75*
G02*
X58528387Y-100493287I53033J53033D01*
G01*
G37*
G36*
G01*
X58881940Y-100846841D02*
X59818856Y-99909925D01*
G75*
G02*
X59924922Y-99909925I53033J-53033D01*
G01*
X60030988Y-100015991D01*
G75*
G02*
X60030988Y-100122057I-53033J-53033D01*
G01*
X59094072Y-101058973D01*
G75*
G02*
X58988006Y-101058973I-53033J53033D01*
G01*
X58881940Y-100952907D01*
G75*
G02*
X58881940Y-100846841I53033J53033D01*
G01*
G37*
G36*
G01*
X59235494Y-101200394D02*
X60172410Y-100263478D01*
G75*
G02*
X60278476Y-100263478I53033J-53033D01*
G01*
X60384542Y-100369544D01*
G75*
G02*
X60384542Y-100475610I-53033J-53033D01*
G01*
X59447626Y-101412526D01*
G75*
G02*
X59341560Y-101412526I-53033J53033D01*
G01*
X59235494Y-101306460D01*
G75*
G02*
X59235494Y-101200394I53033J53033D01*
G01*
G37*
G36*
G01*
X59589047Y-101553947D02*
X60525963Y-100617031D01*
G75*
G02*
X60632029Y-100617031I53033J-53033D01*
G01*
X60738095Y-100723097D01*
G75*
G02*
X60738095Y-100829163I-53033J-53033D01*
G01*
X59801179Y-101766079D01*
G75*
G02*
X59695113Y-101766079I-53033J53033D01*
G01*
X59589047Y-101660013D01*
G75*
G02*
X59589047Y-101553947I53033J53033D01*
G01*
G37*
G36*
G01*
X59942600Y-101907501D02*
X60879516Y-100970585D01*
G75*
G02*
X60985582Y-100970585I53033J-53033D01*
G01*
X61091648Y-101076651D01*
G75*
G02*
X61091648Y-101182717I-53033J-53033D01*
G01*
X60154732Y-102119633D01*
G75*
G02*
X60048666Y-102119633I-53033J53033D01*
G01*
X59942600Y-102013567D01*
G75*
G02*
X59942600Y-101907501I53033J53033D01*
G01*
G37*
G36*
G01*
X60296154Y-102261054D02*
X61233070Y-101324138D01*
G75*
G02*
X61339136Y-101324138I53033J-53033D01*
G01*
X61445202Y-101430204D01*
G75*
G02*
X61445202Y-101536270I-53033J-53033D01*
G01*
X60508286Y-102473186D01*
G75*
G02*
X60402220Y-102473186I-53033J53033D01*
G01*
X60296154Y-102367120D01*
G75*
G02*
X60296154Y-102261054I53033J53033D01*
G01*
G37*
G36*
G01*
X60649707Y-102614607D02*
X61586623Y-101677691D01*
G75*
G02*
X61692689Y-101677691I53033J-53033D01*
G01*
X61798755Y-101783757D01*
G75*
G02*
X61798755Y-101889823I-53033J-53033D01*
G01*
X60861839Y-102826739D01*
G75*
G02*
X60755773Y-102826739I-53033J53033D01*
G01*
X60649707Y-102720673D01*
G75*
G02*
X60649707Y-102614607I53033J53033D01*
G01*
G37*
G36*
G01*
X61003261Y-102968161D02*
X61940177Y-102031245D01*
G75*
G02*
X62046243Y-102031245I53033J-53033D01*
G01*
X62152309Y-102137311D01*
G75*
G02*
X62152309Y-102243377I-53033J-53033D01*
G01*
X61215393Y-103180293D01*
G75*
G02*
X61109327Y-103180293I-53033J53033D01*
G01*
X61003261Y-103074227D01*
G75*
G02*
X61003261Y-102968161I53033J53033D01*
G01*
G37*
G36*
G01*
X61356814Y-103321714D02*
X62293730Y-102384798D01*
G75*
G02*
X62399796Y-102384798I53033J-53033D01*
G01*
X62505862Y-102490864D01*
G75*
G02*
X62505862Y-102596930I-53033J-53033D01*
G01*
X61568946Y-103533846D01*
G75*
G02*
X61462880Y-103533846I-53033J53033D01*
G01*
X61356814Y-103427780D01*
G75*
G02*
X61356814Y-103321714I53033J53033D01*
G01*
G37*
G36*
G01*
X61710367Y-103675268D02*
X62647283Y-102738352D01*
G75*
G02*
X62753349Y-102738352I53033J-53033D01*
G01*
X62859415Y-102844418D01*
G75*
G02*
X62859415Y-102950484I-53033J-53033D01*
G01*
X61922499Y-103887400D01*
G75*
G02*
X61816433Y-103887400I-53033J53033D01*
G01*
X61710367Y-103781334D01*
G75*
G02*
X61710367Y-103675268I53033J53033D01*
G01*
G37*
G36*
G01*
X62063921Y-104028821D02*
X63000837Y-103091905D01*
G75*
G02*
X63106903Y-103091905I53033J-53033D01*
G01*
X63212969Y-103197971D01*
G75*
G02*
X63212969Y-103304037I-53033J-53033D01*
G01*
X62276053Y-104240953D01*
G75*
G02*
X62169987Y-104240953I-53033J53033D01*
G01*
X62063921Y-104134887D01*
G75*
G02*
X62063921Y-104028821I53033J53033D01*
G01*
G37*
G36*
G01*
X62417474Y-104382374D02*
X63354390Y-103445458D01*
G75*
G02*
X63460456Y-103445458I53033J-53033D01*
G01*
X63566522Y-103551524D01*
G75*
G02*
X63566522Y-103657590I-53033J-53033D01*
G01*
X62629606Y-104594506D01*
G75*
G02*
X62523540Y-104594506I-53033J53033D01*
G01*
X62417474Y-104488440D01*
G75*
G02*
X62417474Y-104382374I53033J53033D01*
G01*
G37*
G36*
G01*
X62771027Y-104735928D02*
X63707943Y-103799012D01*
G75*
G02*
X63814009Y-103799012I53033J-53033D01*
G01*
X63920075Y-103905078D01*
G75*
G02*
X63920075Y-104011144I-53033J-53033D01*
G01*
X62983159Y-104948060D01*
G75*
G02*
X62877093Y-104948060I-53033J53033D01*
G01*
X62771027Y-104841994D01*
G75*
G02*
X62771027Y-104735928I53033J53033D01*
G01*
G37*
G36*
G01*
X63124581Y-105089481D02*
X64061497Y-104152565D01*
G75*
G02*
X64167563Y-104152565I53033J-53033D01*
G01*
X64273629Y-104258631D01*
G75*
G02*
X64273629Y-104364697I-53033J-53033D01*
G01*
X63336713Y-105301613D01*
G75*
G02*
X63230647Y-105301613I-53033J53033D01*
G01*
X63124581Y-105195547D01*
G75*
G02*
X63124581Y-105089481I53033J53033D01*
G01*
G37*
G36*
G01*
X63478134Y-105443035D02*
X64415050Y-104506119D01*
G75*
G02*
X64521116Y-104506119I53033J-53033D01*
G01*
X64627182Y-104612185D01*
G75*
G02*
X64627182Y-104718251I-53033J-53033D01*
G01*
X63690266Y-105655167D01*
G75*
G02*
X63584200Y-105655167I-53033J53033D01*
G01*
X63478134Y-105549101D01*
G75*
G02*
X63478134Y-105443035I53033J53033D01*
G01*
G37*
G36*
G01*
X66182818Y-104612185D02*
X66288884Y-104506119D01*
G75*
G02*
X66394950Y-104506119I53033J-53033D01*
G01*
X67331866Y-105443035D01*
G75*
G02*
X67331866Y-105549101I-53033J-53033D01*
G01*
X67225800Y-105655167D01*
G75*
G02*
X67119734Y-105655167I-53033J53033D01*
G01*
X66182818Y-104718251D01*
G75*
G02*
X66182818Y-104612185I53033J53033D01*
G01*
G37*
G36*
G01*
X66536371Y-104258631D02*
X66642437Y-104152565D01*
G75*
G02*
X66748503Y-104152565I53033J-53033D01*
G01*
X67685419Y-105089481D01*
G75*
G02*
X67685419Y-105195547I-53033J-53033D01*
G01*
X67579353Y-105301613D01*
G75*
G02*
X67473287Y-105301613I-53033J53033D01*
G01*
X66536371Y-104364697D01*
G75*
G02*
X66536371Y-104258631I53033J53033D01*
G01*
G37*
G36*
G01*
X66889925Y-103905078D02*
X66995991Y-103799012D01*
G75*
G02*
X67102057Y-103799012I53033J-53033D01*
G01*
X68038973Y-104735928D01*
G75*
G02*
X68038973Y-104841994I-53033J-53033D01*
G01*
X67932907Y-104948060D01*
G75*
G02*
X67826841Y-104948060I-53033J53033D01*
G01*
X66889925Y-104011144D01*
G75*
G02*
X66889925Y-103905078I53033J53033D01*
G01*
G37*
G36*
G01*
X67243478Y-103551524D02*
X67349544Y-103445458D01*
G75*
G02*
X67455610Y-103445458I53033J-53033D01*
G01*
X68392526Y-104382374D01*
G75*
G02*
X68392526Y-104488440I-53033J-53033D01*
G01*
X68286460Y-104594506D01*
G75*
G02*
X68180394Y-104594506I-53033J53033D01*
G01*
X67243478Y-103657590D01*
G75*
G02*
X67243478Y-103551524I53033J53033D01*
G01*
G37*
G36*
G01*
X67597031Y-103197971D02*
X67703097Y-103091905D01*
G75*
G02*
X67809163Y-103091905I53033J-53033D01*
G01*
X68746079Y-104028821D01*
G75*
G02*
X68746079Y-104134887I-53033J-53033D01*
G01*
X68640013Y-104240953D01*
G75*
G02*
X68533947Y-104240953I-53033J53033D01*
G01*
X67597031Y-103304037D01*
G75*
G02*
X67597031Y-103197971I53033J53033D01*
G01*
G37*
G36*
G01*
X67950585Y-102844418D02*
X68056651Y-102738352D01*
G75*
G02*
X68162717Y-102738352I53033J-53033D01*
G01*
X69099633Y-103675268D01*
G75*
G02*
X69099633Y-103781334I-53033J-53033D01*
G01*
X68993567Y-103887400D01*
G75*
G02*
X68887501Y-103887400I-53033J53033D01*
G01*
X67950585Y-102950484D01*
G75*
G02*
X67950585Y-102844418I53033J53033D01*
G01*
G37*
G36*
G01*
X68304138Y-102490864D02*
X68410204Y-102384798D01*
G75*
G02*
X68516270Y-102384798I53033J-53033D01*
G01*
X69453186Y-103321714D01*
G75*
G02*
X69453186Y-103427780I-53033J-53033D01*
G01*
X69347120Y-103533846D01*
G75*
G02*
X69241054Y-103533846I-53033J53033D01*
G01*
X68304138Y-102596930D01*
G75*
G02*
X68304138Y-102490864I53033J53033D01*
G01*
G37*
G36*
G01*
X68657691Y-102137311D02*
X68763757Y-102031245D01*
G75*
G02*
X68869823Y-102031245I53033J-53033D01*
G01*
X69806739Y-102968161D01*
G75*
G02*
X69806739Y-103074227I-53033J-53033D01*
G01*
X69700673Y-103180293D01*
G75*
G02*
X69594607Y-103180293I-53033J53033D01*
G01*
X68657691Y-102243377D01*
G75*
G02*
X68657691Y-102137311I53033J53033D01*
G01*
G37*
G36*
G01*
X69011245Y-101783757D02*
X69117311Y-101677691D01*
G75*
G02*
X69223377Y-101677691I53033J-53033D01*
G01*
X70160293Y-102614607D01*
G75*
G02*
X70160293Y-102720673I-53033J-53033D01*
G01*
X70054227Y-102826739D01*
G75*
G02*
X69948161Y-102826739I-53033J53033D01*
G01*
X69011245Y-101889823D01*
G75*
G02*
X69011245Y-101783757I53033J53033D01*
G01*
G37*
G36*
G01*
X69364798Y-101430204D02*
X69470864Y-101324138D01*
G75*
G02*
X69576930Y-101324138I53033J-53033D01*
G01*
X70513846Y-102261054D01*
G75*
G02*
X70513846Y-102367120I-53033J-53033D01*
G01*
X70407780Y-102473186D01*
G75*
G02*
X70301714Y-102473186I-53033J53033D01*
G01*
X69364798Y-101536270D01*
G75*
G02*
X69364798Y-101430204I53033J53033D01*
G01*
G37*
G36*
G01*
X69718352Y-101076651D02*
X69824418Y-100970585D01*
G75*
G02*
X69930484Y-100970585I53033J-53033D01*
G01*
X70867400Y-101907501D01*
G75*
G02*
X70867400Y-102013567I-53033J-53033D01*
G01*
X70761334Y-102119633D01*
G75*
G02*
X70655268Y-102119633I-53033J53033D01*
G01*
X69718352Y-101182717D01*
G75*
G02*
X69718352Y-101076651I53033J53033D01*
G01*
G37*
G36*
G01*
X70071905Y-100723097D02*
X70177971Y-100617031D01*
G75*
G02*
X70284037Y-100617031I53033J-53033D01*
G01*
X71220953Y-101553947D01*
G75*
G02*
X71220953Y-101660013I-53033J-53033D01*
G01*
X71114887Y-101766079D01*
G75*
G02*
X71008821Y-101766079I-53033J53033D01*
G01*
X70071905Y-100829163D01*
G75*
G02*
X70071905Y-100723097I53033J53033D01*
G01*
G37*
G36*
G01*
X70425458Y-100369544D02*
X70531524Y-100263478D01*
G75*
G02*
X70637590Y-100263478I53033J-53033D01*
G01*
X71574506Y-101200394D01*
G75*
G02*
X71574506Y-101306460I-53033J-53033D01*
G01*
X71468440Y-101412526D01*
G75*
G02*
X71362374Y-101412526I-53033J53033D01*
G01*
X70425458Y-100475610D01*
G75*
G02*
X70425458Y-100369544I53033J53033D01*
G01*
G37*
G36*
G01*
X70779012Y-100015991D02*
X70885078Y-99909925D01*
G75*
G02*
X70991144Y-99909925I53033J-53033D01*
G01*
X71928060Y-100846841D01*
G75*
G02*
X71928060Y-100952907I-53033J-53033D01*
G01*
X71821994Y-101058973D01*
G75*
G02*
X71715928Y-101058973I-53033J53033D01*
G01*
X70779012Y-100122057D01*
G75*
G02*
X70779012Y-100015991I53033J53033D01*
G01*
G37*
G36*
G01*
X71132565Y-99662437D02*
X71238631Y-99556371D01*
G75*
G02*
X71344697Y-99556371I53033J-53033D01*
G01*
X72281613Y-100493287D01*
G75*
G02*
X72281613Y-100599353I-53033J-53033D01*
G01*
X72175547Y-100705419D01*
G75*
G02*
X72069481Y-100705419I-53033J53033D01*
G01*
X71132565Y-99768503D01*
G75*
G02*
X71132565Y-99662437I53033J53033D01*
G01*
G37*
G36*
G01*
X71486119Y-99308884D02*
X71592185Y-99202818D01*
G75*
G02*
X71698251Y-99202818I53033J-53033D01*
G01*
X72635167Y-100139734D01*
G75*
G02*
X72635167Y-100245800I-53033J-53033D01*
G01*
X72529101Y-100351866D01*
G75*
G02*
X72423035Y-100351866I-53033J53033D01*
G01*
X71486119Y-99414950D01*
G75*
G02*
X71486119Y-99308884I53033J53033D01*
G01*
G37*
G36*
G01*
X71486119Y-97435050D02*
X72423035Y-96498134D01*
G75*
G02*
X72529101Y-96498134I53033J-53033D01*
G01*
X72635167Y-96604200D01*
G75*
G02*
X72635167Y-96710266I-53033J-53033D01*
G01*
X71698251Y-97647182D01*
G75*
G02*
X71592185Y-97647182I-53033J53033D01*
G01*
X71486119Y-97541116D01*
G75*
G02*
X71486119Y-97435050I53033J53033D01*
G01*
G37*
G36*
G01*
X71132565Y-97081497D02*
X72069481Y-96144581D01*
G75*
G02*
X72175547Y-96144581I53033J-53033D01*
G01*
X72281613Y-96250647D01*
G75*
G02*
X72281613Y-96356713I-53033J-53033D01*
G01*
X71344697Y-97293629D01*
G75*
G02*
X71238631Y-97293629I-53033J53033D01*
G01*
X71132565Y-97187563D01*
G75*
G02*
X71132565Y-97081497I53033J53033D01*
G01*
G37*
G36*
G01*
X70779012Y-96727943D02*
X71715928Y-95791027D01*
G75*
G02*
X71821994Y-95791027I53033J-53033D01*
G01*
X71928060Y-95897093D01*
G75*
G02*
X71928060Y-96003159I-53033J-53033D01*
G01*
X70991144Y-96940075D01*
G75*
G02*
X70885078Y-96940075I-53033J53033D01*
G01*
X70779012Y-96834009D01*
G75*
G02*
X70779012Y-96727943I53033J53033D01*
G01*
G37*
G36*
G01*
X70425458Y-96374390D02*
X71362374Y-95437474D01*
G75*
G02*
X71468440Y-95437474I53033J-53033D01*
G01*
X71574506Y-95543540D01*
G75*
G02*
X71574506Y-95649606I-53033J-53033D01*
G01*
X70637590Y-96586522D01*
G75*
G02*
X70531524Y-96586522I-53033J53033D01*
G01*
X70425458Y-96480456D01*
G75*
G02*
X70425458Y-96374390I53033J53033D01*
G01*
G37*
G36*
G01*
X70071905Y-96020837D02*
X71008821Y-95083921D01*
G75*
G02*
X71114887Y-95083921I53033J-53033D01*
G01*
X71220953Y-95189987D01*
G75*
G02*
X71220953Y-95296053I-53033J-53033D01*
G01*
X70284037Y-96232969D01*
G75*
G02*
X70177971Y-96232969I-53033J53033D01*
G01*
X70071905Y-96126903D01*
G75*
G02*
X70071905Y-96020837I53033J53033D01*
G01*
G37*
G36*
G01*
X69718352Y-95667283D02*
X70655268Y-94730367D01*
G75*
G02*
X70761334Y-94730367I53033J-53033D01*
G01*
X70867400Y-94836433D01*
G75*
G02*
X70867400Y-94942499I-53033J-53033D01*
G01*
X69930484Y-95879415D01*
G75*
G02*
X69824418Y-95879415I-53033J53033D01*
G01*
X69718352Y-95773349D01*
G75*
G02*
X69718352Y-95667283I53033J53033D01*
G01*
G37*
G36*
G01*
X69364798Y-95313730D02*
X70301714Y-94376814D01*
G75*
G02*
X70407780Y-94376814I53033J-53033D01*
G01*
X70513846Y-94482880D01*
G75*
G02*
X70513846Y-94588946I-53033J-53033D01*
G01*
X69576930Y-95525862D01*
G75*
G02*
X69470864Y-95525862I-53033J53033D01*
G01*
X69364798Y-95419796D01*
G75*
G02*
X69364798Y-95313730I53033J53033D01*
G01*
G37*
G36*
G01*
X69011245Y-94960177D02*
X69948161Y-94023261D01*
G75*
G02*
X70054227Y-94023261I53033J-53033D01*
G01*
X70160293Y-94129327D01*
G75*
G02*
X70160293Y-94235393I-53033J-53033D01*
G01*
X69223377Y-95172309D01*
G75*
G02*
X69117311Y-95172309I-53033J53033D01*
G01*
X69011245Y-95066243D01*
G75*
G02*
X69011245Y-94960177I53033J53033D01*
G01*
G37*
G36*
G01*
X68657691Y-94606623D02*
X69594607Y-93669707D01*
G75*
G02*
X69700673Y-93669707I53033J-53033D01*
G01*
X69806739Y-93775773D01*
G75*
G02*
X69806739Y-93881839I-53033J-53033D01*
G01*
X68869823Y-94818755D01*
G75*
G02*
X68763757Y-94818755I-53033J53033D01*
G01*
X68657691Y-94712689D01*
G75*
G02*
X68657691Y-94606623I53033J53033D01*
G01*
G37*
G36*
G01*
X68304138Y-94253070D02*
X69241054Y-93316154D01*
G75*
G02*
X69347120Y-93316154I53033J-53033D01*
G01*
X69453186Y-93422220D01*
G75*
G02*
X69453186Y-93528286I-53033J-53033D01*
G01*
X68516270Y-94465202D01*
G75*
G02*
X68410204Y-94465202I-53033J53033D01*
G01*
X68304138Y-94359136D01*
G75*
G02*
X68304138Y-94253070I53033J53033D01*
G01*
G37*
G36*
G01*
X67950585Y-93899516D02*
X68887501Y-92962600D01*
G75*
G02*
X68993567Y-92962600I53033J-53033D01*
G01*
X69099633Y-93068666D01*
G75*
G02*
X69099633Y-93174732I-53033J-53033D01*
G01*
X68162717Y-94111648D01*
G75*
G02*
X68056651Y-94111648I-53033J53033D01*
G01*
X67950585Y-94005582D01*
G75*
G02*
X67950585Y-93899516I53033J53033D01*
G01*
G37*
G36*
G01*
X67597031Y-93545963D02*
X68533947Y-92609047D01*
G75*
G02*
X68640013Y-92609047I53033J-53033D01*
G01*
X68746079Y-92715113D01*
G75*
G02*
X68746079Y-92821179I-53033J-53033D01*
G01*
X67809163Y-93758095D01*
G75*
G02*
X67703097Y-93758095I-53033J53033D01*
G01*
X67597031Y-93652029D01*
G75*
G02*
X67597031Y-93545963I53033J53033D01*
G01*
G37*
G36*
G01*
X67243478Y-93192410D02*
X68180394Y-92255494D01*
G75*
G02*
X68286460Y-92255494I53033J-53033D01*
G01*
X68392526Y-92361560D01*
G75*
G02*
X68392526Y-92467626I-53033J-53033D01*
G01*
X67455610Y-93404542D01*
G75*
G02*
X67349544Y-93404542I-53033J53033D01*
G01*
X67243478Y-93298476D01*
G75*
G02*
X67243478Y-93192410I53033J53033D01*
G01*
G37*
G36*
G01*
X66889925Y-92838856D02*
X67826841Y-91901940D01*
G75*
G02*
X67932907Y-91901940I53033J-53033D01*
G01*
X68038973Y-92008006D01*
G75*
G02*
X68038973Y-92114072I-53033J-53033D01*
G01*
X67102057Y-93050988D01*
G75*
G02*
X66995991Y-93050988I-53033J53033D01*
G01*
X66889925Y-92944922D01*
G75*
G02*
X66889925Y-92838856I53033J53033D01*
G01*
G37*
G36*
G01*
X66536371Y-92485303D02*
X67473287Y-91548387D01*
G75*
G02*
X67579353Y-91548387I53033J-53033D01*
G01*
X67685419Y-91654453D01*
G75*
G02*
X67685419Y-91760519I-53033J-53033D01*
G01*
X66748503Y-92697435D01*
G75*
G02*
X66642437Y-92697435I-53033J53033D01*
G01*
X66536371Y-92591369D01*
G75*
G02*
X66536371Y-92485303I53033J53033D01*
G01*
G37*
G36*
G01*
X66182818Y-92131749D02*
X67119734Y-91194833D01*
G75*
G02*
X67225800Y-91194833I53033J-53033D01*
G01*
X67331866Y-91300899D01*
G75*
G02*
X67331866Y-91406965I-53033J-53033D01*
G01*
X66394950Y-92343881D01*
G75*
G02*
X66288884Y-92343881I-53033J53033D01*
G01*
X66182818Y-92237815D01*
G75*
G02*
X66182818Y-92131749I53033J53033D01*
G01*
G37*
%TD*%
D10*
%TO.C,Y1*%
G36*
X69928151Y-107312208D02*
G01*
X71625208Y-105615151D01*
X72968711Y-106958654D01*
X71271654Y-108655711D01*
X69928151Y-107312208D01*
G37*
G36*
X72827289Y-110211346D02*
G01*
X74524346Y-108514289D01*
X75867849Y-109857792D01*
X74170792Y-111554849D01*
X72827289Y-110211346D01*
G37*
%TD*%
%TO.C,C5*%
G36*
G01*
X70590787Y-109466371D02*
X70350371Y-109706787D01*
G75*
G02*
X70152381Y-109706787I-98995J98995D01*
G01*
X69954391Y-109508797D01*
G75*
G02*
X69954391Y-109310807I98995J98995D01*
G01*
X70194807Y-109070391D01*
G75*
G02*
X70392797Y-109070391I98995J-98995D01*
G01*
X70590787Y-109268381D01*
G75*
G02*
X70590787Y-109466371I-98995J-98995D01*
G01*
G37*
G36*
G01*
X71269609Y-110145193D02*
X71029193Y-110385609D01*
G75*
G02*
X70831203Y-110385609I-98995J98995D01*
G01*
X70633213Y-110187619D01*
G75*
G02*
X70633213Y-109989629I98995J98995D01*
G01*
X70873629Y-109749213D01*
G75*
G02*
X71071619Y-109749213I98995J-98995D01*
G01*
X71269609Y-109947203D01*
G75*
G02*
X71269609Y-110145193I-98995J-98995D01*
G01*
G37*
%TD*%
%TO.C,C1*%
G36*
G01*
X64600000Y-88775000D02*
X64940000Y-88775000D01*
G75*
G02*
X65080000Y-88915000I0J-140000D01*
G01*
X65080000Y-89195000D01*
G75*
G02*
X64940000Y-89335000I-140000J0D01*
G01*
X64600000Y-89335000D01*
G75*
G02*
X64460000Y-89195000I0J140000D01*
G01*
X64460000Y-88915000D01*
G75*
G02*
X64600000Y-88775000I140000J0D01*
G01*
G37*
G36*
G01*
X64600000Y-89735000D02*
X64940000Y-89735000D01*
G75*
G02*
X65080000Y-89875000I0J-140000D01*
G01*
X65080000Y-90155000D01*
G75*
G02*
X64940000Y-90295000I-140000J0D01*
G01*
X64600000Y-90295000D01*
G75*
G02*
X64460000Y-90155000I0J140000D01*
G01*
X64460000Y-89875000D01*
G75*
G02*
X64600000Y-89735000I140000J0D01*
G01*
G37*
%TD*%
%TO.C,C2*%
G36*
G01*
X59907807Y-104797609D02*
X59667391Y-104557193D01*
G75*
G02*
X59667391Y-104359203I98995J98995D01*
G01*
X59865381Y-104161213D01*
G75*
G02*
X60063371Y-104161213I98995J-98995D01*
G01*
X60303787Y-104401629D01*
G75*
G02*
X60303787Y-104599619I-98995J-98995D01*
G01*
X60105797Y-104797609D01*
G75*
G02*
X59907807Y-104797609I-98995J98995D01*
G01*
G37*
G36*
G01*
X60586629Y-104118787D02*
X60346213Y-103878371D01*
G75*
G02*
X60346213Y-103680381I98995J98995D01*
G01*
X60544203Y-103482391D01*
G75*
G02*
X60742193Y-103482391I98995J-98995D01*
G01*
X60982609Y-103722807D01*
G75*
G02*
X60982609Y-103920797I-98995J-98995D01*
G01*
X60784619Y-104118787D01*
G75*
G02*
X60586629Y-104118787I-98995J98995D01*
G01*
G37*
%TD*%
%TO.C,C3*%
G36*
G01*
X57523371Y-106701213D02*
X57763787Y-106941629D01*
G75*
G02*
X57763787Y-107139619I-98995J-98995D01*
G01*
X57565797Y-107337609D01*
G75*
G02*
X57367807Y-107337609I-98995J98995D01*
G01*
X57127391Y-107097193D01*
G75*
G02*
X57127391Y-106899203I98995J98995D01*
G01*
X57325381Y-106701213D01*
G75*
G02*
X57523371Y-106701213I98995J-98995D01*
G01*
G37*
G36*
G01*
X58202193Y-106022391D02*
X58442609Y-106262807D01*
G75*
G02*
X58442609Y-106460797I-98995J-98995D01*
G01*
X58244619Y-106658787D01*
G75*
G02*
X58046629Y-106658787I-98995J98995D01*
G01*
X57806213Y-106418371D01*
G75*
G02*
X57806213Y-106220381I98995J98995D01*
G01*
X58004203Y-106022391D01*
G75*
G02*
X58202193Y-106022391I98995J-98995D01*
G01*
G37*
%TD*%
%TO.C,C6*%
G36*
G01*
X65870000Y-88775000D02*
X66210000Y-88775000D01*
G75*
G02*
X66350000Y-88915000I0J-140000D01*
G01*
X66350000Y-89195000D01*
G75*
G02*
X66210000Y-89335000I-140000J0D01*
G01*
X65870000Y-89335000D01*
G75*
G02*
X65730000Y-89195000I0J140000D01*
G01*
X65730000Y-88915000D01*
G75*
G02*
X65870000Y-88775000I140000J0D01*
G01*
G37*
G36*
G01*
X65870000Y-89735000D02*
X66210000Y-89735000D01*
G75*
G02*
X66350000Y-89875000I0J-140000D01*
G01*
X66350000Y-90155000D01*
G75*
G02*
X66210000Y-90295000I-140000J0D01*
G01*
X65870000Y-90295000D01*
G75*
G02*
X65730000Y-90155000I0J140000D01*
G01*
X65730000Y-89875000D01*
G75*
G02*
X65870000Y-89735000I140000J0D01*
G01*
G37*
%TD*%
%TO.C,C7*%
G36*
G01*
X64269629Y-107166787D02*
X64029213Y-106926371D01*
G75*
G02*
X64029213Y-106728381I98995J98995D01*
G01*
X64227203Y-106530391D01*
G75*
G02*
X64425193Y-106530391I98995J-98995D01*
G01*
X64665609Y-106770807D01*
G75*
G02*
X64665609Y-106968797I-98995J-98995D01*
G01*
X64467619Y-107166787D01*
G75*
G02*
X64269629Y-107166787I-98995J98995D01*
G01*
G37*
G36*
G01*
X63590807Y-107845609D02*
X63350391Y-107605193D01*
G75*
G02*
X63350391Y-107407203I98995J98995D01*
G01*
X63548381Y-107209213D01*
G75*
G02*
X63746371Y-107209213I98995J-98995D01*
G01*
X63986787Y-107449629D01*
G75*
G02*
X63986787Y-107647619I-98995J-98995D01*
G01*
X63788797Y-107845609D01*
G75*
G02*
X63590807Y-107845609I-98995J98995D01*
G01*
G37*
%TD*%
%TO.C,C9*%
G36*
G01*
X58250000Y-65605000D02*
X58590000Y-65605000D01*
G75*
G02*
X58730000Y-65745000I0J-140000D01*
G01*
X58730000Y-66025000D01*
G75*
G02*
X58590000Y-66165000I-140000J0D01*
G01*
X58250000Y-66165000D01*
G75*
G02*
X58110000Y-66025000I0J140000D01*
G01*
X58110000Y-65745000D01*
G75*
G02*
X58250000Y-65605000I140000J0D01*
G01*
G37*
G36*
G01*
X58250000Y-64645000D02*
X58590000Y-64645000D01*
G75*
G02*
X58730000Y-64785000I0J-140000D01*
G01*
X58730000Y-65065000D01*
G75*
G02*
X58590000Y-65205000I-140000J0D01*
G01*
X58250000Y-65205000D01*
G75*
G02*
X58110000Y-65065000I0J140000D01*
G01*
X58110000Y-64785000D01*
G75*
G02*
X58250000Y-64645000I140000J0D01*
G01*
G37*
%TD*%
%TO.C,C10*%
G36*
G01*
X55635000Y-73365000D02*
X53585000Y-73365000D01*
G75*
G02*
X53335000Y-73115000I0J250000D01*
G01*
X53335000Y-71540000D01*
G75*
G02*
X53585000Y-71290000I250000J0D01*
G01*
X55635000Y-71290000D01*
G75*
G02*
X55885000Y-71540000I0J-250000D01*
G01*
X55885000Y-73115000D01*
G75*
G02*
X55635000Y-73365000I-250000J0D01*
G01*
G37*
G36*
G01*
X55635000Y-67140000D02*
X53585000Y-67140000D01*
G75*
G02*
X53335000Y-66890000I0J250000D01*
G01*
X53335000Y-65315000D01*
G75*
G02*
X53585000Y-65065000I250000J0D01*
G01*
X55635000Y-65065000D01*
G75*
G02*
X55885000Y-65315000I0J-250000D01*
G01*
X55885000Y-66890000D01*
G75*
G02*
X55635000Y-67140000I-250000J0D01*
G01*
G37*
%TD*%
%TO.C,C11*%
G36*
G01*
X58250000Y-63220000D02*
X58590000Y-63220000D01*
G75*
G02*
X58730000Y-63360000I0J-140000D01*
G01*
X58730000Y-63640000D01*
G75*
G02*
X58590000Y-63780000I-140000J0D01*
G01*
X58250000Y-63780000D01*
G75*
G02*
X58110000Y-63640000I0J140000D01*
G01*
X58110000Y-63360000D01*
G75*
G02*
X58250000Y-63220000I140000J0D01*
G01*
G37*
G36*
G01*
X58250000Y-62260000D02*
X58590000Y-62260000D01*
G75*
G02*
X58730000Y-62400000I0J-140000D01*
G01*
X58730000Y-62680000D01*
G75*
G02*
X58590000Y-62820000I-140000J0D01*
G01*
X58250000Y-62820000D01*
G75*
G02*
X58110000Y-62680000I0J140000D01*
G01*
X58110000Y-62400000D01*
G75*
G02*
X58250000Y-62260000I140000J0D01*
G01*
G37*
%TD*%
%TO.C,C12*%
G36*
G01*
X58250000Y-69725000D02*
X58590000Y-69725000D01*
G75*
G02*
X58730000Y-69865000I0J-140000D01*
G01*
X58730000Y-70145000D01*
G75*
G02*
X58590000Y-70285000I-140000J0D01*
G01*
X58250000Y-70285000D01*
G75*
G02*
X58110000Y-70145000I0J140000D01*
G01*
X58110000Y-69865000D01*
G75*
G02*
X58250000Y-69725000I140000J0D01*
G01*
G37*
G36*
G01*
X58250000Y-70685000D02*
X58590000Y-70685000D01*
G75*
G02*
X58730000Y-70825000I0J-140000D01*
G01*
X58730000Y-71105000D01*
G75*
G02*
X58590000Y-71245000I-140000J0D01*
G01*
X58250000Y-71245000D01*
G75*
G02*
X58110000Y-71105000I0J140000D01*
G01*
X58110000Y-70825000D01*
G75*
G02*
X58250000Y-70685000I140000J0D01*
G01*
G37*
%TD*%
%TO.C,C13*%
G36*
G01*
X77005000Y-63890000D02*
X77005000Y-61840000D01*
G75*
G02*
X77255000Y-61590000I250000J0D01*
G01*
X78830000Y-61590000D01*
G75*
G02*
X79080000Y-61840000I0J-250000D01*
G01*
X79080000Y-63890000D01*
G75*
G02*
X78830000Y-64140000I-250000J0D01*
G01*
X77255000Y-64140000D01*
G75*
G02*
X77005000Y-63890000I0J250000D01*
G01*
G37*
G36*
G01*
X70780000Y-63890000D02*
X70780000Y-61840000D01*
G75*
G02*
X71030000Y-61590000I250000J0D01*
G01*
X72605000Y-61590000D01*
G75*
G02*
X72855000Y-61840000I0J-250000D01*
G01*
X72855000Y-63890000D01*
G75*
G02*
X72605000Y-64140000I-250000J0D01*
G01*
X71030000Y-64140000D01*
G75*
G02*
X70780000Y-63890000I0J250000D01*
G01*
G37*
%TD*%
%TO.C,C14*%
G36*
G01*
X70780000Y-71510000D02*
X70780000Y-69460000D01*
G75*
G02*
X71030000Y-69210000I250000J0D01*
G01*
X72605000Y-69210000D01*
G75*
G02*
X72855000Y-69460000I0J-250000D01*
G01*
X72855000Y-71510000D01*
G75*
G02*
X72605000Y-71760000I-250000J0D01*
G01*
X71030000Y-71760000D01*
G75*
G02*
X70780000Y-71510000I0J250000D01*
G01*
G37*
G36*
G01*
X77005000Y-71510000D02*
X77005000Y-69460000D01*
G75*
G02*
X77255000Y-69210000I250000J0D01*
G01*
X78830000Y-69210000D01*
G75*
G02*
X79080000Y-69460000I0J-250000D01*
G01*
X79080000Y-71510000D01*
G75*
G02*
X78830000Y-71760000I-250000J0D01*
G01*
X77255000Y-71760000D01*
G75*
G02*
X77005000Y-71510000I0J250000D01*
G01*
G37*
%TD*%
%TO.C,C15*%
G36*
G01*
X81155000Y-75227000D02*
X81155000Y-74887000D01*
G75*
G02*
X81295000Y-74747000I140000J0D01*
G01*
X81575000Y-74747000D01*
G75*
G02*
X81715000Y-74887000I0J-140000D01*
G01*
X81715000Y-75227000D01*
G75*
G02*
X81575000Y-75367000I-140000J0D01*
G01*
X81295000Y-75367000D01*
G75*
G02*
X81155000Y-75227000I0J140000D01*
G01*
G37*
G36*
G01*
X82115000Y-75227000D02*
X82115000Y-74887000D01*
G75*
G02*
X82255000Y-74747000I140000J0D01*
G01*
X82535000Y-74747000D01*
G75*
G02*
X82675000Y-74887000I0J-140000D01*
G01*
X82675000Y-75227000D01*
G75*
G02*
X82535000Y-75367000I-140000J0D01*
G01*
X82255000Y-75367000D01*
G75*
G02*
X82115000Y-75227000I0J140000D01*
G01*
G37*
%TD*%
%TO.C,C16*%
G36*
G01*
X79840000Y-76953000D02*
X79840000Y-79003000D01*
G75*
G02*
X79590000Y-79253000I-250000J0D01*
G01*
X78015000Y-79253000D01*
G75*
G02*
X77765000Y-79003000I0J250000D01*
G01*
X77765000Y-76953000D01*
G75*
G02*
X78015000Y-76703000I250000J0D01*
G01*
X79590000Y-76703000D01*
G75*
G02*
X79840000Y-76953000I0J-250000D01*
G01*
G37*
G36*
G01*
X86065000Y-76953000D02*
X86065000Y-79003000D01*
G75*
G02*
X85815000Y-79253000I-250000J0D01*
G01*
X84240000Y-79253000D01*
G75*
G02*
X83990000Y-79003000I0J250000D01*
G01*
X83990000Y-76953000D01*
G75*
G02*
X84240000Y-76703000I250000J0D01*
G01*
X85815000Y-76703000D01*
G75*
G02*
X86065000Y-76953000I0J-250000D01*
G01*
G37*
%TD*%
%TO.C,D1*%
G36*
G01*
X77625000Y-66218750D02*
X77625000Y-67131250D01*
G75*
G02*
X77381250Y-67375000I-243750J0D01*
G01*
X76893750Y-67375000D01*
G75*
G02*
X76650000Y-67131250I0J243750D01*
G01*
X76650000Y-66218750D01*
G75*
G02*
X76893750Y-65975000I243750J0D01*
G01*
X77381250Y-65975000D01*
G75*
G02*
X77625000Y-66218750I0J-243750D01*
G01*
G37*
G36*
G01*
X75750000Y-66218750D02*
X75750000Y-67131250D01*
G75*
G02*
X75506250Y-67375000I-243750J0D01*
G01*
X75018750Y-67375000D01*
G75*
G02*
X74775000Y-67131250I0J243750D01*
G01*
X74775000Y-66218750D01*
G75*
G02*
X75018750Y-65975000I243750J0D01*
G01*
X75506250Y-65975000D01*
G75*
G02*
X75750000Y-66218750I0J-243750D01*
G01*
G37*
%TD*%
%TO.C,D2*%
G36*
G01*
X77625000Y-73838750D02*
X77625000Y-74751250D01*
G75*
G02*
X77381250Y-74995000I-243750J0D01*
G01*
X76893750Y-74995000D01*
G75*
G02*
X76650000Y-74751250I0J243750D01*
G01*
X76650000Y-73838750D01*
G75*
G02*
X76893750Y-73595000I243750J0D01*
G01*
X77381250Y-73595000D01*
G75*
G02*
X77625000Y-73838750I0J-243750D01*
G01*
G37*
G36*
G01*
X75750000Y-73838750D02*
X75750000Y-74751250D01*
G75*
G02*
X75506250Y-74995000I-243750J0D01*
G01*
X75018750Y-74995000D01*
G75*
G02*
X74775000Y-74751250I0J243750D01*
G01*
X74775000Y-73838750D01*
G75*
G02*
X75018750Y-73595000I243750J0D01*
G01*
X75506250Y-73595000D01*
G75*
G02*
X75750000Y-73838750I0J-243750D01*
G01*
G37*
%TD*%
%TO.C,D3*%
G36*
G01*
X82570500Y-82244250D02*
X82570500Y-81331750D01*
G75*
G02*
X82814250Y-81088000I243750J0D01*
G01*
X83301750Y-81088000D01*
G75*
G02*
X83545500Y-81331750I0J-243750D01*
G01*
X83545500Y-82244250D01*
G75*
G02*
X83301750Y-82488000I-243750J0D01*
G01*
X82814250Y-82488000D01*
G75*
G02*
X82570500Y-82244250I0J243750D01*
G01*
G37*
G36*
G01*
X80695500Y-82244250D02*
X80695500Y-81331750D01*
G75*
G02*
X80939250Y-81088000I243750J0D01*
G01*
X81426750Y-81088000D01*
G75*
G02*
X81670500Y-81331750I0J-243750D01*
G01*
X81670500Y-82244250D01*
G75*
G02*
X81426750Y-82488000I-243750J0D01*
G01*
X80939250Y-82488000D01*
G75*
G02*
X80695500Y-82244250I0J243750D01*
G01*
G37*
%TD*%
D11*
%TO.C,J2*%
X46355000Y-91995001D03*
D12*
X46355000Y-94535001D03*
X46355000Y-97075001D03*
X46355000Y-99615001D03*
X46355000Y-102155001D03*
X46355000Y-104695001D03*
X46355000Y-107235001D03*
X46355000Y-109775001D03*
X46355000Y-112315001D03*
X46355000Y-114855001D03*
X46355000Y-117395001D03*
X46355000Y-119935001D03*
X46355000Y-122475001D03*
X46355000Y-125015001D03*
X46355000Y-127555001D03*
%TD*%
%TO.C,J4*%
X48895000Y-127555001D03*
X48895000Y-125015001D03*
X48895000Y-122475001D03*
X48895000Y-119935001D03*
X48895000Y-117395001D03*
X48895000Y-114855001D03*
X48895000Y-112315001D03*
X48895000Y-109775001D03*
X48895000Y-107235001D03*
X48895000Y-104695001D03*
X48895000Y-102155001D03*
X48895000Y-99615001D03*
X48895000Y-97075001D03*
X48895000Y-94535001D03*
D11*
X48895000Y-91995001D03*
%TD*%
D12*
%TO.C,J5*%
X81915000Y-127635000D03*
X81915000Y-125095000D03*
X81915000Y-122555000D03*
X81915000Y-120015000D03*
X81915000Y-117475000D03*
X81915000Y-114935000D03*
X81915000Y-112395000D03*
X81915000Y-109855000D03*
X81915000Y-107315000D03*
X81915000Y-104775000D03*
X81915000Y-102235000D03*
X81915000Y-99695000D03*
X81915000Y-97155000D03*
X81915000Y-94615000D03*
D11*
X81915000Y-92075000D03*
%TD*%
%TO.C,J3*%
X84455000Y-92075000D03*
D12*
X84455000Y-94615000D03*
X84455000Y-97155000D03*
X84455000Y-99695000D03*
X84455000Y-102235000D03*
X84455000Y-104775000D03*
X84455000Y-107315000D03*
X84455000Y-109855000D03*
X84455000Y-112395000D03*
X84455000Y-114935000D03*
X84455000Y-117475000D03*
X84455000Y-120015000D03*
X84455000Y-122555000D03*
X84455000Y-125095000D03*
X84455000Y-127635000D03*
%TD*%
%TO.C,R3*%
G36*
G01*
X65010000Y-124137000D02*
X65010000Y-123767000D01*
G75*
G02*
X65145000Y-123632000I135000J0D01*
G01*
X65415000Y-123632000D01*
G75*
G02*
X65550000Y-123767000I0J-135000D01*
G01*
X65550000Y-124137000D01*
G75*
G02*
X65415000Y-124272000I-135000J0D01*
G01*
X65145000Y-124272000D01*
G75*
G02*
X65010000Y-124137000I0J135000D01*
G01*
G37*
G36*
G01*
X63990000Y-124137000D02*
X63990000Y-123767000D01*
G75*
G02*
X64125000Y-123632000I135000J0D01*
G01*
X64395000Y-123632000D01*
G75*
G02*
X64530000Y-123767000I0J-135000D01*
G01*
X64530000Y-124137000D01*
G75*
G02*
X64395000Y-124272000I-135000J0D01*
G01*
X64125000Y-124272000D01*
G75*
G02*
X63990000Y-124137000I0J135000D01*
G01*
G37*
%TD*%
%TO.C,R4*%
G36*
G01*
X71610000Y-66225000D02*
X71610000Y-65855000D01*
G75*
G02*
X71745000Y-65720000I135000J0D01*
G01*
X72015000Y-65720000D01*
G75*
G02*
X72150000Y-65855000I0J-135000D01*
G01*
X72150000Y-66225000D01*
G75*
G02*
X72015000Y-66360000I-135000J0D01*
G01*
X71745000Y-66360000D01*
G75*
G02*
X71610000Y-66225000I0J135000D01*
G01*
G37*
G36*
G01*
X72630000Y-66225000D02*
X72630000Y-65855000D01*
G75*
G02*
X72765000Y-65720000I135000J0D01*
G01*
X73035000Y-65720000D01*
G75*
G02*
X73170000Y-65855000I0J-135000D01*
G01*
X73170000Y-66225000D01*
G75*
G02*
X73035000Y-66360000I-135000J0D01*
G01*
X72765000Y-66360000D01*
G75*
G02*
X72630000Y-66225000I0J135000D01*
G01*
G37*
%TD*%
%TO.C,R5*%
G36*
G01*
X71610000Y-73845000D02*
X71610000Y-73475000D01*
G75*
G02*
X71745000Y-73340000I135000J0D01*
G01*
X72015000Y-73340000D01*
G75*
G02*
X72150000Y-73475000I0J-135000D01*
G01*
X72150000Y-73845000D01*
G75*
G02*
X72015000Y-73980000I-135000J0D01*
G01*
X71745000Y-73980000D01*
G75*
G02*
X71610000Y-73845000I0J135000D01*
G01*
G37*
G36*
G01*
X72630000Y-73845000D02*
X72630000Y-73475000D01*
G75*
G02*
X72765000Y-73340000I135000J0D01*
G01*
X73035000Y-73340000D01*
G75*
G02*
X73170000Y-73475000I0J-135000D01*
G01*
X73170000Y-73845000D01*
G75*
G02*
X73035000Y-73980000I-135000J0D01*
G01*
X72765000Y-73980000D01*
G75*
G02*
X72630000Y-73845000I0J135000D01*
G01*
G37*
%TD*%
%TO.C,R6*%
G36*
G01*
X84723000Y-80968000D02*
X84723000Y-81338000D01*
G75*
G02*
X84588000Y-81473000I-135000J0D01*
G01*
X84318000Y-81473000D01*
G75*
G02*
X84183000Y-81338000I0J135000D01*
G01*
X84183000Y-80968000D01*
G75*
G02*
X84318000Y-80833000I135000J0D01*
G01*
X84588000Y-80833000D01*
G75*
G02*
X84723000Y-80968000I0J-135000D01*
G01*
G37*
G36*
G01*
X85743000Y-80968000D02*
X85743000Y-81338000D01*
G75*
G02*
X85608000Y-81473000I-135000J0D01*
G01*
X85338000Y-81473000D01*
G75*
G02*
X85203000Y-81338000I0J135000D01*
G01*
X85203000Y-80968000D01*
G75*
G02*
X85338000Y-80833000I135000J0D01*
G01*
X85608000Y-80833000D01*
G75*
G02*
X85743000Y-80968000I0J-135000D01*
G01*
G37*
%TD*%
D13*
%TO.C,U3*%
X60375000Y-69475000D03*
X60375000Y-71755000D03*
X60375000Y-74035000D03*
D14*
X66675000Y-71755000D03*
%TD*%
%TO.C,C4*%
G36*
G01*
X74893807Y-112163609D02*
X74653391Y-111923193D01*
G75*
G02*
X74653391Y-111725203I98995J98995D01*
G01*
X74851381Y-111527213D01*
G75*
G02*
X75049371Y-111527213I98995J-98995D01*
G01*
X75289787Y-111767629D01*
G75*
G02*
X75289787Y-111965619I-98995J-98995D01*
G01*
X75091797Y-112163609D01*
G75*
G02*
X74893807Y-112163609I-98995J98995D01*
G01*
G37*
G36*
G01*
X75572629Y-111484787D02*
X75332213Y-111244371D01*
G75*
G02*
X75332213Y-111046381I98995J98995D01*
G01*
X75530203Y-110848391D01*
G75*
G02*
X75728193Y-110848391I98995J-98995D01*
G01*
X75968609Y-111088807D01*
G75*
G02*
X75968609Y-111286797I-98995J-98995D01*
G01*
X75770619Y-111484787D01*
G75*
G02*
X75572629Y-111484787I-98995J98995D01*
G01*
G37*
%TD*%
%TO.C,C17*%
G36*
G01*
X62665000Y-81110000D02*
X62665000Y-81450000D01*
G75*
G02*
X62525000Y-81590000I-140000J0D01*
G01*
X62245000Y-81590000D01*
G75*
G02*
X62105000Y-81450000I0J140000D01*
G01*
X62105000Y-81110000D01*
G75*
G02*
X62245000Y-80970000I140000J0D01*
G01*
X62525000Y-80970000D01*
G75*
G02*
X62665000Y-81110000I0J-140000D01*
G01*
G37*
G36*
G01*
X63625000Y-81110000D02*
X63625000Y-81450000D01*
G75*
G02*
X63485000Y-81590000I-140000J0D01*
G01*
X63205000Y-81590000D01*
G75*
G02*
X63065000Y-81450000I0J140000D01*
G01*
X63065000Y-81110000D01*
G75*
G02*
X63205000Y-80970000I140000J0D01*
G01*
X63485000Y-80970000D01*
G75*
G02*
X63625000Y-81110000I0J-140000D01*
G01*
G37*
%TD*%
%TO.C,C18*%
G36*
G01*
X56683000Y-79130000D02*
X56683000Y-77080000D01*
G75*
G02*
X56933000Y-76830000I250000J0D01*
G01*
X58508000Y-76830000D01*
G75*
G02*
X58758000Y-77080000I0J-250000D01*
G01*
X58758000Y-79130000D01*
G75*
G02*
X58508000Y-79380000I-250000J0D01*
G01*
X56933000Y-79380000D01*
G75*
G02*
X56683000Y-79130000I0J250000D01*
G01*
G37*
G36*
G01*
X62908000Y-79130000D02*
X62908000Y-77080000D01*
G75*
G02*
X63158000Y-76830000I250000J0D01*
G01*
X64733000Y-76830000D01*
G75*
G02*
X64983000Y-77080000I0J-250000D01*
G01*
X64983000Y-79130000D01*
G75*
G02*
X64733000Y-79380000I-250000J0D01*
G01*
X63158000Y-79380000D01*
G75*
G02*
X62908000Y-79130000I0J250000D01*
G01*
G37*
%TD*%
%TO.C,C19*%
G36*
G01*
X56599000Y-81790000D02*
X56939000Y-81790000D01*
G75*
G02*
X57079000Y-81930000I0J-140000D01*
G01*
X57079000Y-82210000D01*
G75*
G02*
X56939000Y-82350000I-140000J0D01*
G01*
X56599000Y-82350000D01*
G75*
G02*
X56459000Y-82210000I0J140000D01*
G01*
X56459000Y-81930000D01*
G75*
G02*
X56599000Y-81790000I140000J0D01*
G01*
G37*
G36*
G01*
X56599000Y-82750000D02*
X56939000Y-82750000D01*
G75*
G02*
X57079000Y-82890000I0J-140000D01*
G01*
X57079000Y-83170000D01*
G75*
G02*
X56939000Y-83310000I-140000J0D01*
G01*
X56599000Y-83310000D01*
G75*
G02*
X56459000Y-83170000I0J140000D01*
G01*
X56459000Y-82890000D01*
G75*
G02*
X56599000Y-82750000I140000J0D01*
G01*
G37*
%TD*%
%TO.C,C20*%
G36*
G01*
X56939000Y-84255000D02*
X56599000Y-84255000D01*
G75*
G02*
X56459000Y-84115000I0J140000D01*
G01*
X56459000Y-83835000D01*
G75*
G02*
X56599000Y-83695000I140000J0D01*
G01*
X56939000Y-83695000D01*
G75*
G02*
X57079000Y-83835000I0J-140000D01*
G01*
X57079000Y-84115000D01*
G75*
G02*
X56939000Y-84255000I-140000J0D01*
G01*
G37*
G36*
G01*
X56939000Y-85215000D02*
X56599000Y-85215000D01*
G75*
G02*
X56459000Y-85075000I0J140000D01*
G01*
X56459000Y-84795000D01*
G75*
G02*
X56599000Y-84655000I140000J0D01*
G01*
X56939000Y-84655000D01*
G75*
G02*
X57079000Y-84795000I0J-140000D01*
G01*
X57079000Y-85075000D01*
G75*
G02*
X56939000Y-85215000I-140000J0D01*
G01*
G37*
%TD*%
%TO.C,C21*%
G36*
G01*
X62781000Y-88898000D02*
X62441000Y-88898000D01*
G75*
G02*
X62301000Y-88758000I0J140000D01*
G01*
X62301000Y-88478000D01*
G75*
G02*
X62441000Y-88338000I140000J0D01*
G01*
X62781000Y-88338000D01*
G75*
G02*
X62921000Y-88478000I0J-140000D01*
G01*
X62921000Y-88758000D01*
G75*
G02*
X62781000Y-88898000I-140000J0D01*
G01*
G37*
G36*
G01*
X62781000Y-87938000D02*
X62441000Y-87938000D01*
G75*
G02*
X62301000Y-87798000I0J140000D01*
G01*
X62301000Y-87518000D01*
G75*
G02*
X62441000Y-87378000I140000J0D01*
G01*
X62781000Y-87378000D01*
G75*
G02*
X62921000Y-87518000I0J-140000D01*
G01*
X62921000Y-87798000D01*
G75*
G02*
X62781000Y-87938000I-140000J0D01*
G01*
G37*
%TD*%
D11*
%TO.C,J1*%
X63500000Y-127635000D03*
D12*
X66040000Y-127635000D03*
X68580000Y-127635000D03*
X71120000Y-127635000D03*
X73660000Y-127635000D03*
X76200000Y-127635000D03*
%TD*%
D15*
%TO.C,J6*%
X48006000Y-66675000D03*
D16*
X48006000Y-71755000D03*
%TD*%
D11*
%TO.C,J7*%
X81200001Y-62570001D03*
D12*
X81200001Y-65110001D03*
X81200001Y-67650001D03*
X81200001Y-70190001D03*
X81200001Y-72730001D03*
%TD*%
%TO.C,J8*%
X85090000Y-72730001D03*
X85090000Y-70190001D03*
X85090000Y-67650001D03*
X85090000Y-65110001D03*
D11*
X85090000Y-62570001D03*
%TD*%
%TO.C,JP2*%
X75565000Y-84455000D03*
D12*
X75565000Y-86995000D03*
%TD*%
%TO.C,JP3*%
X75565000Y-80645000D03*
D11*
X75565000Y-78105000D03*
%TD*%
D17*
%TO.C,Q1*%
X69072000Y-85090000D03*
X67072000Y-86040000D03*
X67072000Y-84140000D03*
%TD*%
%TO.C,Q2*%
X67072000Y-78740000D03*
X69072000Y-77790000D03*
X69072000Y-79690000D03*
%TD*%
%TO.C,Q3*%
X70501000Y-84140000D03*
X70501000Y-86040000D03*
X72501000Y-85090000D03*
%TD*%
%TO.C,Q4*%
X72501000Y-79690000D03*
X72501000Y-77790000D03*
X70501000Y-78740000D03*
%TD*%
%TO.C,R7*%
G36*
G01*
X58535000Y-83127000D02*
X58535000Y-83497000D01*
G75*
G02*
X58400000Y-83632000I-135000J0D01*
G01*
X58130000Y-83632000D01*
G75*
G02*
X57995000Y-83497000I0J135000D01*
G01*
X57995000Y-83127000D01*
G75*
G02*
X58130000Y-82992000I135000J0D01*
G01*
X58400000Y-82992000D01*
G75*
G02*
X58535000Y-83127000I0J-135000D01*
G01*
G37*
G36*
G01*
X59555000Y-83127000D02*
X59555000Y-83497000D01*
G75*
G02*
X59420000Y-83632000I-135000J0D01*
G01*
X59150000Y-83632000D01*
G75*
G02*
X59015000Y-83497000I0J135000D01*
G01*
X59015000Y-83127000D01*
G75*
G02*
X59150000Y-82992000I135000J0D01*
G01*
X59420000Y-82992000D01*
G75*
G02*
X59555000Y-83127000I0J-135000D01*
G01*
G37*
%TD*%
%TO.C,R8*%
G36*
G01*
X57995000Y-84767000D02*
X57995000Y-84397000D01*
G75*
G02*
X58130000Y-84262000I135000J0D01*
G01*
X58400000Y-84262000D01*
G75*
G02*
X58535000Y-84397000I0J-135000D01*
G01*
X58535000Y-84767000D01*
G75*
G02*
X58400000Y-84902000I-135000J0D01*
G01*
X58130000Y-84902000D01*
G75*
G02*
X57995000Y-84767000I0J135000D01*
G01*
G37*
G36*
G01*
X59015000Y-84767000D02*
X59015000Y-84397000D01*
G75*
G02*
X59150000Y-84262000I135000J0D01*
G01*
X59420000Y-84262000D01*
G75*
G02*
X59555000Y-84397000I0J-135000D01*
G01*
X59555000Y-84767000D01*
G75*
G02*
X59420000Y-84902000I-135000J0D01*
G01*
X59150000Y-84902000D01*
G75*
G02*
X59015000Y-84767000I0J135000D01*
G01*
G37*
%TD*%
%TO.C,R9*%
G36*
G01*
X71686000Y-82695000D02*
X71316000Y-82695000D01*
G75*
G02*
X71181000Y-82560000I0J135000D01*
G01*
X71181000Y-82290000D01*
G75*
G02*
X71316000Y-82155000I135000J0D01*
G01*
X71686000Y-82155000D01*
G75*
G02*
X71821000Y-82290000I0J-135000D01*
G01*
X71821000Y-82560000D01*
G75*
G02*
X71686000Y-82695000I-135000J0D01*
G01*
G37*
G36*
G01*
X71686000Y-81675000D02*
X71316000Y-81675000D01*
G75*
G02*
X71181000Y-81540000I0J135000D01*
G01*
X71181000Y-81270000D01*
G75*
G02*
X71316000Y-81135000I135000J0D01*
G01*
X71686000Y-81135000D01*
G75*
G02*
X71821000Y-81270000I0J-135000D01*
G01*
X71821000Y-81540000D01*
G75*
G02*
X71686000Y-81675000I-135000J0D01*
G01*
G37*
%TD*%
%TO.C,R10*%
G36*
G01*
X66617000Y-81135000D02*
X66987000Y-81135000D01*
G75*
G02*
X67122000Y-81270000I0J-135000D01*
G01*
X67122000Y-81540000D01*
G75*
G02*
X66987000Y-81675000I-135000J0D01*
G01*
X66617000Y-81675000D01*
G75*
G02*
X66482000Y-81540000I0J135000D01*
G01*
X66482000Y-81270000D01*
G75*
G02*
X66617000Y-81135000I135000J0D01*
G01*
G37*
G36*
G01*
X66617000Y-82155000D02*
X66987000Y-82155000D01*
G75*
G02*
X67122000Y-82290000I0J-135000D01*
G01*
X67122000Y-82560000D01*
G75*
G02*
X66987000Y-82695000I-135000J0D01*
G01*
X66617000Y-82695000D01*
G75*
G02*
X66482000Y-82560000I0J135000D01*
G01*
X66482000Y-82290000D01*
G75*
G02*
X66617000Y-82155000I135000J0D01*
G01*
G37*
%TD*%
%TO.C,R11*%
G36*
G01*
X72956000Y-81675000D02*
X72586000Y-81675000D01*
G75*
G02*
X72451000Y-81540000I0J135000D01*
G01*
X72451000Y-81270000D01*
G75*
G02*
X72586000Y-81135000I135000J0D01*
G01*
X72956000Y-81135000D01*
G75*
G02*
X73091000Y-81270000I0J-135000D01*
G01*
X73091000Y-81540000D01*
G75*
G02*
X72956000Y-81675000I-135000J0D01*
G01*
G37*
G36*
G01*
X72956000Y-82695000D02*
X72586000Y-82695000D01*
G75*
G02*
X72451000Y-82560000I0J135000D01*
G01*
X72451000Y-82290000D01*
G75*
G02*
X72586000Y-82155000I135000J0D01*
G01*
X72956000Y-82155000D01*
G75*
G02*
X73091000Y-82290000I0J-135000D01*
G01*
X73091000Y-82560000D01*
G75*
G02*
X72956000Y-82695000I-135000J0D01*
G01*
G37*
%TD*%
%TO.C,R12*%
G36*
G01*
X67887000Y-82155000D02*
X68257000Y-82155000D01*
G75*
G02*
X68392000Y-82290000I0J-135000D01*
G01*
X68392000Y-82560000D01*
G75*
G02*
X68257000Y-82695000I-135000J0D01*
G01*
X67887000Y-82695000D01*
G75*
G02*
X67752000Y-82560000I0J135000D01*
G01*
X67752000Y-82290000D01*
G75*
G02*
X67887000Y-82155000I135000J0D01*
G01*
G37*
G36*
G01*
X67887000Y-81135000D02*
X68257000Y-81135000D01*
G75*
G02*
X68392000Y-81270000I0J-135000D01*
G01*
X68392000Y-81540000D01*
G75*
G02*
X68257000Y-81675000I-135000J0D01*
G01*
X67887000Y-81675000D01*
G75*
G02*
X67752000Y-81540000I0J135000D01*
G01*
X67752000Y-81270000D01*
G75*
G02*
X67887000Y-81135000I135000J0D01*
G01*
G37*
%TD*%
%TO.C,U4*%
G36*
G01*
X64527000Y-82080000D02*
X64677000Y-82080000D01*
G75*
G02*
X64752000Y-82155000I0J-75000D01*
G01*
X64752000Y-82855000D01*
G75*
G02*
X64677000Y-82930000I-75000J0D01*
G01*
X64527000Y-82930000D01*
G75*
G02*
X64452000Y-82855000I0J75000D01*
G01*
X64452000Y-82155000D01*
G75*
G02*
X64527000Y-82080000I75000J0D01*
G01*
G37*
G36*
G01*
X63877000Y-82080000D02*
X64027000Y-82080000D01*
G75*
G02*
X64102000Y-82155000I0J-75000D01*
G01*
X64102000Y-82855000D01*
G75*
G02*
X64027000Y-82930000I-75000J0D01*
G01*
X63877000Y-82930000D01*
G75*
G02*
X63802000Y-82855000I0J75000D01*
G01*
X63802000Y-82155000D01*
G75*
G02*
X63877000Y-82080000I75000J0D01*
G01*
G37*
G36*
G01*
X63227000Y-82080000D02*
X63377000Y-82080000D01*
G75*
G02*
X63452000Y-82155000I0J-75000D01*
G01*
X63452000Y-82855000D01*
G75*
G02*
X63377000Y-82930000I-75000J0D01*
G01*
X63227000Y-82930000D01*
G75*
G02*
X63152000Y-82855000I0J75000D01*
G01*
X63152000Y-82155000D01*
G75*
G02*
X63227000Y-82080000I75000J0D01*
G01*
G37*
G36*
G01*
X62577000Y-82080000D02*
X62727000Y-82080000D01*
G75*
G02*
X62802000Y-82155000I0J-75000D01*
G01*
X62802000Y-82855000D01*
G75*
G02*
X62727000Y-82930000I-75000J0D01*
G01*
X62577000Y-82930000D01*
G75*
G02*
X62502000Y-82855000I0J75000D01*
G01*
X62502000Y-82155000D01*
G75*
G02*
X62577000Y-82080000I75000J0D01*
G01*
G37*
G36*
G01*
X61327000Y-83330000D02*
X62027000Y-83330000D01*
G75*
G02*
X62102000Y-83405000I0J-75000D01*
G01*
X62102000Y-83555000D01*
G75*
G02*
X62027000Y-83630000I-75000J0D01*
G01*
X61327000Y-83630000D01*
G75*
G02*
X61252000Y-83555000I0J75000D01*
G01*
X61252000Y-83405000D01*
G75*
G02*
X61327000Y-83330000I75000J0D01*
G01*
G37*
G36*
G01*
X61327000Y-83980000D02*
X62027000Y-83980000D01*
G75*
G02*
X62102000Y-84055000I0J-75000D01*
G01*
X62102000Y-84205000D01*
G75*
G02*
X62027000Y-84280000I-75000J0D01*
G01*
X61327000Y-84280000D01*
G75*
G02*
X61252000Y-84205000I0J75000D01*
G01*
X61252000Y-84055000D01*
G75*
G02*
X61327000Y-83980000I75000J0D01*
G01*
G37*
G36*
G01*
X61327000Y-84630000D02*
X62027000Y-84630000D01*
G75*
G02*
X62102000Y-84705000I0J-75000D01*
G01*
X62102000Y-84855000D01*
G75*
G02*
X62027000Y-84930000I-75000J0D01*
G01*
X61327000Y-84930000D01*
G75*
G02*
X61252000Y-84855000I0J75000D01*
G01*
X61252000Y-84705000D01*
G75*
G02*
X61327000Y-84630000I75000J0D01*
G01*
G37*
G36*
G01*
X61327000Y-85280000D02*
X62027000Y-85280000D01*
G75*
G02*
X62102000Y-85355000I0J-75000D01*
G01*
X62102000Y-85505000D01*
G75*
G02*
X62027000Y-85580000I-75000J0D01*
G01*
X61327000Y-85580000D01*
G75*
G02*
X61252000Y-85505000I0J75000D01*
G01*
X61252000Y-85355000D01*
G75*
G02*
X61327000Y-85280000I75000J0D01*
G01*
G37*
G36*
G01*
X62577000Y-85980000D02*
X62727000Y-85980000D01*
G75*
G02*
X62802000Y-86055000I0J-75000D01*
G01*
X62802000Y-86755000D01*
G75*
G02*
X62727000Y-86830000I-75000J0D01*
G01*
X62577000Y-86830000D01*
G75*
G02*
X62502000Y-86755000I0J75000D01*
G01*
X62502000Y-86055000D01*
G75*
G02*
X62577000Y-85980000I75000J0D01*
G01*
G37*
G36*
G01*
X63227000Y-85980000D02*
X63377000Y-85980000D01*
G75*
G02*
X63452000Y-86055000I0J-75000D01*
G01*
X63452000Y-86755000D01*
G75*
G02*
X63377000Y-86830000I-75000J0D01*
G01*
X63227000Y-86830000D01*
G75*
G02*
X63152000Y-86755000I0J75000D01*
G01*
X63152000Y-86055000D01*
G75*
G02*
X63227000Y-85980000I75000J0D01*
G01*
G37*
G36*
G01*
X63877000Y-85980000D02*
X64027000Y-85980000D01*
G75*
G02*
X64102000Y-86055000I0J-75000D01*
G01*
X64102000Y-86755000D01*
G75*
G02*
X64027000Y-86830000I-75000J0D01*
G01*
X63877000Y-86830000D01*
G75*
G02*
X63802000Y-86755000I0J75000D01*
G01*
X63802000Y-86055000D01*
G75*
G02*
X63877000Y-85980000I75000J0D01*
G01*
G37*
G36*
G01*
X64527000Y-85980000D02*
X64677000Y-85980000D01*
G75*
G02*
X64752000Y-86055000I0J-75000D01*
G01*
X64752000Y-86755000D01*
G75*
G02*
X64677000Y-86830000I-75000J0D01*
G01*
X64527000Y-86830000D01*
G75*
G02*
X64452000Y-86755000I0J75000D01*
G01*
X64452000Y-86055000D01*
G75*
G02*
X64527000Y-85980000I75000J0D01*
G01*
G37*
G36*
G01*
X65227000Y-85280000D02*
X65927000Y-85280000D01*
G75*
G02*
X66002000Y-85355000I0J-75000D01*
G01*
X66002000Y-85505000D01*
G75*
G02*
X65927000Y-85580000I-75000J0D01*
G01*
X65227000Y-85580000D01*
G75*
G02*
X65152000Y-85505000I0J75000D01*
G01*
X65152000Y-85355000D01*
G75*
G02*
X65227000Y-85280000I75000J0D01*
G01*
G37*
G36*
G01*
X65227000Y-84630000D02*
X65927000Y-84630000D01*
G75*
G02*
X66002000Y-84705000I0J-75000D01*
G01*
X66002000Y-84855000D01*
G75*
G02*
X65927000Y-84930000I-75000J0D01*
G01*
X65227000Y-84930000D01*
G75*
G02*
X65152000Y-84855000I0J75000D01*
G01*
X65152000Y-84705000D01*
G75*
G02*
X65227000Y-84630000I75000J0D01*
G01*
G37*
G36*
G01*
X65227000Y-83980000D02*
X65927000Y-83980000D01*
G75*
G02*
X66002000Y-84055000I0J-75000D01*
G01*
X66002000Y-84205000D01*
G75*
G02*
X65927000Y-84280000I-75000J0D01*
G01*
X65227000Y-84280000D01*
G75*
G02*
X65152000Y-84205000I0J75000D01*
G01*
X65152000Y-84055000D01*
G75*
G02*
X65227000Y-83980000I75000J0D01*
G01*
G37*
G36*
G01*
X65227000Y-83330000D02*
X65927000Y-83330000D01*
G75*
G02*
X66002000Y-83405000I0J-75000D01*
G01*
X66002000Y-83555000D01*
G75*
G02*
X65927000Y-83630000I-75000J0D01*
G01*
X65227000Y-83630000D01*
G75*
G02*
X65152000Y-83555000I0J75000D01*
G01*
X65152000Y-83405000D01*
G75*
G02*
X65227000Y-83330000I75000J0D01*
G01*
G37*
D18*
X63627000Y-84455000D03*
%TD*%
D13*
%TO.C,U2*%
X60375000Y-61855000D03*
X60375000Y-64135000D03*
X60375000Y-66415000D03*
D14*
X66675000Y-64135000D03*
%TD*%
%TO.C,C8*%
G36*
G01*
X58250000Y-72265000D02*
X58590000Y-72265000D01*
G75*
G02*
X58730000Y-72405000I0J-140000D01*
G01*
X58730000Y-72685000D01*
G75*
G02*
X58590000Y-72825000I-140000J0D01*
G01*
X58250000Y-72825000D01*
G75*
G02*
X58110000Y-72685000I0J140000D01*
G01*
X58110000Y-72405000D01*
G75*
G02*
X58250000Y-72265000I140000J0D01*
G01*
G37*
G36*
G01*
X58250000Y-73225000D02*
X58590000Y-73225000D01*
G75*
G02*
X58730000Y-73365000I0J-140000D01*
G01*
X58730000Y-73645000D01*
G75*
G02*
X58590000Y-73785000I-140000J0D01*
G01*
X58250000Y-73785000D01*
G75*
G02*
X58110000Y-73645000I0J140000D01*
G01*
X58110000Y-73365000D01*
G75*
G02*
X58250000Y-73225000I140000J0D01*
G01*
G37*
%TD*%
D19*
%TO.C,SW1*%
X55190000Y-121285000D03*
X59690000Y-121285000D03*
X55190000Y-127785000D03*
X59690000Y-127785000D03*
%TD*%
D11*
%TO.C,JP1*%
X80010000Y-87630000D03*
D12*
X82550000Y-87630000D03*
X85090000Y-87630000D03*
%TD*%
%TO.C,R1*%
G36*
G01*
X77655000Y-114570000D02*
X77285000Y-114570000D01*
G75*
G02*
X77150000Y-114435000I0J135000D01*
G01*
X77150000Y-114165000D01*
G75*
G02*
X77285000Y-114030000I135000J0D01*
G01*
X77655000Y-114030000D01*
G75*
G02*
X77790000Y-114165000I0J-135000D01*
G01*
X77790000Y-114435000D01*
G75*
G02*
X77655000Y-114570000I-135000J0D01*
G01*
G37*
G36*
G01*
X77655000Y-113550000D02*
X77285000Y-113550000D01*
G75*
G02*
X77150000Y-113415000I0J135000D01*
G01*
X77150000Y-113145000D01*
G75*
G02*
X77285000Y-113010000I135000J0D01*
G01*
X77655000Y-113010000D01*
G75*
G02*
X77790000Y-113145000I0J-135000D01*
G01*
X77790000Y-113415000D01*
G75*
G02*
X77655000Y-113550000I-135000J0D01*
G01*
G37*
%TD*%
%TO.C,R2*%
G36*
G01*
X77655000Y-115965000D02*
X77285000Y-115965000D01*
G75*
G02*
X77150000Y-115830000I0J135000D01*
G01*
X77150000Y-115560000D01*
G75*
G02*
X77285000Y-115425000I135000J0D01*
G01*
X77655000Y-115425000D01*
G75*
G02*
X77790000Y-115560000I0J-135000D01*
G01*
X77790000Y-115830000D01*
G75*
G02*
X77655000Y-115965000I-135000J0D01*
G01*
G37*
G36*
G01*
X77655000Y-116985000D02*
X77285000Y-116985000D01*
G75*
G02*
X77150000Y-116850000I0J135000D01*
G01*
X77150000Y-116580000D01*
G75*
G02*
X77285000Y-116445000I135000J0D01*
G01*
X77655000Y-116445000D01*
G75*
G02*
X77790000Y-116580000I0J-135000D01*
G01*
X77790000Y-116850000D01*
G75*
G02*
X77655000Y-116985000I-135000J0D01*
G01*
G37*
%TD*%
%TO.C,C22*%
G36*
G01*
X55923000Y-82294000D02*
X55583000Y-82294000D01*
G75*
G02*
X55443000Y-82154000I0J140000D01*
G01*
X55443000Y-81874000D01*
G75*
G02*
X55583000Y-81734000I140000J0D01*
G01*
X55923000Y-81734000D01*
G75*
G02*
X56063000Y-81874000I0J-140000D01*
G01*
X56063000Y-82154000D01*
G75*
G02*
X55923000Y-82294000I-140000J0D01*
G01*
G37*
G36*
G01*
X55923000Y-81334000D02*
X55583000Y-81334000D01*
G75*
G02*
X55443000Y-81194000I0J140000D01*
G01*
X55443000Y-80914000D01*
G75*
G02*
X55583000Y-80774000I140000J0D01*
G01*
X55923000Y-80774000D01*
G75*
G02*
X56063000Y-80914000I0J-140000D01*
G01*
X56063000Y-81194000D01*
G75*
G02*
X55923000Y-81334000I-140000J0D01*
G01*
G37*
%TD*%
%TO.C,L1*%
G36*
G01*
X60682000Y-81025750D02*
X60682000Y-81788250D01*
G75*
G02*
X60463250Y-82007000I-218750J0D01*
G01*
X60025750Y-82007000D01*
G75*
G02*
X59807000Y-81788250I0J218750D01*
G01*
X59807000Y-81025750D01*
G75*
G02*
X60025750Y-80807000I218750J0D01*
G01*
X60463250Y-80807000D01*
G75*
G02*
X60682000Y-81025750I0J-218750D01*
G01*
G37*
G36*
G01*
X58557000Y-81025750D02*
X58557000Y-81788250D01*
G75*
G02*
X58338250Y-82007000I-218750J0D01*
G01*
X57900750Y-82007000D01*
G75*
G02*
X57682000Y-81788250I0J218750D01*
G01*
X57682000Y-81025750D01*
G75*
G02*
X57900750Y-80807000I218750J0D01*
G01*
X58338250Y-80807000D01*
G75*
G02*
X58557000Y-81025750I0J-218750D01*
G01*
G37*
%TD*%
D20*
%TO.C,J9*%
X47138000Y-78404000D03*
X47138000Y-87204000D03*
X52638000Y-78404000D03*
X52638000Y-87204000D03*
D21*
X52638000Y-81204000D03*
X52638000Y-82004000D03*
X52638000Y-82804000D03*
X52638000Y-83604000D03*
X52638000Y-84404000D03*
D22*
X50038000Y-80604000D03*
X50038000Y-85004000D03*
%TD*%
M02*
